<svg xmlns="http://www.w3.org/2000/svg" xmlns:xlink="http://www.w3.org/1999/xlink" width="434" height="476" viewBox="0 0 434 476">
  <defs>
    <style>
      .cls-1 {
        fill: #707070;
      }

      .cls-2 {
        clip-path: url(#clip-Artboard_8);
      }

      .cls-3 {
        fill: #fed10b;
      }

      .cls-4 {
        opacity: 0.7;
      }

      .cls-5 {
        clip-path: url(#clip-path);
      }
    </style>
    <clipPath id="clip-path">
      <rect id="Rectangle_20" data-name="Rectangle 20" class="cls-1" width="382.875" height="246.87"/>
    </clipPath>
    <clipPath id="clip-Artboard_8">
      <rect width="434" height="476"/>
    </clipPath>
  </defs>
  <g id="Artboard_8" data-name="Artboard – 8" class="cls-2">
    <path id="Polygon_5" data-name="Polygon 5" class="cls-3" d="M142.413,0,284.826,295.515H0Z" transform="translate(247.826 465.486) rotate(180)"/>
    <g id="Butterfly_Smaller" data-name="Butterfly Smaller" transform="translate(-9.733)">
      <g id="Group_173" data-name="Group 173" class="cls-4" transform="matrix(0.978, 0.208, -0.208, 0.978, 51.327, 0)">
        <g id="Group_170" data-name="Group 170" class="cls-5">
          <path id="Path_20" data-name="Path 20" class="cls-1" d="M381.48,32.954c-.16-.222-.321-.453-.466-.683q-3.215-5.063-6.484-10.093l-2.672-4.142q-1.433-2.225-2.855-4.455c-1.733-2.711-3.525-5.515-5.324-8.252-.293-.445-.569-.9-.846-1.362a18.221,18.221,0,0,0-2.45-3.419L359.14.241a.813.813,0,0,0-.92-.075,1.667,1.667,0,0,1-1.785.128,3.454,3.454,0,0,0-2.427-.14c-.2.041-.4.082-.593.1-3.377.373-6.8.816-10.107,1.243l-2.091.27q-2.544.327-5.086.666-2.878.381-5.754.751-4.776.609-9.554,1.186l-1.174.144q-2.031.248-4.063.49-2.87.346-5.74.7l-.444.056c-4.259.53-8.519,1.06-12.773,1.622l-2.564.342c-2.973.4-6.048.811-9.079,1.132-1.485.158-2.987.357-4.438.549-1.309.174-2.619.347-3.932.493a4.294,4.294,0,0,0-1.534.535l.37.729.39.672c-.022-.034-.052-.06-.073-.095a2.583,2.583,0,0,0-1.8-1.219,2.659,2.659,0,0,0-2.154.64c-1.093.942-2.163,1.911-3.233,2.88l-.924.836q-1.664,1.5-3.321,3.005c-2.784,2.523-5.664,5.132-8.529,7.658C248.384,32.087,241.761,38,235.555,43.626c-4.946,4.483-8.993,8.106-12.736,11.4q-.986.867-1.976,1.731c-2.426,2.118-4.933,4.309-7.282,6.6-1.359,1.321-2.806,2.6-4.206,3.843s-2.847,2.519-4.215,3.849l-.089.082a1.978,1.978,0,0,0-.525.662,2.674,2.674,0,0,1-1.61,1.6,2.264,2.264,0,0,0-1.27,2.784c1.021,5.218,2.121,10.624,3.266,16.067.683,3.243,1.337,6.491,1.99,9.739.66,3.288,1.321,6.574,2.012,9.856.133.624.246,1.254.36,1.885a28.463,28.463,0,0,0,1.112,4.643,3.419,3.419,0,0,1-.349,2.788q-2.093,5.02-4.139,10.059-1.789,4.374-3.591,8.742-3.484,8.4-7.014,16.778l-2.6,6.2c-.228.543-.463,1.084-.7,1.625-.29.665-.58,1.348-.863,2.036-.282-.688-.573-1.371-.863-2.036-.236-.541-.471-1.081-.7-1.625l-2.6-6.2q-3.518-8.385-7.014-16.778-1.812-4.364-3.591-8.742-2.056-5.035-4.139-10.059a3.419,3.419,0,0,1-.349-2.788,28.466,28.466,0,0,0,1.112-4.643c.115-.631.228-1.26.359-1.885.692-3.281,1.352-6.568,2.013-9.856.653-3.248,1.306-6.5,1.989-9.739,1.146-5.443,2.245-10.848,3.266-16.067a2.263,2.263,0,0,0-1.269-2.784,2.674,2.674,0,0,1-1.61-1.6,1.969,1.969,0,0,0-.526-.662l-.088-.082c-1.369-1.33-2.815-2.611-4.215-3.849s-2.847-2.522-4.206-3.843c-2.35-2.288-4.857-4.478-7.282-6.6q-.988-.864-1.977-1.731c-3.742-3.3-7.789-6.92-12.735-11.4C140.5,38,133.877,32.087,126.456,25.543c-2.865-2.527-5.745-5.135-8.529-7.658q-1.66-1.5-3.322-3.005l-.923-.836c-1.07-.969-2.14-1.938-3.233-2.88a2.66,2.66,0,0,0-2.154-.64,2.581,2.581,0,0,0-1.8,1.219c-.021.035-.051.061-.073.095l.39-.672.37-.729a4.3,4.3,0,0,0-1.534-.535c-1.313-.146-2.622-.319-3.932-.493-1.451-.192-2.953-.391-4.438-.549-3.031-.321-6.106-.733-9.079-1.132l-2.564-.342c-4.255-.562-8.514-1.092-12.773-1.622l-.444-.056q-2.869-.357-5.741-.7-2.031-.243-4.062-.49l-1.175-.144Q56.66,3.79,51.885,3.189q-2.878-.367-5.754-.751-2.542-.336-5.086-.666L38.954,1.5c-3.309-.427-6.73-.87-10.107-1.243-.195-.022-.394-.063-.593-.1a3.456,3.456,0,0,0-2.428.14A1.665,1.665,0,0,1,24.041.166a.813.813,0,0,0-.92.075L21.88.547a18.262,18.262,0,0,0-2.451,3.419c-.277.458-.552.917-.846,1.362-1.8,2.738-3.59,5.541-5.323,8.252Q11.835,15.81,10.4,18.036L7.732,22.178Q4.477,27.215,1.249,32.271c-.146.23-.307.462-.467.683a3,3,0,0,0-.758,2.189,3.226,3.226,0,0,0,1.514,1.936.813.813,0,0,0,.84.067,6.72,6.72,0,0,1,3.853-.268c.5.058,1,.117,1.5.143,3.377.18,6.809.445,10.129.7l.959.074c1.314.1,2.626.221,3.939.34,1.329.122,2.658.243,3.989.345s2.657.188,3.986.273c2.331.149,4.741.3,7.093.554,1.412.151,2.843.259,4.228.363,1.2.091,2.407.182,3.608.3,1.283.127,2.571.224,3.858.322,1.252.1,2.505.191,3.755.313,1.021.1,2.045.166,3.07.232,1.69.11,3.437.223,5.125.5a5.08,5.08,0,0,0,1.151.056,4.294,4.294,0,0,0,1.629-.433,4.391,4.391,0,0,0,.971.49l.189.074a12.225,12.225,0,0,1,2.673,1.666l.546.405Q72.9,46.725,77.141,49.9L95.014,63.188c.1.076.208.151.314.225.663.461.771.6.722.959a.819.819,0,0,0,.867.929.774.774,0,0,0,.193-.047c.306.079.319.126.341.246a40.239,40.239,0,0,0,2.209,7.04c.354.922.709,1.846,1.033,2.777,1.487,4.275,3.008,8.536,4.528,12.8l.889,2.494q.76,2.134,1.53,4.263,1,2.782,1.99,5.569-.405,1.855-.821,3.707c-.523,2.337-1.063,4.753-1.55,7.147-.339,1.668-.7,3.33-1.066,4.992-.707,3.23-1.438,6.569-1.97,9.915a9.21,9.21,0,0,1-.311,1.2c-.066.216-.132.432-.192.649a.988.988,0,0,0,.6,1.2h.006l0,.165.134,0a44.125,44.125,0,0,0,6.509,3.554c.778.369,1.556.737,2.324,1.122q2.472,1.239,4.938,2.491c3.1,1.566,6.3,3.186,9.468,4.735,2.076,1.013,4.14,2.049,6.2,3.083,2.743,1.375,5.578,2.8,8.4,4.145a30.456,30.456,0,0,1,3.1,1.691,2.737,2.737,0,0,1,.891.759,4.434,4.434,0,0,1-2.334-.2c-3.748-1.238-7.591-2.378-11.307-3.479l-3.114-.926q-3.868-1.158-7.744-2.294-2.76-.813-5.516-1.63-6.58-1.954-13.153-3.928l-.1-.031a3.958,3.958,0,0,0-2.593-.149,2.622,2.622,0,0,0-3.214.723c-4.088,4.038-8.358,8.136-13.053,12.528-2.709,2.534-5.4,5.169-8,7.717l-1.436,1.4c-.889.868-1.8,1.715-2.706,2.562-1.35,1.259-2.747,2.56-4.059,3.92l-.233.238a4.83,4.83,0,0,0-1.559,2.522.772.772,0,0,0,0,.144c-.011.023-.029.038-.038.062a3.6,3.6,0,0,0-.261,1.732c.084.643.178,1.287.271,1.929.214,1.481.436,3.011.541,4.51.126,1.8.325,3.616.518,5.37q.114,1.035.223,2.072c.3,2.855.625,5.709.953,8.562q.266,2.318.529,4.637c.047.421.079.847.111,1.272.056.728.112,1.482.245,2.231.392,2.215.606,4.507.814,6.723.179,1.915.365,3.9.665,5.844a5.753,5.753,0,0,0,2.625,4.161c1.4.917,2.865,1.752,4.284,2.561q.852.484,1.7.975,2.288,1.333,4.573,2.672c3.557,2.082,7.236,4.234,10.879,6.312,7.914,4.512,15.018,8.612,21.717,12.536.214.126.428.256.643.388a8.428,8.428,0,0,0,4.177,1.585c.026,0,.053,0,.079,0a.82.82,0,0,0,.615-.345,3.294,3.294,0,0,1,1.118-.845,5.323,5.323,0,0,0,1.569-1.192c.926-1.116,1.967-2.188,2.973-3.225q.54-.557,1.076-1.117l6.435-6.759q5.152-5.409,10.3-10.824,3.108-3.275,6.2-6.564,2.873-3.048,5.751-6.09,1.875-1.976,3.766-3.939c1.813-1.886,3.625-3.774,5.412-5.684,3.7-3.956,7.553-8.037,11.448-12.128s7.8-8.2,11.7-12.3a3.139,3.139,0,0,0,.906-1.89,2.249,2.249,0,0,1,.424-1.082c.012-.018.021-.038.033-.056.011.019.02.038.032.056a2.243,2.243,0,0,1,.425,1.082,3.139,3.139,0,0,0,.906,1.89q5.845,6.154,11.7,12.3c3.895,4.091,7.746,8.172,11.448,12.128,1.787,1.91,3.6,3.8,5.411,5.684q1.888,1.967,3.766,3.939,2.881,3.038,5.75,6.09,3.1,3.285,6.2,6.564,5.143,5.418,10.3,10.824l6.435,6.759c.356.373.716.746,1.076,1.117,1.006,1.037,2.046,2.11,2.972,3.225a5.344,5.344,0,0,0,1.569,1.192,3.289,3.289,0,0,1,1.119.845.819.819,0,0,0,.615.345c.025,0,.052,0,.079,0a8.431,8.431,0,0,0,4.177-1.585c.214-.132.429-.262.642-.388,6.7-3.924,13.8-8.024,21.717-12.536,3.644-2.078,7.323-4.23,10.879-6.312q2.286-1.338,4.573-2.672.846-.492,1.7-.975c1.419-.809,2.887-1.643,4.285-2.561a5.756,5.756,0,0,0,2.625-4.161c.3-1.948.486-3.929.665-5.844.208-2.216.422-4.508.814-6.723.133-.749.189-1.5.245-2.231.032-.425.064-.85.111-1.272q.26-2.319.529-4.637c.328-2.853.656-5.706.953-8.562.071-.692.147-1.382.223-2.072.193-1.754.392-3.568.518-5.37.1-1.5.327-3.03.54-4.51.093-.642.187-1.286.272-1.929a3.593,3.593,0,0,0-.262-1.732.693.693,0,0,0-.038-.062.848.848,0,0,0,0-.144,4.826,4.826,0,0,0-1.56-2.522l-.233-.238c-1.312-1.36-2.709-2.662-4.059-3.92-.908-.846-1.818-1.693-2.707-2.562l-1.435-1.4c-2.6-2.548-5.3-5.183-8-7.717-4.7-4.392-8.965-8.49-13.053-12.528a2.622,2.622,0,0,0-3.214-.723,3.958,3.958,0,0,0-2.593.149l-.1.031q-6.573,1.977-13.154,3.928-2.756.819-5.515,1.63-3.873,1.142-7.744,2.294l-3.114.926c-3.717,1.1-7.561,2.241-11.307,3.479a4.434,4.434,0,0,1-2.334.2,2.737,2.737,0,0,1,.891-.759,30.525,30.525,0,0,1,3.1-1.691c2.819-1.347,5.654-2.77,8.4-4.145,2.065-1.035,4.129-2.07,6.2-3.083,3.172-1.549,6.372-3.169,9.468-4.735q2.468-1.249,4.938-2.491c.768-.385,1.545-.753,2.324-1.122a44.124,44.124,0,0,0,6.509-3.554l.133,0,0-.165h.006a.988.988,0,0,0,.6-1.2c-.06-.217-.125-.433-.192-.649a9.21,9.21,0,0,1-.311-1.2c-.532-3.347-1.263-6.686-1.97-9.915-.363-1.662-.728-3.324-1.066-4.992-.487-2.394-1.027-4.81-1.55-7.147q-.415-1.853-.821-3.708.985-2.788,1.99-5.569.767-2.13,1.53-4.263l.889-2.494c1.521-4.262,3.041-8.523,4.528-12.8.324-.931.678-1.855,1.032-2.777a40.174,40.174,0,0,0,2.21-7.04c.022-.119.035-.167.341-.246a.775.775,0,0,0,.193.047.819.819,0,0,0,.867-.929c-.049-.355.059-.5.722-.959.106-.074.212-.149.314-.225L305.12,49.9q4.248-3.165,8.514-6.305l.547-.405a12.224,12.224,0,0,1,2.673-1.666l.189-.074a4.39,4.39,0,0,0,.971-.49,4.29,4.29,0,0,0,1.629.433,5.087,5.087,0,0,0,1.152-.056c1.688-.273,3.435-.386,5.125-.5,1.024-.066,2.049-.133,3.07-.232,1.25-.122,2.5-.217,3.755-.313,1.287-.1,2.574-.2,3.858-.322,1.2-.118,2.4-.209,3.608-.3,1.385-.1,2.816-.212,4.228-.363,2.351-.25,4.761-.405,7.093-.554,1.329-.085,2.658-.171,3.986-.273s2.66-.223,3.989-.345c1.313-.119,2.625-.24,3.939-.34l.959-.074c3.32-.257,6.752-.522,10.128-.7.5-.026,1-.085,1.5-.143a6.72,6.72,0,0,1,3.853.268.813.813,0,0,0,.84-.067,3.228,3.228,0,0,0,1.513-1.936,3,3,0,0,0-.757-2.189M61.729,39.722c-1.765-.285-3.552-.4-5.28-.513-1.007-.065-2.013-.13-3.018-.228-1.261-.124-2.525-.22-3.79-.316s-2.549-.194-3.821-.319c-1.214-.119-2.43-.212-3.647-.3-1.372-.1-2.79-.21-4.177-.358-2.385-.255-4.812-.41-7.16-.561-1.322-.085-2.644-.169-3.964-.272s-2.645-.223-3.967-.344-2.639-.241-3.96-.343l-.959-.074c-3.329-.258-6.772-.524-10.167-.7-.464-.025-.929-.08-1.394-.135a8.767,8.767,0,0,0-4.293.219c-.367-.3-.472-.485-.489-.589-.02-.12.045-.386.467-.967.18-.249.36-.508.524-.767Q5.843,28.09,9.107,23.066l2.675-4.144q1.433-2.226,2.857-4.46c1.73-2.707,3.519-5.506,5.312-8.234.3-.463.593-.94.88-1.415a15.849,15.849,0,0,1,2.36-3.259c.012.008.02.022.034.029a4.278,4.278,0,0,0,1.045.436,4.99,4.99,0,0,0,1.669,2.431q2.856,2.655,5.706,5.315c4.951,4.617,10.072,9.39,15.15,14.042,1.944,1.781,3.89,3.628,5.773,5.416,2.961,2.811,6.024,5.717,9.164,8.449a6.106,6.106,0,0,1,1.593,1.86c.008.016.02.026.029.041a3.056,3.056,0,0,1-1.623.148m3.26-.426a.8.8,0,0,0-.177-.415c-.009-.022-.007-.045-.018-.067A7.7,7.7,0,0,0,62.8,36.437c-3.114-2.71-6.164-5.6-9.112-8.4-1.887-1.792-3.84-3.644-5.794-5.435-5.073-4.647-10.19-9.418-15.14-14.032q-2.852-2.659-5.707-5.316a4.6,4.6,0,0,1-1.064-1.265,3.593,3.593,0,0,0,.6-.242,2.019,2.019,0,0,1,1.344.014c.249.051.5.1.74.127,3.36.372,6.775.813,10.076,1.24l2.093.269q2.541.328,5.08.666,2.88.381,5.762.752Q56.456,5.422,61.239,6l1.175.144q2.033.249,4.066.491,2.868.345,5.734.7l.444.056c4.255.53,8.511,1.059,12.762,1.62l2.56.341c2.984.4,6.071.814,9.125,1.138,1.464.156,2.955.353,4.395.544,1.321.175,2.642.349,3.965.5a2.712,2.712,0,0,1,.929.345,3.056,3.056,0,0,1-.814.824c-.984.672-1.96,1.355-2.936,2.039-.913.639-1.825,1.278-2.744,1.909q-3.131,2.142-6.268,4.275-4.013,2.734-8.021,5.478l-1.376.946c-4.661,3.2-9.479,6.511-14.174,9.833-.342.241-.705.458-1.071.674a7.843,7.843,0,0,0-2.722,2.274c-.083-.037-.16-.081-.246-.116l-.216-.084c-.649-.25-.794-.362-.818-.629m31,22.58L78.119,48.59c-2.836-2.113-5.672-4.226-8.526-6.314l-.532-.4c-.431-.322-.871-.647-1.333-.952a6.762,6.762,0,0,1,2.1-1.671c.39-.232.793-.472,1.178-.745,4.686-3.316,9.5-6.623,14.156-9.82l1.376-.945q4-2.747,8.015-5.474,3.138-2.137,6.272-4.279c.924-.633,1.841-1.275,2.759-1.918.97-.68,1.941-1.359,2.919-2.027a4.706,4.706,0,0,0,1.388-1.453.937.937,0,0,1,.657-.455,1.029,1.029,0,0,1,.832.262c1.084.934,2.143,1.894,3.2,2.855l.926.837q1.661,1.5,3.319,3c2.789,2.527,5.673,5.139,8.545,7.673,7.417,6.539,14.034,12.449,20.233,18.068,4.953,4.488,9.005,8.116,12.753,11.417q.989.87,1.982,1.736c2.408,2.1,4.9,4.28,7.217,6.537,1.386,1.349,2.849,2.643,4.263,3.895,1.384,1.227,2.817,2.495,4.16,3.8l.127.118a1.655,1.655,0,0,1,.146.142,5.178,5.178,0,0,0,.344.634,2.093,2.093,0,0,1-1.26.24c-2.278-.413-4.6-.692-6.845-.962-1.382-.166-2.763-.332-4.141-.529-1.817-.259-3.667-.484-5.455-.7-2.34-.283-4.76-.576-7.12-.952-2.621-.417-5.29-.727-7.871-1.027-1.8-.21-3.657-.426-5.477-.675-3.072-.421-6.181-.807-9.188-1.179-1.892-.234-3.781-.5-5.669-.773-1.586-.226-3.173-.453-4.762-.659l-1.918-.249c-4.278-.557-8.7-1.132-13.068-1.589-.458-.048-.922-.137-1.413-.231a7.812,7.812,0,0,0-4.3.036,2.555,2.555,0,0,0-.491-.2,3,3,0,0,0-1.361-1.6c-.092-.064-.183-.128-.273-.194m11.659,28.167-.89-2.495c-1.519-4.258-3.038-8.515-4.524-12.785-.33-.949-.69-1.888-1.049-2.828a39.268,39.268,0,0,1-2.107-6.655,7.293,7.293,0,0,1,3.025.16c.5.1,1.023.195,1.55.25,4.347.455,8.76,1.029,13.027,1.584l1.919.25c1.583.2,3.162.431,4.742.655,1.9.271,3.8.542,5.7.778,3,.372,6.1.756,9.166,1.177,1.837.252,3.7.469,5.511.678,2.564.3,5.215.607,7.8,1.019,2.389.38,4.825.674,7.18.96,1.779.215,3.62.438,5.42.7,1.39.2,2.784.366,4.178.533,2.221.268,4.518.543,6.746.948a3.159,3.159,0,0,0,.774.043,4.59,4.59,0,0,0,1.927-.645,4.389,4.389,0,0,0,1.031.561c.319.118.3.574.232.935-1.02,5.211-2.117,10.609-3.261,16.044-.683,3.247-1.338,6.5-1.991,9.753-.66,3.283-1.32,6.565-2.01,9.84-.134.64-.251,1.286-.368,1.931a26.785,26.785,0,0,1-1.042,4.378,4.414,4.414,0,0,0-.216.9,17.03,17.03,0,0,1-3.5-.932c-.48-.167-.96-.333-1.442-.482q-1.415-.44-2.835-.869c-2.612-.8-5.314-1.62-7.936-2.526-3.637-1.256-7.445-2.446-11.643-3.64-2.418-.687-4.856-1.473-7.213-2.233-1.905-.614-3.875-1.249-5.831-1.832s-3.947-1.214-5.868-1.823c-1.806-.574-3.612-1.147-5.426-1.693-.714-.214-1.422-.449-2.129-.683a37.743,37.743,0,0,0-4.857-1.363l-.01-.026.02-.09-.057-.015c-.728-2.068-1.472-4.131-2.215-6.2q-.766-2.128-1.528-4.257m35.357,57.032c-2.8-1.341-5.633-2.759-8.368-4.131-2.069-1.038-4.139-2.076-6.218-3.091-3.162-1.544-6.358-3.162-9.449-4.725q-2.47-1.25-4.943-2.494c-.779-.39-1.567-.764-2.355-1.138a43.949,43.949,0,0,1-6.115-3.318c.016-.049.029-.1.044-.149a10.817,10.817,0,0,0,.374-1.479c.523-3.288,1.247-6.6,1.948-9.8.366-1.672.732-3.344,1.073-5.023.482-2.373,1.021-4.78,1.541-7.107.179-.8.354-1.6.532-2.4a35.927,35.927,0,0,1,4.711,1.321c.723.24,1.445.479,2.173.7,1.806.543,3.6,1.114,5.4,1.684,1.927.612,3.921,1.245,5.9,1.833,1.939.576,3.9,1.209,5.8,1.82,2.371.764,4.823,1.554,7.269,2.25,4.167,1.184,7.947,2.366,11.555,3.613,2.649.915,5.366,1.743,7.993,2.544q1.414.431,2.827.867c.466.144.928.3,1.391.465a17.344,17.344,0,0,0,4.131,1.044,9.877,9.877,0,0,0,.5,1.42c1.394,3.342,2.764,6.695,4.134,10.048q1.79,4.378,3.594,8.749,3.487,8.4,7.017,16.784l2.6,6.2c.231.551.469,1.1.707,1.646.456,1.045.927,2.127,1.327,3.2a3.11,3.11,0,0,1,.146,1.72.807.807,0,0,0-.4-.415,2.547,2.547,0,0,1-.474-.323,4.134,4.134,0,0,0-.791-.521l-1.675-.8c-2.527-1.2-5.138-2.446-7.754-3.588l-.782-.34c-2-.87-4.067-1.77-6.029-2.77-3-1.53-6.11-2.931-9.117-4.287q-1.381-.622-2.761-1.249c-3.5-1.6-7.14-2.98-10.661-4.319l-1.162-.443c-.443-.168-.635-.3-.713-.492a3.744,3.744,0,0,0-1.648-1.726,31.919,31.919,0,0,0-3.266-1.782m-40.461-7,.1.032q6.578,1.977,13.16,3.931,2.757.819,5.518,1.631,3.871,1.14,7.738,2.292l3.117.927c3.706,1.1,7.537,2.233,11.26,3.464a5.9,5.9,0,0,0,4.061,0,4.659,4.659,0,0,0,.544.249l1.164.443c3.5,1.33,7.114,2.706,10.564,4.279q1.382.63,2.768,1.252c2.99,1.347,6.081,2.74,9.047,4.253,2.006,1.021,4.1,1.932,6.119,2.812l.781.34c2.59,1.131,5.19,2.369,7.7,3.565l1.678.8a2.756,2.756,0,0,1,.481.33,3.937,3.937,0,0,0,.808.525.775.775,0,0,0,.665,0c-.035.061-.066.123-.106.184-.06.092-.116.191-.174.289a26.72,26.72,0,0,0-6.438,1.309l-.667.195c-2.08.6-4.218,1.157-6.285,1.694q-1.222.317-2.441.638l-3.938,1.041q-6.074,1.606-12.152,3.2c-1.711.447-3.424.882-5.137,1.318-2.417.614-4.833,1.228-7.241,1.873-1.954.524-3.9,1.071-5.851,1.616-3.049.854-6.2,1.739-9.322,2.515-.786.2-1.569.405-2.352.615-1.481.4-3.013.806-4.53,1.107a5.621,5.621,0,0,0-.833-3.419c-.082-.162-.162-.324-.239-.486q-2.7-5.721-5.348-11.467-2.216-4.779-4.447-9.551-1.327-2.826-2.665-5.647c-1.885-3.987-3.834-8.109-5.695-12.188-.352-.773-.715-1.542-1.08-2.31-.445-.942-.89-1.885-1.316-2.837a5.1,5.1,0,0,1-.328-1.038,3.383,3.383,0,0,1,1.3.229M68.887,168.605l.246-.252c1.282-1.328,2.662-2.614,4-3.859.917-.855,1.836-1.711,2.734-2.589L77.3,160.5c2.6-2.541,5.284-5.17,7.978-7.691,4.707-4.4,8.987-8.511,13.085-12.558.615-.606.9-.629,1.193-.5a6.469,6.469,0,0,0,.521,1.8c.43.963.881,1.916,1.332,2.869.36.762.72,1.523,1.069,2.29,1.865,4.09,3.817,8.217,5.705,12.209q1.333,2.82,2.662,5.642,2.236,4.767,4.444,9.545,2.664,5.744,5.353,11.476c.081.173.168.346.255.52a5.026,5.026,0,0,1,.695,2.069c-5.677-2.1-11.471-4.1-17.086-6.033l-1.545-.532q-8.283-2.849-16.55-5.745c-1.042-.364-2.078-.75-3.113-1.134-1.557-.578-3.166-1.176-4.78-1.7-1.3-.422-2.6-.87-3.892-1.317-2.142-.742-4.348-1.5-6.577-2.134a5.735,5.735,0,0,1,.839-.978m1.98,33.609c-.119-.669-.17-1.35-.225-2.07-.034-.445-.067-.889-.117-1.331q-.259-2.321-.529-4.642c-.328-2.846-.656-5.694-.952-8.544-.072-.693-.148-1.387-.224-2.081-.192-1.738-.389-3.536-.512-5.3-.109-1.56-.335-3.122-.554-4.632-.092-.636-.184-1.271-.268-1.908a1.486,1.486,0,0,1,.054-.553c2.206.621,4.411,1.376,6.55,2.116,1.3.451,2.609.9,3.924,1.327,1.581.511,3.173,1.1,4.713,1.674,1.045.388,2.089.777,3.142,1.145q8.271,2.9,16.558,5.748l1.545.532c5.593,1.924,11.362,3.914,17.009,6a9.216,9.216,0,0,1-2.708,1.749c-.39.19-.778.38-1.156.586q-3.158,1.721-6.306,3.454c-4.363,2.4-8.876,4.873-13.347,7.241-2.346,1.242-4.71,2.536-7,3.789-3.347,1.831-6.807,3.725-10.26,5.484-1.093.557-2.18,1.16-3.231,1.742s-2.125,1.179-3.2,1.728a4.907,4.907,0,0,0-1.025.709,4.908,4.908,0,0,1-.4-1.359c-.292-1.9-.476-3.856-.653-5.749-.211-2.248-.429-4.573-.832-6.854m47.144,41.061c-.224-.137-.447-.274-.671-.405-6.705-3.927-13.814-8.03-21.734-12.546-3.635-2.073-7.309-4.222-10.863-6.3q-2.287-1.337-4.576-2.673c-.568-.331-1.141-.657-1.713-.983-1.4-.8-2.843-1.618-4.2-2.507a4.963,4.963,0,0,1-.5-.376,3.343,3.343,0,0,1,.757-.557c1.1-.561,2.194-1.167,3.251-1.754,1.039-.576,2.112-1.171,3.18-1.716,3.476-1.769,6.947-3.669,10.3-5.506,2.283-1.249,4.642-2.541,6.978-3.778,4.483-2.373,9-4.853,13.369-7.252q3.148-1.73,6.3-3.451c.357-.2.725-.374,1.092-.552a10.288,10.288,0,0,0,3.275-2.179,6.888,6.888,0,0,1,.242,3.028c-.029.454-.056.908-.056,1.359.006,2.01-.11,4.066-.221,6.054l-.031.562c-.11,1.974-.171,3.977-.23,5.915-.061,2.03-.126,4.128-.246,6.185-.043.737-.052,1.477-.061,2.22-.011.816-.021,1.66-.081,2.474-.083,1.147-.108,2.3-.132,3.421-.027,1.266-.055,2.576-.169,3.85-.093,1.035-.092,2.078-.092,3.086,0,.624,0,1.246-.021,1.868-.036,1.034-.085,2.068-.136,3.1-.068,1.429-.137,2.859-.17,4.29l-.023,1.174c-.02,1.183-.042,2.407-.139,3.6a2.85,2.85,0,0,0,.43,1.523l.007.016c-.046.042-.093.079-.137.124a7.815,7.815,0,0,1-2.99-1.314m58.876-56.863c-3.9,4.095-7.752,8.179-11.457,12.138-1.783,1.905-3.59,3.788-5.4,5.67q-1.891,1.968-3.773,3.945-2.883,3.041-5.755,6.094-3.094,3.284-6.2,6.56-5.143,5.418-10.3,10.821l-6.436,6.759c-.353.372-.709.739-1.066,1.107-1.028,1.06-2.09,2.156-3.056,3.32a3.428,3.428,0,0,1-.949.715,1.4,1.4,0,0,1-.174-.483c.1-1.245.123-2.5.144-3.706l.022-1.163c.034-1.418.1-2.834.169-4.251.05-1.041.1-2.082.137-3.123.022-.641.022-1.284.022-1.927,0-1.017,0-1.977.085-2.939.119-1.329.147-2.667.176-3.962.024-1.1.047-2.232.128-3.337.063-.863.074-1.733.084-2.573.009-.717.018-1.433.06-2.144.121-2.08.185-4.19.247-6.231.058-1.928.119-3.921.228-5.874l.031-.561c.113-2.012.23-4.091.224-6.149,0-.415.026-.833.053-1.252a8.709,8.709,0,0,0-.288-3.545c1.454-.3,2.9-.679,4.292-1.053.774-.207,1.548-.414,2.325-.608,3.142-.782,6.308-1.67,9.368-2.528,1.943-.544,3.885-1.089,5.834-1.611,2.4-.643,4.809-1.255,7.219-1.868,1.717-.437,3.434-.872,5.149-1.32q6.082-1.589,12.156-3.2l3.938-1.041q1.215-.322,2.435-.636c2.078-.54,4.226-1.1,6.327-1.707l.671-.195a27.749,27.749,0,0,1,5.452-1.215,1.644,1.644,0,0,1-.438.773q-5.845,6.154-11.695,12.3m81.921,56.415c-.966-1.164-2.029-2.26-3.056-3.32-.357-.368-.714-.736-1.066-1.107l-6.436-6.759q-5.151-5.408-10.3-10.821-3.106-3.273-6.2-6.56-2.874-3.051-5.755-6.094-1.877-1.98-3.772-3.945c-1.808-1.882-3.615-3.765-5.4-5.67-3.705-3.96-7.56-8.044-11.457-12.138s-7.8-8.2-11.695-12.3a1.653,1.653,0,0,1-.439-.773,27.735,27.735,0,0,1,5.452,1.215l.672.195c2.1.609,4.249,1.167,6.327,1.707q1.218.317,2.435.636l3.938,1.041q6.077,1.607,12.156,3.2c1.714.448,3.431.883,5.149,1.32,2.409.613,4.818,1.225,7.219,1.868,1.949.522,3.891,1.066,5.834,1.611,3.06.858,6.226,1.746,9.367,2.528.778.194,1.552.4,2.326.608,1.4.373,2.838.751,4.292,1.053a8.71,8.71,0,0,0-.288,3.545c.027.419.054.837.052,1.252,0,2.058.111,4.137.225,6.149l.031.561c.108,1.953.169,3.946.228,5.874.061,2.04.126,4.151.247,6.231.042.711.051,1.427.06,2.144.01.841.02,1.71.084,2.573.08,1.1.1,2.239.128,3.337.028,1.295.056,2.633.176,3.962.087.962.086,1.922.085,2.939,0,.642,0,1.286.022,1.927.037,1.041.087,2.082.136,3.123.068,1.417.136,2.833.169,4.251l.023,1.163c.02,1.21.043,2.461.144,3.706a1.4,1.4,0,0,1-.173.483,3.416,3.416,0,0,1-.949-.715m45-22.461c-.572.326-1.145.652-1.714.983q-2.29,1.334-4.575,2.673c-3.554,2.08-7.228,4.23-10.863,6.3-7.921,4.515-15.029,8.619-21.734,12.546-.224.131-.447.268-.671.405a7.815,7.815,0,0,1-2.99,1.314c-.043-.046-.091-.083-.137-.124l.007-.016a2.85,2.85,0,0,0,.43-1.523c-.1-1.192-.119-2.416-.139-3.6l-.023-1.174c-.034-1.431-.1-2.861-.17-4.29-.051-1.035-.1-2.069-.136-3.1-.022-.622-.022-1.245-.021-1.868,0-1.008,0-2.051-.092-3.086-.115-1.273-.142-2.584-.169-3.85-.025-1.119-.048-2.274-.133-3.421-.059-.814-.07-1.658-.08-2.474-.009-.743-.019-1.484-.061-2.22-.12-2.057-.184-4.155-.246-6.185-.059-1.938-.12-3.941-.23-5.915l-.031-.562c-.111-1.988-.227-4.044-.221-6.054,0-.45-.027-.9-.056-1.359a6.881,6.881,0,0,1,.242-3.029,10.277,10.277,0,0,0,3.275,2.18c.367.178.735.357,1.092.552q3.155,1.717,6.3,3.451c4.37,2.4,8.887,4.879,13.368,7.252,2.337,1.237,4.7,2.529,6.979,3.778,3.356,1.837,6.827,3.737,10.3,5.506,1.068.545,2.141,1.14,3.18,1.716,1.057.587,2.15,1.193,3.251,1.754a3.357,3.357,0,0,1,.756.557,4.97,4.97,0,0,1-.5.376c-1.353.889-2.8,1.711-4.2,2.507m10.914-49.216a1.5,1.5,0,0,1,.054.553c-.083.637-.176,1.272-.268,1.908-.219,1.51-.445,3.072-.555,4.632-.123,1.769-.321,3.566-.512,5.3-.076.694-.152,1.388-.224,2.081-.3,2.851-.624,5.7-.952,8.544q-.268,2.322-.529,4.642c-.05.442-.083.886-.117,1.331-.055.72-.106,1.4-.225,2.07-.4,2.281-.621,4.606-.832,6.854-.178,1.892-.362,3.848-.653,5.749a4.937,4.937,0,0,1-.4,1.359,4.907,4.907,0,0,0-1.025-.709c-1.076-.548-2.157-1.147-3.2-1.728s-2.138-1.186-3.231-1.742c-3.453-1.76-6.914-3.653-10.26-5.484-2.288-1.252-4.652-2.547-7-3.789-4.471-2.368-8.984-4.845-13.347-7.241q-3.151-1.731-6.306-3.454c-.379-.206-.768-.4-1.156-.586a9.216,9.216,0,0,1-2.708-1.749c5.647-2.09,11.416-4.08,17.009-6l1.545-.532q8.288-2.852,16.558-5.748c1.052-.368,2.1-.757,3.142-1.145,1.54-.572,3.132-1.164,4.713-1.674,1.315-.424,2.621-.876,3.924-1.327,2.139-.74,4.343-1.494,6.55-2.116m-30.823-30.9c4.1,4.047,8.378,8.155,13.085,12.558,2.694,2.521,5.38,5.15,7.978,7.691l1.436,1.405c.9.877,1.816,1.733,2.734,2.589,1.335,1.245,2.715,2.531,4,3.859l.246.252a5.741,5.741,0,0,1,.84.978c-2.229.631-4.435,1.393-6.577,2.134-1.293.447-2.588.9-3.892,1.317-1.615.521-3.224,1.119-4.78,1.7-1.035.385-2.071.77-3.113,1.134q-8.266,2.9-16.55,5.745l-1.545.532c-5.616,1.932-11.41,3.93-17.086,6.033a5.026,5.026,0,0,1,.695-2.069c.086-.173.174-.346.255-.52q2.7-5.726,5.353-11.476,2.215-4.777,4.444-9.545,1.325-2.824,2.662-5.642c1.888-3.991,3.84-8.119,5.7-12.209.349-.767.71-1.528,1.07-2.29.451-.953.9-1.906,1.332-2.869a6.5,6.5,0,0,0,.521-1.8c.291-.133.579-.11,1.193.5m-45.083,12.1c3.724-1.23,7.555-2.365,11.26-3.464l3.118-.927q3.866-1.156,7.738-2.292,2.76-.815,5.518-1.631,6.583-1.956,13.16-3.931l.1-.032a3.383,3.383,0,0,1,1.3-.229,5.051,5.051,0,0,1-.329,1.038c-.425.953-.871,1.9-1.315,2.837-.364.769-.728,1.538-1.079,2.31-1.86,4.079-3.81,8.2-5.7,12.188q-1.334,2.822-2.664,5.647-2.237,4.769-4.447,9.551-2.663,5.739-5.349,11.467c-.076.162-.156.324-.238.486a5.615,5.615,0,0,0-.833,3.419c-1.518-.3-3.049-.71-4.53-1.107-.783-.21-1.566-.419-2.353-.615-3.118-.776-6.272-1.661-9.321-2.515-1.949-.546-3.9-1.093-5.851-1.616-2.409-.645-4.824-1.26-7.241-1.873-1.713-.436-3.427-.872-5.138-1.318q-6.078-1.587-12.151-3.2l-3.938-1.041q-1.219-.323-2.441-.638c-2.067-.537-4.2-1.093-6.285-1.694l-.667-.195a26.734,26.734,0,0,0-6.439-1.309c-.056-.1-.114-.2-.173-.289-.039-.061-.07-.123-.106-.184a.773.773,0,0,0,.664,0,3.945,3.945,0,0,0,.809-.525,2.754,2.754,0,0,1,.48-.33l1.678-.8c2.515-1.2,5.114-2.434,7.7-3.565l.781-.34c2.022-.88,4.113-1.791,6.119-2.812,2.965-1.512,6.057-2.905,9.047-4.253q1.385-.624,2.767-1.252c3.451-1.573,7.067-2.949,10.564-4.279l1.164-.443a4.659,4.659,0,0,0,.544-.249,5.9,5.9,0,0,0,4.06,0m35.52-35.6c.7,3.2,1.426,6.511,1.949,9.8a10.813,10.813,0,0,0,.374,1.479c.015.05.029.1.044.149a44,44,0,0,1-6.115,3.318c-.789.374-1.576.747-2.355,1.138q-2.475,1.24-4.943,2.494c-3.091,1.563-6.286,3.18-9.449,4.725-2.08,1.016-4.149,2.053-6.218,3.091-2.735,1.372-5.564,2.789-8.368,4.131a32.023,32.023,0,0,0-3.266,1.782,3.743,3.743,0,0,0-1.648,1.726c-.078.19-.271.324-.713.492l-1.162.443c-3.521,1.339-7.163,2.724-10.661,4.319q-1.38.629-2.761,1.249c-3.007,1.356-6.118,2.757-9.118,4.287-1.961,1-4.028,1.9-6.029,2.77l-.781.34c-2.616,1.142-5.227,2.386-7.754,3.588l-1.676.8a4.153,4.153,0,0,0-.79.521,2.547,2.547,0,0,1-.474.323.807.807,0,0,0-.4.415,3.11,3.11,0,0,1,.146-1.72c.4-1.075.871-2.157,1.326-3.2.239-.548.477-1.1.708-1.646l2.6-6.2q3.518-8.386,7.017-16.784,1.812-4.368,3.594-8.749c1.37-3.353,2.74-6.705,4.134-10.048a9.879,9.879,0,0,0,.5-1.42,17.355,17.355,0,0,0,4.131-1.044c.463-.16.926-.321,1.391-.465q1.413-.437,2.828-.867c2.627-.8,5.344-1.629,7.993-2.544,3.608-1.246,7.388-2.428,11.555-3.613,2.445-.7,4.9-1.485,7.269-2.25,1.9-.611,3.856-1.244,5.8-1.82,1.974-.588,3.968-1.221,5.9-1.833,1.8-.57,3.6-1.141,5.4-1.684.728-.219,1.45-.458,2.173-.7a35.928,35.928,0,0,1,4.711-1.321q.265,1.2.531,2.4c.521,2.328,1.06,4.734,1.542,7.107.341,1.679.707,3.351,1.072,5.023m6.739-44.816c-.359.94-.719,1.879-1.05,2.828-1.485,4.27-3,8.526-4.523,12.785l-.89,2.495q-.759,2.13-1.529,4.257c-.743,2.064-1.486,4.127-2.214,6.2l-.057.015.02.09-.01.026a37.7,37.7,0,0,0-4.857,1.363c-.708.234-1.415.47-2.129.683-1.814.546-3.621,1.119-5.427,1.693-1.92.61-3.906,1.24-5.867,1.823s-3.925,1.218-5.831,1.832c-2.358.76-4.8,1.546-7.214,2.233-4.2,1.193-8.005,2.383-11.642,3.64-2.621.905-5.323,1.729-7.936,2.526q-1.418.432-2.835.869c-.482.149-.962.315-1.442.482a17.029,17.029,0,0,1-3.5.932,4.415,4.415,0,0,0-.217-.9,26.786,26.786,0,0,1-1.041-4.378c-.117-.646-.234-1.291-.368-1.931-.691-3.275-1.35-6.557-2.01-9.84-.653-3.252-1.308-6.507-1.991-9.753-1.144-5.435-2.242-10.833-3.261-16.044-.07-.361-.088-.817.231-.935a4.379,4.379,0,0,0,1.032-.561,4.586,4.586,0,0,0,1.927.645,3.159,3.159,0,0,0,.774-.043c2.228-.405,4.525-.68,6.746-.948,1.394-.167,2.788-.335,4.177-.533,1.8-.258,3.641-.48,5.42-.7,2.355-.286,4.791-.58,7.18-.96,2.588-.412,5.239-.72,7.8-1.019,1.805-.21,3.674-.426,5.511-.678,3.061-.421,6.164-.805,9.166-1.177,1.9-.236,3.8-.507,5.7-.778,1.579-.224,3.159-.45,4.741-.655l1.92-.25c4.267-.555,8.68-1.129,13.027-1.584.527-.056,1.048-.155,1.549-.25a7.294,7.294,0,0,1,3.025-.16,39.271,39.271,0,0,1-2.106,6.655M313.2,41.881l-.532.4c-2.854,2.088-5.69,4.2-8.526,6.314L286.27,61.875c-.088.066-.181.13-.273.194a3,3,0,0,0-1.36,1.6,2.555,2.555,0,0,0-.491.2,7.812,7.812,0,0,0-4.3-.036c-.491.094-.955.183-1.413.231-4.366.457-8.79,1.032-13.068,1.589l-1.919.249c-1.589.206-3.176.433-4.762.659-1.888.269-3.777.539-5.669.773-3.007.372-6.116.758-9.189,1.179-1.819.25-3.679.466-5.477.675-2.581.3-5.249.611-7.87,1.027-2.36.376-4.78.669-7.12.952-1.787.217-3.637.441-5.454.7-1.378.2-2.76.363-4.142.529-2.244.269-4.566.548-6.844.962a2.093,2.093,0,0,1-1.26-.24,5.289,5.289,0,0,0,.344-.634,1.65,1.65,0,0,1,.146-.142l.127-.118c1.343-1.3,2.775-2.572,4.16-3.8,1.414-1.252,2.877-2.546,4.263-3.895,2.319-2.257,4.809-4.433,7.217-6.537q.992-.867,1.981-1.736c3.748-3.3,7.8-6.929,12.754-11.417,6.2-5.619,12.817-11.528,20.233-18.068,2.873-2.534,5.756-5.146,8.545-7.673q1.659-1.5,3.319-3l.926-.837c1.061-.961,2.121-1.921,3.2-2.855a1.031,1.031,0,0,1,.832-.262.938.938,0,0,1,.657.455,4.706,4.706,0,0,0,1.388,1.453c.979.668,1.949,1.347,2.919,2.027.917.643,1.835,1.286,2.759,1.918q3.132,2.145,6.272,4.279,4.011,2.732,8.014,5.474l1.377.945c4.655,3.2,9.469,6.5,14.155,9.82.385.273.789.512,1.179.745a6.772,6.772,0,0,1,2.1,1.671c-.462.305-.9.63-1.333.952m3.255-1.957-.217.084c-.085.035-.162.079-.246.116a7.843,7.843,0,0,0-2.722-2.274c-.365-.217-.728-.433-1.07-.674-4.7-3.322-9.513-6.633-14.174-9.833L296.65,26.4q-4-2.749-8.02-5.478-3.135-2.135-6.268-4.275c-.919-.63-1.832-1.269-2.744-1.909-.976-.683-1.952-1.367-2.936-2.039a3.072,3.072,0,0,1-.815-.824,2.724,2.724,0,0,1,.929-.345c1.324-.147,2.645-.322,3.966-.5,1.44-.192,2.931-.389,4.395-.544,3.054-.323,6.141-.737,9.125-1.138l2.56-.341c4.25-.561,8.507-1.091,12.762-1.62l.444-.056q2.865-.357,5.734-.7,2.033-.244,4.066-.491L321.023,6q4.782-.584,9.561-1.187,2.881-.367,5.762-.752,2.539-.336,5.08-.666l2.093-.269c3.3-.427,6.714-.868,10.076-1.24.244-.027.491-.076.74-.127a2.019,2.019,0,0,1,1.344-.014,3.593,3.593,0,0,0,.6.242,4.588,4.588,0,0,1-1.065,1.265q-2.856,2.655-5.707,5.316c-4.949,4.614-10.066,9.385-15.139,14.032-1.954,1.791-3.906,3.644-5.794,5.435-2.949,2.8-6,5.692-9.112,8.4a7.706,7.706,0,0,0-1.99,2.376c-.01.022-.008.045-.017.067a.8.8,0,0,0-.178.415c-.024.267-.169.379-.818.629m63.677-4.453a8.767,8.767,0,0,0-4.293-.219c-.465.055-.93.11-1.394.135-3.4.181-6.838.447-10.167.7l-.959.074c-1.321.1-2.64.223-3.96.343s-2.643.242-3.968.344-2.642.187-3.964.272c-2.348.151-4.776.306-7.161.561-1.386.148-2.8.255-4.177.358-1.216.091-2.432.183-3.646.3-1.272.125-2.547.222-3.821.319s-2.529.192-3.79.316c-1.005.1-2.011.163-3.018.228-1.728.112-3.515.228-5.281.513a3.054,3.054,0,0,1-1.622-.148c.008-.015.02-.025.028-.041a6.117,6.117,0,0,1,1.593-1.86c3.141-2.733,6.2-5.639,9.165-8.449,1.883-1.787,3.829-3.635,5.773-5.416,5.078-4.652,10.2-9.425,15.15-14.042q2.852-2.658,5.706-5.315a4.99,4.99,0,0,0,1.669-2.431,4.278,4.278,0,0,0,1.045-.436c.013-.007.02-.021.034-.029a15.848,15.848,0,0,1,2.36,3.259c.287.476.575.952.88,1.415,1.792,2.729,3.582,5.527,5.312,8.234q1.427,2.232,2.857,4.46l2.675,4.144c2.166,3.356,4.334,6.71,6.475,10.082.164.259.344.518.524.767.422.58.487.846.466.967-.016.1-.122.286-.489.589" transform="translate(0.307 0.307)"/>
          <path id="Path_21" data-name="Path 21" class="cls-1" d="M381.48,32.954c-.16-.222-.321-.453-.466-.683q-3.215-5.063-6.484-10.093l-2.672-4.142q-1.433-2.225-2.855-4.455c-1.733-2.711-3.525-5.515-5.324-8.252-.293-.445-.569-.9-.846-1.362a18.221,18.221,0,0,0-2.45-3.419L359.14.241a.813.813,0,0,0-.92-.075,1.667,1.667,0,0,1-1.785.128,3.454,3.454,0,0,0-2.427-.14c-.2.041-.4.082-.593.1-3.377.373-6.8.816-10.107,1.243l-2.091.27q-2.544.327-5.086.666-2.878.381-5.754.751-4.776.609-9.554,1.186l-1.174.144q-2.031.248-4.063.49-2.87.346-5.74.7l-.444.056c-4.259.53-8.519,1.06-12.773,1.622l-2.564.342c-2.973.4-6.048.811-9.079,1.132-1.485.158-2.987.357-4.438.549-1.309.174-2.619.347-3.932.493a4.294,4.294,0,0,0-1.534.535l.37.729.39.672c-.022-.034-.052-.06-.073-.095a2.583,2.583,0,0,0-1.8-1.219,2.659,2.659,0,0,0-2.154.64c-1.093.942-2.163,1.911-3.233,2.88l-.924.836q-1.664,1.5-3.321,3.005c-2.784,2.523-5.664,5.132-8.529,7.658C248.384,32.087,241.761,38,235.555,43.626c-4.946,4.483-8.993,8.106-12.736,11.4q-.986.867-1.976,1.731c-2.426,2.118-4.933,4.309-7.282,6.6-1.359,1.321-2.806,2.6-4.206,3.843s-2.847,2.519-4.215,3.849l-.089.082a1.978,1.978,0,0,0-.525.662,2.674,2.674,0,0,1-1.61,1.6,2.264,2.264,0,0,0-1.27,2.784c1.021,5.218,2.121,10.624,3.266,16.067.683,3.243,1.337,6.491,1.99,9.739.66,3.288,1.321,6.574,2.012,9.856.133.624.246,1.254.36,1.885a28.463,28.463,0,0,0,1.112,4.643,3.419,3.419,0,0,1-.349,2.788q-2.093,5.02-4.139,10.059-1.789,4.374-3.591,8.742-3.484,8.4-7.014,16.778l-2.6,6.2c-.228.543-.463,1.084-.7,1.625-.29.665-.58,1.348-.863,2.036-.282-.688-.573-1.371-.863-2.036-.236-.541-.471-1.081-.7-1.625l-2.6-6.2q-3.518-8.385-7.014-16.778-1.812-4.364-3.591-8.742-2.056-5.035-4.139-10.059a3.419,3.419,0,0,1-.349-2.788,28.466,28.466,0,0,0,1.112-4.643c.115-.631.228-1.26.359-1.885.692-3.281,1.352-6.568,2.013-9.856.653-3.248,1.306-6.5,1.989-9.739,1.146-5.443,2.245-10.848,3.266-16.067a2.263,2.263,0,0,0-1.269-2.784,2.674,2.674,0,0,1-1.61-1.6,1.969,1.969,0,0,0-.526-.662l-.088-.082c-1.369-1.33-2.815-2.611-4.215-3.849s-2.847-2.522-4.206-3.843c-2.35-2.288-4.857-4.478-7.282-6.6q-.988-.864-1.977-1.731c-3.742-3.3-7.789-6.92-12.735-11.4C140.5,38,133.877,32.087,126.456,25.543c-2.865-2.527-5.745-5.135-8.529-7.658q-1.66-1.5-3.322-3.005l-.923-.836c-1.07-.969-2.14-1.938-3.233-2.88a2.66,2.66,0,0,0-2.154-.64,2.581,2.581,0,0,0-1.8,1.219c-.021.035-.051.061-.073.095l.39-.672.37-.729a4.3,4.3,0,0,0-1.534-.535c-1.313-.146-2.622-.319-3.932-.493-1.451-.192-2.953-.391-4.438-.549-3.031-.321-6.106-.733-9.079-1.132l-2.564-.342c-4.255-.562-8.514-1.092-12.773-1.622l-.444-.056q-2.869-.357-5.741-.7-2.031-.243-4.062-.49l-1.175-.144Q56.66,3.79,51.885,3.189q-2.878-.367-5.754-.751-2.542-.336-5.086-.666L38.954,1.5c-3.309-.427-6.73-.87-10.107-1.243-.195-.022-.394-.063-.593-.1a3.456,3.456,0,0,0-2.428.14A1.665,1.665,0,0,1,24.041.166a.813.813,0,0,0-.92.075L21.88.547a18.262,18.262,0,0,0-2.451,3.419c-.277.458-.552.917-.846,1.362-1.8,2.738-3.59,5.541-5.323,8.252Q11.835,15.81,10.4,18.036L7.732,22.178Q4.477,27.215,1.249,32.271c-.146.23-.307.462-.467.683a3,3,0,0,0-.758,2.189,3.226,3.226,0,0,0,1.514,1.936.813.813,0,0,0,.84.067,6.72,6.72,0,0,1,3.853-.268c.5.058,1,.117,1.5.143,3.377.18,6.809.445,10.129.7l.959.074c1.314.1,2.626.221,3.939.34,1.329.122,2.658.243,3.989.345s2.657.188,3.986.273c2.331.149,4.741.3,7.093.554,1.412.151,2.843.259,4.228.363,1.2.091,2.407.182,3.608.3,1.283.127,2.571.224,3.858.322,1.252.1,2.505.191,3.755.313,1.021.1,2.045.166,3.07.232,1.69.11,3.437.223,5.125.5a5.08,5.08,0,0,0,1.151.056,4.294,4.294,0,0,0,1.629-.433,4.391,4.391,0,0,0,.971.49l.189.074a12.225,12.225,0,0,1,2.673,1.666l.546.405Q72.9,46.725,77.141,49.9L95.014,63.188c.1.076.208.151.314.225.663.461.771.6.722.959a.819.819,0,0,0,.867.929.774.774,0,0,0,.193-.047c.306.079.319.126.341.246a40.239,40.239,0,0,0,2.209,7.04c.354.922.709,1.846,1.033,2.777,1.487,4.275,3.008,8.536,4.528,12.8l.889,2.494q.76,2.134,1.53,4.263,1,2.782,1.99,5.569-.405,1.855-.821,3.707c-.523,2.337-1.063,4.753-1.55,7.147-.339,1.668-.7,3.33-1.066,4.992-.707,3.23-1.438,6.569-1.97,9.915a9.21,9.21,0,0,1-.311,1.2c-.066.216-.132.432-.192.649a.988.988,0,0,0,.6,1.2h.006l0,.165.134,0a44.125,44.125,0,0,0,6.509,3.554c.778.369,1.556.737,2.324,1.122q2.472,1.239,4.938,2.491c3.1,1.566,6.3,3.186,9.468,4.735,2.076,1.013,4.14,2.049,6.2,3.083,2.743,1.375,5.578,2.8,8.4,4.145a30.456,30.456,0,0,1,3.1,1.691,2.737,2.737,0,0,1,.891.759,4.434,4.434,0,0,1-2.334-.2c-3.748-1.238-7.591-2.378-11.307-3.479l-3.114-.926q-3.868-1.158-7.744-2.294-2.76-.813-5.516-1.63-6.58-1.954-13.153-3.928l-.1-.031a3.958,3.958,0,0,0-2.593-.149,2.622,2.622,0,0,0-3.214.723c-4.088,4.038-8.358,8.136-13.053,12.528-2.709,2.534-5.4,5.169-8,7.717l-1.436,1.4c-.889.868-1.8,1.715-2.706,2.562-1.35,1.259-2.747,2.56-4.059,3.92l-.233.238a4.83,4.83,0,0,0-1.559,2.522.772.772,0,0,0,0,.144c-.011.023-.029.038-.038.062a3.6,3.6,0,0,0-.261,1.732c.084.643.178,1.287.271,1.929.214,1.481.436,3.011.541,4.51.126,1.8.325,3.616.518,5.37q.114,1.035.223,2.072c.3,2.855.625,5.709.953,8.562q.266,2.318.529,4.637c.047.421.079.847.111,1.272.056.728.112,1.482.245,2.231.392,2.215.606,4.507.814,6.723.179,1.915.365,3.9.665,5.844a5.753,5.753,0,0,0,2.625,4.161c1.4.917,2.865,1.752,4.284,2.561q.852.484,1.7.975,2.288,1.333,4.573,2.672c3.557,2.082,7.236,4.234,10.879,6.312,7.914,4.512,15.018,8.612,21.717,12.536.214.126.428.256.643.388a8.428,8.428,0,0,0,4.177,1.585c.026,0,.053,0,.079,0a.82.82,0,0,0,.615-.345,3.294,3.294,0,0,1,1.118-.845,5.323,5.323,0,0,0,1.569-1.192c.926-1.116,1.967-2.188,2.973-3.225q.54-.557,1.076-1.117l6.435-6.759q5.152-5.409,10.3-10.824,3.108-3.275,6.2-6.564,2.873-3.048,5.751-6.09,1.875-1.976,3.766-3.939c1.813-1.886,3.625-3.774,5.412-5.684,3.7-3.956,7.553-8.037,11.448-12.128s7.8-8.2,11.7-12.3a3.139,3.139,0,0,0,.906-1.89,2.249,2.249,0,0,1,.424-1.082c.012-.018.021-.038.033-.056.011.019.02.038.032.056a2.243,2.243,0,0,1,.425,1.082,3.139,3.139,0,0,0,.906,1.89q5.845,6.154,11.7,12.3c3.895,4.091,7.746,8.172,11.448,12.128,1.787,1.91,3.6,3.8,5.411,5.684q1.888,1.967,3.766,3.939,2.881,3.038,5.75,6.09,3.1,3.285,6.2,6.564,5.143,5.418,10.3,10.824l6.435,6.759c.356.373.716.746,1.076,1.117,1.006,1.037,2.046,2.11,2.972,3.225a5.344,5.344,0,0,0,1.569,1.192,3.289,3.289,0,0,1,1.119.845.819.819,0,0,0,.615.345c.025,0,.052,0,.079,0a8.431,8.431,0,0,0,4.177-1.585c.214-.132.429-.262.642-.388,6.7-3.924,13.8-8.024,21.717-12.536,3.644-2.078,7.323-4.23,10.879-6.312q2.286-1.338,4.573-2.672.846-.492,1.7-.975c1.419-.809,2.887-1.643,4.285-2.561a5.756,5.756,0,0,0,2.625-4.161c.3-1.948.486-3.929.665-5.844.208-2.216.422-4.508.814-6.723.133-.749.189-1.5.245-2.231.032-.425.064-.85.111-1.272q.26-2.319.529-4.637c.328-2.853.656-5.706.953-8.562.071-.692.147-1.382.223-2.072.193-1.754.392-3.568.518-5.37.1-1.5.327-3.03.54-4.51.093-.642.187-1.286.272-1.929a3.593,3.593,0,0,0-.262-1.732.693.693,0,0,0-.038-.062.848.848,0,0,0,0-.144,4.826,4.826,0,0,0-1.56-2.522l-.233-.238c-1.312-1.36-2.709-2.662-4.059-3.92-.908-.846-1.818-1.693-2.707-2.562l-1.435-1.4c-2.6-2.548-5.3-5.183-8-7.717-4.7-4.392-8.965-8.49-13.053-12.528a2.622,2.622,0,0,0-3.214-.723,3.958,3.958,0,0,0-2.593.149l-.1.031q-6.573,1.977-13.154,3.928-2.756.819-5.515,1.63-3.873,1.142-7.744,2.294l-3.114.926c-3.717,1.1-7.561,2.241-11.307,3.479a4.434,4.434,0,0,1-2.334.2,2.737,2.737,0,0,1,.891-.759,30.525,30.525,0,0,1,3.1-1.691c2.819-1.347,5.654-2.77,8.4-4.145,2.065-1.035,4.129-2.07,6.2-3.083,3.172-1.549,6.372-3.169,9.468-4.735q2.468-1.249,4.938-2.491c.768-.385,1.545-.753,2.324-1.122a44.124,44.124,0,0,0,6.509-3.554l.133,0,0-.165h.006a.988.988,0,0,0,.6-1.2c-.06-.217-.125-.433-.192-.649a9.21,9.21,0,0,1-.311-1.2c-.532-3.347-1.263-6.686-1.97-9.915-.363-1.662-.728-3.324-1.066-4.992-.487-2.394-1.027-4.81-1.55-7.147q-.415-1.853-.821-3.708.985-2.788,1.99-5.569.767-2.13,1.53-4.263l.889-2.494c1.521-4.262,3.041-8.523,4.528-12.8.324-.931.678-1.855,1.032-2.777a40.174,40.174,0,0,0,2.21-7.04c.022-.119.035-.167.341-.246a.775.775,0,0,0,.193.047.819.819,0,0,0,.867-.929c-.049-.355.059-.5.722-.959.106-.074.212-.149.314-.225L305.12,49.9q4.248-3.165,8.514-6.305l.547-.405a12.224,12.224,0,0,1,2.673-1.666l.189-.074a4.39,4.39,0,0,0,.971-.49,4.29,4.29,0,0,0,1.629.433,5.087,5.087,0,0,0,1.152-.056c1.688-.273,3.435-.386,5.125-.5,1.024-.066,2.049-.133,3.07-.232,1.25-.122,2.5-.217,3.755-.313,1.287-.1,2.574-.2,3.858-.322,1.2-.118,2.4-.209,3.608-.3,1.385-.1,2.816-.212,4.228-.363,2.351-.25,4.761-.405,7.093-.554,1.329-.085,2.658-.171,3.986-.273s2.66-.223,3.989-.345c1.313-.119,2.625-.24,3.939-.34l.959-.074c3.32-.257,6.752-.522,10.128-.7.5-.026,1-.085,1.5-.143a6.72,6.72,0,0,1,3.853.268.813.813,0,0,0,.84-.067,3.228,3.228,0,0,0,1.513-1.936A3,3,0,0,0,381.48,32.954ZM61.729,39.722c-1.765-.285-3.552-.4-5.28-.513-1.007-.065-2.013-.13-3.018-.228-1.261-.124-2.525-.22-3.79-.316s-2.549-.194-3.821-.319c-1.214-.119-2.43-.212-3.647-.3-1.372-.1-2.79-.21-4.177-.358-2.385-.255-4.812-.41-7.16-.561-1.322-.085-2.644-.169-3.964-.272s-2.645-.223-3.967-.344-2.639-.241-3.96-.343l-.959-.074c-3.329-.258-6.772-.524-10.167-.7-.464-.025-.929-.08-1.394-.135a8.767,8.767,0,0,0-4.293.219c-.367-.3-.472-.485-.489-.589-.02-.12.045-.386.467-.967.18-.249.36-.508.524-.767Q5.843,28.09,9.107,23.066l2.675-4.144q1.433-2.226,2.857-4.46c1.73-2.707,3.519-5.506,5.312-8.234.3-.463.593-.94.88-1.415a15.849,15.849,0,0,1,2.36-3.259c.012.008.02.022.034.029a4.278,4.278,0,0,0,1.045.436,4.99,4.99,0,0,0,1.669,2.431q2.856,2.655,5.706,5.315c4.951,4.617,10.072,9.39,15.15,14.042,1.944,1.781,3.89,3.628,5.773,5.416,2.961,2.811,6.024,5.717,9.164,8.449a6.106,6.106,0,0,1,1.593,1.86c.008.016.02.026.029.041A3.056,3.056,0,0,1,61.729,39.722Zm3.26-.426a.8.8,0,0,0-.177-.415c-.009-.022-.007-.045-.018-.067A7.7,7.7,0,0,0,62.8,36.437c-3.114-2.71-6.164-5.6-9.112-8.4-1.887-1.792-3.84-3.644-5.794-5.435-5.073-4.647-10.19-9.418-15.14-14.032q-2.852-2.659-5.707-5.316a4.6,4.6,0,0,1-1.064-1.265,3.593,3.593,0,0,0,.6-.242,2.019,2.019,0,0,1,1.344.014c.249.051.5.1.74.127,3.36.372,6.775.813,10.076,1.24l2.093.269q2.541.328,5.08.666,2.88.381,5.762.752Q56.456,5.422,61.239,6l1.175.144q2.033.249,4.066.491,2.868.345,5.734.7l.444.056c4.255.53,8.511,1.059,12.762,1.62l2.56.341c2.984.4,6.071.814,9.125,1.138,1.464.156,2.955.353,4.395.544,1.321.175,2.642.349,3.965.5a2.712,2.712,0,0,1,.929.345,3.056,3.056,0,0,1-.814.824c-.984.672-1.96,1.355-2.936,2.039-.913.639-1.825,1.278-2.744,1.909q-3.131,2.142-6.268,4.275-4.013,2.734-8.021,5.478l-1.376.946c-4.661,3.2-9.479,6.511-14.174,9.833-.342.241-.705.458-1.071.674a7.843,7.843,0,0,0-2.722,2.274c-.083-.037-.16-.081-.246-.116l-.216-.084C65.158,39.674,65.013,39.562,64.988,39.3Zm31,22.58L78.119,48.59c-2.836-2.113-5.672-4.226-8.526-6.314l-.532-.4c-.431-.322-.871-.647-1.333-.952a6.762,6.762,0,0,1,2.1-1.671c.39-.232.793-.472,1.178-.745,4.686-3.316,9.5-6.623,14.156-9.82l1.376-.945q4-2.747,8.015-5.474,3.138-2.137,6.272-4.279c.924-.633,1.841-1.275,2.759-1.918.97-.68,1.941-1.359,2.919-2.027a4.706,4.706,0,0,0,1.388-1.453.937.937,0,0,1,.657-.455,1.029,1.029,0,0,1,.832.262c1.084.934,2.143,1.894,3.2,2.855l.926.837q1.661,1.5,3.319,3c2.789,2.527,5.673,5.139,8.545,7.673,7.417,6.539,14.034,12.449,20.233,18.068,4.953,4.488,9.005,8.116,12.753,11.417q.989.87,1.982,1.736c2.408,2.1,4.9,4.28,7.217,6.537,1.386,1.349,2.849,2.643,4.263,3.895,1.384,1.227,2.817,2.495,4.16,3.8l.127.118a1.655,1.655,0,0,1,.146.142,5.178,5.178,0,0,0,.344.634,2.093,2.093,0,0,1-1.26.24c-2.278-.413-4.6-.692-6.845-.962-1.382-.166-2.763-.332-4.141-.529-1.817-.259-3.667-.484-5.455-.7-2.34-.283-4.76-.576-7.12-.952-2.621-.417-5.29-.727-7.871-1.027-1.8-.21-3.657-.426-5.477-.675-3.072-.421-6.181-.807-9.188-1.179-1.892-.234-3.781-.5-5.669-.773-1.586-.226-3.173-.453-4.762-.659l-1.918-.249c-4.278-.557-8.7-1.132-13.068-1.589-.458-.048-.922-.137-1.413-.231a7.812,7.812,0,0,0-4.3.036,2.555,2.555,0,0,0-.491-.2,3,3,0,0,0-1.361-1.6C96.171,62.005,96.08,61.941,95.991,61.875Zm11.659,28.167-.89-2.495c-1.519-4.258-3.038-8.515-4.524-12.785-.33-.949-.69-1.888-1.049-2.828a39.268,39.268,0,0,1-2.107-6.655,7.293,7.293,0,0,1,3.025.16c.5.1,1.023.195,1.55.25,4.347.455,8.76,1.029,13.027,1.584l1.919.25c1.583.2,3.162.431,4.742.655,1.9.271,3.8.542,5.7.778,3,.372,6.1.756,9.166,1.177,1.837.252,3.7.469,5.511.678,2.564.3,5.215.607,7.8,1.019,2.389.38,4.825.674,7.18.96,1.779.215,3.62.438,5.42.7,1.39.2,2.784.366,4.178.533,2.221.268,4.518.543,6.746.948a3.159,3.159,0,0,0,.774.043,4.59,4.59,0,0,0,1.927-.645,4.389,4.389,0,0,0,1.031.561c.319.118.3.574.232.935-1.02,5.211-2.117,10.609-3.261,16.044-.683,3.247-1.338,6.5-1.991,9.753-.66,3.283-1.32,6.565-2.01,9.84-.134.64-.251,1.286-.368,1.931a26.785,26.785,0,0,1-1.042,4.378,4.414,4.414,0,0,0-.216.9,17.03,17.03,0,0,1-3.5-.932c-.48-.167-.96-.333-1.442-.482q-1.415-.44-2.835-.869c-2.612-.8-5.314-1.62-7.936-2.526-3.637-1.256-7.445-2.446-11.643-3.64-2.418-.687-4.856-1.473-7.213-2.233-1.905-.614-3.875-1.249-5.831-1.832s-3.947-1.214-5.868-1.823c-1.806-.574-3.612-1.147-5.426-1.693-.714-.214-1.422-.449-2.129-.683a37.743,37.743,0,0,0-4.857-1.363l-.01-.026.02-.09-.057-.015c-.728-2.068-1.472-4.131-2.215-6.2Q108.411,92.172,107.649,90.042Zm35.357,57.032c-2.8-1.341-5.633-2.759-8.368-4.131-2.069-1.038-4.139-2.076-6.218-3.091-3.162-1.544-6.358-3.162-9.449-4.725q-2.47-1.25-4.943-2.494c-.779-.39-1.567-.764-2.355-1.138a43.949,43.949,0,0,1-6.115-3.318c.016-.049.029-.1.044-.149a10.817,10.817,0,0,0,.374-1.479c.523-3.288,1.247-6.6,1.948-9.8.366-1.672.732-3.344,1.073-5.023.482-2.373,1.021-4.78,1.541-7.107.179-.8.354-1.6.532-2.4a35.927,35.927,0,0,1,4.711,1.321c.723.24,1.445.479,2.173.7,1.806.543,3.6,1.114,5.4,1.684,1.927.612,3.921,1.245,5.9,1.833,1.939.576,3.9,1.209,5.8,1.82,2.371.764,4.823,1.554,7.269,2.25,4.167,1.184,7.947,2.366,11.555,3.613,2.649.915,5.366,1.743,7.993,2.544q1.414.431,2.827.867c.466.144.928.3,1.391.465a17.344,17.344,0,0,0,4.131,1.044,9.877,9.877,0,0,0,.5,1.42c1.394,3.342,2.764,6.695,4.134,10.048q1.79,4.378,3.594,8.749,3.487,8.4,7.017,16.784l2.6,6.2c.231.551.469,1.1.707,1.646.456,1.045.927,2.127,1.327,3.2a3.11,3.11,0,0,1,.146,1.72.807.807,0,0,0-.4-.415,2.547,2.547,0,0,1-.474-.323,4.134,4.134,0,0,0-.791-.521l-1.675-.8c-2.527-1.2-5.138-2.446-7.754-3.588l-.782-.34c-2-.87-4.067-1.77-6.029-2.77-3-1.53-6.11-2.931-9.117-4.287q-1.381-.622-2.761-1.249c-3.5-1.6-7.14-2.98-10.661-4.319l-1.162-.443c-.443-.168-.635-.3-.713-.492a3.744,3.744,0,0,0-1.648-1.726A31.919,31.919,0,0,0,143.006,147.074Zm-40.461-7,.1.032q6.578,1.977,13.16,3.931,2.757.819,5.518,1.631,3.871,1.14,7.738,2.292l3.117.927c3.706,1.1,7.537,2.233,11.26,3.464a5.9,5.9,0,0,0,4.061,0,4.659,4.659,0,0,0,.544.249l1.164.443c3.5,1.33,7.114,2.706,10.564,4.279q1.382.63,2.768,1.252c2.99,1.347,6.081,2.74,9.047,4.253,2.006,1.021,4.1,1.932,6.119,2.812l.781.34c2.59,1.131,5.19,2.369,7.7,3.565l1.678.8a2.756,2.756,0,0,1,.481.33,3.937,3.937,0,0,0,.808.525.775.775,0,0,0,.665,0c-.035.061-.066.123-.106.184-.06.092-.116.191-.174.289a26.72,26.72,0,0,0-6.438,1.309l-.667.195c-2.08.6-4.218,1.157-6.285,1.694q-1.222.317-2.441.638l-3.938,1.041q-6.074,1.606-12.152,3.2c-1.711.447-3.424.882-5.137,1.318-2.417.614-4.833,1.228-7.241,1.873-1.954.524-3.9,1.071-5.851,1.616-3.049.854-6.2,1.739-9.322,2.515-.786.2-1.569.405-2.352.615-1.481.4-3.013.806-4.53,1.107a5.621,5.621,0,0,0-.833-3.419c-.082-.162-.162-.324-.239-.486q-2.7-5.721-5.348-11.467-2.216-4.779-4.447-9.551-1.327-2.826-2.665-5.647c-1.885-3.987-3.834-8.109-5.695-12.188-.352-.773-.715-1.542-1.08-2.31-.445-.942-.89-1.885-1.316-2.837a5.1,5.1,0,0,1-.328-1.038A3.383,3.383,0,0,1,102.545,140.079ZM68.887,168.605l.246-.252c1.282-1.328,2.662-2.614,4-3.859.917-.855,1.836-1.711,2.734-2.589L77.3,160.5c2.6-2.541,5.284-5.17,7.978-7.691,4.707-4.4,8.987-8.511,13.085-12.558.615-.606.9-.629,1.193-.5a6.469,6.469,0,0,0,.521,1.8c.43.963.881,1.916,1.332,2.869.36.762.72,1.523,1.069,2.29,1.865,4.09,3.817,8.217,5.705,12.209q1.333,2.82,2.662,5.642,2.236,4.767,4.444,9.545,2.664,5.744,5.353,11.476c.081.173.168.346.255.52a5.026,5.026,0,0,1,.695,2.069c-5.677-2.1-11.471-4.1-17.086-6.033l-1.545-.532q-8.283-2.849-16.55-5.745c-1.042-.364-2.078-.75-3.113-1.134-1.557-.578-3.166-1.176-4.78-1.7-1.3-.422-2.6-.87-3.892-1.317-2.142-.742-4.348-1.5-6.577-2.134A5.735,5.735,0,0,1,68.887,168.605Zm1.98,33.609c-.119-.669-.17-1.35-.225-2.07-.034-.445-.067-.889-.117-1.331q-.259-2.321-.529-4.642c-.328-2.846-.656-5.694-.952-8.544-.072-.693-.148-1.387-.224-2.081-.192-1.738-.389-3.536-.512-5.3-.109-1.56-.335-3.122-.554-4.632-.092-.636-.184-1.271-.268-1.908a1.486,1.486,0,0,1,.054-.553c2.206.621,4.411,1.376,6.55,2.116,1.3.451,2.609.9,3.924,1.327,1.581.511,3.173,1.1,4.713,1.674,1.045.388,2.089.777,3.142,1.145q8.271,2.9,16.558,5.748l1.545.532c5.593,1.924,11.362,3.914,17.009,6a9.216,9.216,0,0,1-2.708,1.749c-.39.19-.778.38-1.156.586q-3.158,1.721-6.306,3.454c-4.363,2.4-8.876,4.873-13.347,7.241-2.346,1.242-4.71,2.536-7,3.789-3.347,1.831-6.807,3.725-10.26,5.484-1.093.557-2.18,1.16-3.231,1.742s-2.125,1.179-3.2,1.728a4.907,4.907,0,0,0-1.025.709,4.908,4.908,0,0,1-.4-1.359c-.292-1.9-.476-3.856-.653-5.749C71.487,206.82,71.269,204.5,70.866,202.214Zm47.144,41.061c-.224-.137-.447-.274-.671-.405-6.705-3.927-13.814-8.03-21.734-12.546-3.635-2.073-7.309-4.222-10.863-6.3q-2.287-1.337-4.576-2.673c-.568-.331-1.141-.657-1.713-.983-1.4-.8-2.843-1.618-4.2-2.507a4.963,4.963,0,0,1-.5-.376,3.343,3.343,0,0,1,.757-.557c1.1-.561,2.194-1.167,3.251-1.754,1.039-.576,2.112-1.171,3.18-1.716,3.476-1.769,6.947-3.669,10.3-5.506,2.283-1.249,4.642-2.541,6.978-3.778,4.483-2.373,9-4.853,13.369-7.252q3.148-1.73,6.3-3.451c.357-.2.725-.374,1.092-.552a10.288,10.288,0,0,0,3.275-2.179,6.888,6.888,0,0,1,.242,3.028c-.029.454-.056.908-.056,1.359.006,2.01-.11,4.066-.221,6.054l-.031.562c-.11,1.974-.171,3.977-.23,5.915-.061,2.03-.126,4.128-.246,6.185-.043.737-.052,1.477-.061,2.22-.011.816-.021,1.66-.081,2.474-.083,1.147-.108,2.3-.132,3.421-.027,1.266-.055,2.576-.169,3.85-.093,1.035-.092,2.078-.092,3.086,0,.624,0,1.246-.021,1.868-.036,1.034-.085,2.068-.136,3.1-.068,1.429-.137,2.859-.17,4.29l-.023,1.174c-.02,1.183-.042,2.407-.139,3.6a2.85,2.85,0,0,0,.43,1.523l.007.016c-.046.042-.093.079-.137.124A7.815,7.815,0,0,1,118.011,243.275Zm58.876-56.863c-3.9,4.095-7.752,8.179-11.457,12.138-1.783,1.905-3.59,3.788-5.4,5.67q-1.891,1.968-3.773,3.945-2.883,3.041-5.755,6.094-3.094,3.284-6.2,6.56-5.143,5.418-10.3,10.821l-6.436,6.759c-.353.372-.709.739-1.066,1.107-1.028,1.06-2.09,2.156-3.056,3.32a3.428,3.428,0,0,1-.949.715,1.4,1.4,0,0,1-.174-.483c.1-1.245.123-2.5.144-3.706l.022-1.163c.034-1.418.1-2.834.169-4.251.05-1.041.1-2.082.137-3.123.022-.641.022-1.284.022-1.927,0-1.017,0-1.977.085-2.939.119-1.329.147-2.667.176-3.962.024-1.1.047-2.232.128-3.337.063-.863.074-1.733.084-2.573.009-.717.018-1.433.06-2.144.121-2.08.185-4.19.247-6.231.058-1.928.119-3.921.228-5.874l.031-.561c.113-2.012.23-4.091.224-6.149,0-.415.026-.833.053-1.252a8.709,8.709,0,0,0-.288-3.545c1.454-.3,2.9-.679,4.292-1.053.774-.207,1.548-.414,2.325-.608,3.142-.782,6.308-1.67,9.368-2.528,1.943-.544,3.885-1.089,5.834-1.611,2.4-.643,4.809-1.255,7.219-1.868,1.717-.437,3.434-.872,5.149-1.32q6.082-1.589,12.156-3.2l3.938-1.041q1.215-.322,2.435-.636c2.078-.54,4.226-1.1,6.327-1.707l.671-.195a27.749,27.749,0,0,1,5.452-1.215,1.644,1.644,0,0,1-.438.773Q182.737,180.265,176.887,186.412Zm81.921,56.415c-.966-1.164-2.029-2.26-3.056-3.32-.357-.368-.714-.736-1.066-1.107l-6.436-6.759q-5.151-5.408-10.3-10.821-3.106-3.273-6.2-6.56-2.874-3.051-5.755-6.094-1.877-1.98-3.772-3.945c-1.808-1.882-3.615-3.765-5.4-5.67-3.705-3.96-7.56-8.044-11.457-12.138s-7.8-8.2-11.695-12.3a1.653,1.653,0,0,1-.439-.773,27.735,27.735,0,0,1,5.452,1.215l.672.195c2.1.609,4.249,1.167,6.327,1.707q1.218.317,2.435.636l3.938,1.041q6.077,1.607,12.156,3.2c1.714.448,3.431.883,5.149,1.32,2.409.613,4.818,1.225,7.219,1.868,1.949.522,3.891,1.066,5.834,1.611,3.06.858,6.226,1.746,9.367,2.528.778.194,1.552.4,2.326.608,1.4.373,2.838.751,4.292,1.053a8.71,8.71,0,0,0-.288,3.545c.027.419.054.837.052,1.252,0,2.058.111,4.137.225,6.149l.031.561c.108,1.953.169,3.946.228,5.874.061,2.04.126,4.151.247,6.231.042.711.051,1.427.06,2.144.01.841.02,1.71.084,2.573.08,1.1.1,2.239.128,3.337.028,1.295.056,2.633.176,3.962.087.962.086,1.922.085,2.939,0,.642,0,1.286.022,1.927.037,1.041.087,2.082.136,3.123.068,1.417.136,2.833.169,4.251l.023,1.163c.02,1.21.043,2.461.144,3.706a1.4,1.4,0,0,1-.173.483A3.416,3.416,0,0,1,258.808,242.826Zm45-22.461c-.572.326-1.145.652-1.714.983q-2.29,1.334-4.575,2.673c-3.554,2.08-7.228,4.23-10.863,6.3-7.921,4.515-15.029,8.619-21.734,12.546-.224.131-.447.268-.671.405a7.815,7.815,0,0,1-2.99,1.314c-.043-.046-.091-.083-.137-.124l.007-.016a2.85,2.85,0,0,0,.43-1.523c-.1-1.192-.119-2.416-.139-3.6l-.023-1.174c-.034-1.431-.1-2.861-.17-4.29-.051-1.035-.1-2.069-.136-3.1-.022-.622-.022-1.245-.021-1.868,0-1.008,0-2.051-.092-3.086-.115-1.273-.142-2.584-.169-3.85-.025-1.119-.048-2.274-.133-3.421-.059-.814-.07-1.658-.08-2.474-.009-.743-.019-1.484-.061-2.22-.12-2.057-.184-4.155-.246-6.185-.059-1.938-.12-3.941-.23-5.915l-.031-.562c-.111-1.988-.227-4.044-.221-6.054,0-.45-.027-.9-.056-1.359a6.881,6.881,0,0,1,.242-3.029,10.277,10.277,0,0,0,3.275,2.18c.367.178.735.357,1.092.552q3.155,1.717,6.3,3.451c4.37,2.4,8.887,4.879,13.368,7.252,2.337,1.237,4.7,2.529,6.979,3.778,3.356,1.837,6.827,3.737,10.3,5.506,1.068.545,2.141,1.14,3.18,1.716,1.057.587,2.15,1.193,3.251,1.754a3.357,3.357,0,0,1,.756.557,4.97,4.97,0,0,1-.5.376C306.651,218.747,305.207,219.57,303.809,220.365Zm10.914-49.216a1.5,1.5,0,0,1,.054.553c-.083.637-.176,1.272-.268,1.908-.219,1.51-.445,3.072-.555,4.632-.123,1.769-.321,3.566-.512,5.3-.076.694-.152,1.388-.224,2.081-.3,2.851-.624,5.7-.952,8.544q-.268,2.322-.529,4.642c-.05.442-.083.886-.117,1.331-.055.72-.106,1.4-.225,2.07-.4,2.281-.621,4.606-.832,6.854-.178,1.892-.362,3.848-.653,5.749a4.937,4.937,0,0,1-.4,1.359,4.907,4.907,0,0,0-1.025-.709c-1.076-.548-2.157-1.147-3.2-1.728s-2.138-1.186-3.231-1.742c-3.453-1.76-6.914-3.653-10.26-5.484-2.288-1.252-4.652-2.547-7-3.789-4.471-2.368-8.984-4.845-13.347-7.241q-3.151-1.731-6.306-3.454c-.379-.206-.768-.4-1.156-.586a9.216,9.216,0,0,1-2.708-1.749c5.647-2.09,11.416-4.08,17.009-6l1.545-.532q8.288-2.852,16.558-5.748c1.052-.368,2.1-.757,3.142-1.145,1.54-.572,3.132-1.164,4.713-1.674,1.315-.424,2.621-.876,3.924-1.327C310.312,172.525,312.516,171.77,314.722,171.149Zm-30.823-30.9c4.1,4.047,8.378,8.155,13.085,12.558,2.694,2.521,5.38,5.15,7.978,7.691l1.436,1.405c.9.877,1.816,1.733,2.734,2.589,1.335,1.245,2.715,2.531,4,3.859l.246.252a5.741,5.741,0,0,1,.84.978c-2.229.631-4.435,1.393-6.577,2.134-1.293.447-2.588.9-3.892,1.317-1.615.521-3.224,1.119-4.78,1.7-1.035.385-2.071.77-3.113,1.134q-8.266,2.9-16.55,5.745l-1.545.532c-5.616,1.932-11.41,3.93-17.086,6.033a5.026,5.026,0,0,1,.695-2.069c.086-.173.174-.346.255-.52q2.7-5.726,5.353-11.476,2.215-4.777,4.444-9.545,1.325-2.824,2.662-5.642c1.888-3.991,3.84-8.119,5.7-12.209.349-.767.71-1.528,1.07-2.29.451-.953.9-1.906,1.332-2.869a6.5,6.5,0,0,0,.521-1.8C283,139.622,283.285,139.645,283.9,140.251Zm-45.083,12.1c3.724-1.23,7.555-2.365,11.26-3.464l3.118-.927q3.866-1.156,7.738-2.292,2.76-.815,5.518-1.631,6.583-1.956,13.16-3.931l.1-.032a3.383,3.383,0,0,1,1.3-.229,5.051,5.051,0,0,1-.329,1.038c-.425.953-.871,1.9-1.315,2.837-.364.769-.728,1.538-1.079,2.31-1.86,4.079-3.81,8.2-5.7,12.188q-1.334,2.822-2.664,5.647-2.237,4.769-4.447,9.551-2.663,5.739-5.349,11.467c-.076.162-.156.324-.238.486a5.615,5.615,0,0,0-.833,3.419c-1.518-.3-3.049-.71-4.53-1.107-.783-.21-1.566-.419-2.353-.615-3.118-.776-6.272-1.661-9.321-2.515-1.949-.546-3.9-1.093-5.851-1.616-2.409-.645-4.824-1.26-7.241-1.873-1.713-.436-3.427-.872-5.138-1.318q-6.078-1.587-12.151-3.2l-3.938-1.041q-1.219-.323-2.441-.638c-2.067-.537-4.2-1.093-6.285-1.694l-.667-.195a26.734,26.734,0,0,0-6.439-1.309c-.056-.1-.114-.2-.173-.289-.039-.061-.07-.123-.106-.184a.773.773,0,0,0,.664,0,3.945,3.945,0,0,0,.809-.525,2.754,2.754,0,0,1,.48-.33l1.678-.8c2.515-1.2,5.114-2.434,7.7-3.565l.781-.34c2.022-.88,4.113-1.791,6.119-2.812,2.965-1.512,6.057-2.905,9.047-4.253q1.385-.624,2.767-1.252c3.451-1.573,7.067-2.949,10.564-4.279l1.164-.443a4.659,4.659,0,0,0,.544-.249A5.9,5.9,0,0,0,238.817,152.355Zm35.52-35.6c.7,3.2,1.426,6.511,1.949,9.8a10.813,10.813,0,0,0,.374,1.479c.015.05.029.1.044.149a44,44,0,0,1-6.115,3.318c-.789.374-1.576.747-2.355,1.138q-2.475,1.24-4.943,2.494c-3.091,1.563-6.286,3.18-9.449,4.725-2.08,1.016-4.149,2.053-6.218,3.091-2.735,1.372-5.564,2.789-8.368,4.131a32.023,32.023,0,0,0-3.266,1.782,3.743,3.743,0,0,0-1.648,1.726c-.078.19-.271.324-.713.492l-1.162.443c-3.521,1.339-7.163,2.724-10.661,4.319q-1.38.629-2.761,1.249c-3.007,1.356-6.118,2.757-9.118,4.287-1.961,1-4.028,1.9-6.029,2.77l-.781.34c-2.616,1.142-5.227,2.386-7.754,3.588l-1.676.8a4.153,4.153,0,0,0-.79.521,2.547,2.547,0,0,1-.474.323.807.807,0,0,0-.4.415,3.11,3.11,0,0,1,.146-1.72c.4-1.075.871-2.157,1.326-3.2.239-.548.477-1.1.708-1.646l2.6-6.2q3.518-8.386,7.017-16.784,1.812-4.368,3.594-8.749c1.37-3.353,2.74-6.705,4.134-10.048a9.879,9.879,0,0,0,.5-1.42,17.355,17.355,0,0,0,4.131-1.044c.463-.16.926-.321,1.391-.465q1.413-.437,2.828-.867c2.627-.8,5.344-1.629,7.993-2.544,3.608-1.246,7.388-2.428,11.555-3.613,2.445-.7,4.9-1.485,7.269-2.25,1.9-.611,3.856-1.244,5.8-1.82,1.974-.588,3.968-1.221,5.9-1.833,1.8-.57,3.6-1.141,5.4-1.684.728-.219,1.45-.458,2.173-.7a35.928,35.928,0,0,1,4.711-1.321q.265,1.2.531,2.4c.521,2.328,1.06,4.734,1.542,7.107C273.606,113.407,273.972,115.079,274.337,116.751Zm6.739-44.816c-.359.94-.719,1.879-1.05,2.828-1.485,4.27-3,8.526-4.523,12.785l-.89,2.495q-.759,2.13-1.529,4.257c-.743,2.064-1.486,4.127-2.214,6.2l-.057.015.02.09-.01.026a37.7,37.7,0,0,0-4.857,1.363c-.708.234-1.415.47-2.129.683-1.814.546-3.621,1.119-5.427,1.693-1.92.61-3.906,1.24-5.867,1.823s-3.925,1.218-5.831,1.832c-2.358.76-4.8,1.546-7.214,2.233-4.2,1.193-8.005,2.383-11.642,3.64-2.621.905-5.323,1.729-7.936,2.526q-1.418.432-2.835.869c-.482.149-.962.315-1.442.482a17.029,17.029,0,0,1-3.5.932,4.415,4.415,0,0,0-.217-.9,26.786,26.786,0,0,1-1.041-4.378c-.117-.646-.234-1.291-.368-1.931-.691-3.275-1.35-6.557-2.01-9.84-.653-3.252-1.308-6.507-1.991-9.753-1.144-5.435-2.242-10.833-3.261-16.044-.07-.361-.088-.817.231-.935a4.379,4.379,0,0,0,1.032-.561,4.586,4.586,0,0,0,1.927.645,3.159,3.159,0,0,0,.774-.043c2.228-.405,4.525-.68,6.746-.948,1.394-.167,2.788-.335,4.177-.533,1.8-.258,3.641-.48,5.42-.7,2.355-.286,4.791-.58,7.18-.96,2.588-.412,5.239-.72,7.8-1.019,1.805-.21,3.674-.426,5.511-.678,3.061-.421,6.164-.805,9.166-1.177,1.9-.236,3.8-.507,5.7-.778,1.579-.224,3.159-.45,4.741-.655l1.92-.25c4.267-.555,8.68-1.129,13.027-1.584.527-.056,1.048-.155,1.549-.25a7.294,7.294,0,0,1,3.025-.16A39.271,39.271,0,0,1,281.076,71.935ZM313.2,41.881l-.532.4c-2.854,2.088-5.69,4.2-8.526,6.314L286.27,61.875c-.088.066-.181.13-.273.194a3,3,0,0,0-1.36,1.6,2.555,2.555,0,0,0-.491.2,7.812,7.812,0,0,0-4.3-.036c-.491.094-.955.183-1.413.231-4.366.457-8.79,1.032-13.068,1.589l-1.919.249c-1.589.206-3.176.433-4.762.659-1.888.269-3.777.539-5.669.773-3.007.372-6.116.758-9.189,1.179-1.819.25-3.679.466-5.477.675-2.581.3-5.249.611-7.87,1.027-2.36.376-4.78.669-7.12.952-1.787.217-3.637.441-5.454.7-1.378.2-2.76.363-4.142.529-2.244.269-4.566.548-6.844.962a2.093,2.093,0,0,1-1.26-.24,5.289,5.289,0,0,0,.344-.634,1.65,1.65,0,0,1,.146-.142l.127-.118c1.343-1.3,2.775-2.572,4.16-3.8,1.414-1.252,2.877-2.546,4.263-3.895,2.319-2.257,4.809-4.433,7.217-6.537q.992-.867,1.981-1.736c3.748-3.3,7.8-6.929,12.754-11.417,6.2-5.619,12.817-11.528,20.233-18.068,2.873-2.534,5.756-5.146,8.545-7.673q1.659-1.5,3.319-3l.926-.837c1.061-.961,2.121-1.921,3.2-2.855a1.031,1.031,0,0,1,.832-.262.938.938,0,0,1,.657.455,4.706,4.706,0,0,0,1.388,1.453c.979.668,1.949,1.347,2.919,2.027.917.643,1.835,1.286,2.759,1.918q3.132,2.145,6.272,4.279,4.011,2.732,8.014,5.474l1.377.945c4.655,3.2,9.469,6.5,14.155,9.82.385.273.789.512,1.179.745a6.772,6.772,0,0,1,2.1,1.671C314.071,41.234,313.631,41.559,313.2,41.881Zm3.255-1.957-.217.084c-.085.035-.162.079-.246.116a7.843,7.843,0,0,0-2.722-2.274c-.365-.217-.728-.433-1.07-.674-4.7-3.322-9.513-6.633-14.174-9.833L296.65,26.4q-4-2.749-8.02-5.478-3.135-2.135-6.268-4.275c-.919-.63-1.832-1.269-2.744-1.909-.976-.683-1.952-1.367-2.936-2.039a3.072,3.072,0,0,1-.815-.824,2.724,2.724,0,0,1,.929-.345c1.324-.147,2.645-.322,3.966-.5,1.44-.192,2.931-.389,4.395-.544,3.054-.323,6.141-.737,9.125-1.138l2.56-.341c4.25-.561,8.507-1.091,12.762-1.62l.444-.056q2.865-.357,5.734-.7,2.033-.244,4.066-.491L321.023,6q4.782-.584,9.561-1.187,2.881-.367,5.762-.752,2.539-.336,5.08-.666l2.093-.269c3.3-.427,6.714-.868,10.076-1.24.244-.027.491-.076.74-.127a2.019,2.019,0,0,1,1.344-.014,3.593,3.593,0,0,0,.6.242,4.588,4.588,0,0,1-1.065,1.265q-2.856,2.655-5.707,5.316c-4.949,4.614-10.066,9.385-15.139,14.032-1.954,1.791-3.906,3.644-5.794,5.435-2.949,2.8-6,5.692-9.112,8.4a7.706,7.706,0,0,0-1.99,2.376c-.01.022-.008.045-.017.067a.8.8,0,0,0-.178.415C317.249,39.562,317.1,39.674,316.455,39.924Zm63.677-4.453a8.767,8.767,0,0,0-4.293-.219c-.465.055-.93.11-1.394.135-3.4.181-6.838.447-10.167.7l-.959.074c-1.321.1-2.64.223-3.96.343s-2.643.242-3.968.344-2.642.187-3.964.272c-2.348.151-4.776.306-7.161.561-1.386.148-2.8.255-4.177.358-1.216.091-2.432.183-3.646.3-1.272.125-2.547.222-3.821.319s-2.529.192-3.79.316c-1.005.1-2.011.163-3.018.228-1.728.112-3.515.228-5.281.513a3.054,3.054,0,0,1-1.622-.148c.008-.015.02-.025.028-.041a6.117,6.117,0,0,1,1.593-1.86c3.141-2.733,6.2-5.639,9.165-8.449,1.883-1.787,3.829-3.635,5.773-5.416,5.078-4.652,10.2-9.425,15.15-14.042q2.852-2.658,5.706-5.315a4.99,4.99,0,0,0,1.669-2.431,4.278,4.278,0,0,0,1.045-.436c.013-.007.02-.021.034-.029a15.848,15.848,0,0,1,2.36,3.259c.287.476.575.952.88,1.415,1.792,2.729,3.582,5.527,5.312,8.234q1.427,2.232,2.857,4.46l2.675,4.144c2.166,3.356,4.334,6.71,6.475,10.082.164.259.344.518.524.767.422.58.487.846.466.967C380.6,34.985,380.5,35.168,380.132,35.471Z" transform="translate(0.307 0.307)"/>
        </g>
      </g>
    </g>
  </g>
</svg>
