<svg xmlns="http://www.w3.org/2000/svg" xmlns:xlink="http://www.w3.org/1999/xlink" width="565.622" height="581.081" viewBox="0 0 565.622 581.081">
  <defs>
    <style>
      .cls-1 {
        fill: #fcfcfc;
      }

      .cls-2 {
        fill: #fed10b;
      }

      .cls-3 {
        clip-path: url(#clip-path);
      }
    </style>
    <clipPath id="clip-path">
      <rect id="Rectangle_20" data-name="Rectangle 20" class="cls-1" width="477.956" height="308.175"/>
    </clipPath>
  </defs>
  <g id="Group_251" data-name="Group 251" transform="translate(24 -351.671)">
    <path id="Polygon_4" data-name="Polygon 4" class="cls-2" d="M177.779,0,355.558,368.9H0Z" transform="translate(331.558 932.752) rotate(180)"/>
    <g id="Group_250" data-name="Group 250" transform="matrix(0.978, 0.208, -0.208, 0.978, 74.111, 351.671)">
      <g id="Group_170" data-name="Group 170" class="cls-3">
        <path id="Path_20" data-name="Path 20" class="cls-1" d="M476.214,41.138c-.2-.277-.4-.566-.582-.853q-4.014-6.32-8.094-12.6L464.2,22.515q-1.788-2.777-3.564-5.561c-2.163-3.385-4.4-6.884-6.646-10.3-.366-.556-.71-1.128-1.056-1.7A22.746,22.746,0,0,0,449.877.683L448.327.3a1.015,1.015,0,0,0-1.148-.094,2.08,2.08,0,0,1-2.228.16,4.312,4.312,0,0,0-3.03-.175c-.25.051-.5.1-.741.13-4.215.466-8.486,1.019-12.617,1.552l-2.61.337q-3.175.408-6.349.832-3.592.475-7.183.938-5.962.76-11.926,1.48l-1.466.18q-2.535.31-5.072.612-3.583.432-7.166.871l-.554.069c-5.317.662-10.635,1.323-15.945,2.025l-3.2.427c-3.712.5-7.55,1.012-11.333,1.413-1.854.2-3.729.445-5.541.686-1.635.217-3.269.433-4.908.615a5.36,5.36,0,0,0-1.915.668l.462.91.486.839c-.028-.042-.064-.075-.091-.119A3.224,3.224,0,0,0,342,13.138a3.32,3.32,0,0,0-2.689.8c-1.365,1.176-2.7,2.386-4.036,3.6l-1.153,1.043q-2.077,1.873-4.146,3.752c-3.476,3.15-7.071,6.406-10.647,9.56-9.265,8.169-17.533,15.553-25.279,22.573-6.174,5.6-11.226,10.119-15.9,14.234q-1.231,1.082-2.466,2.161c-3.028,2.644-6.158,5.379-9.091,8.235-1.7,1.649-3.5,3.249-5.25,4.8s-3.553,3.145-5.262,4.8l-.111.1a2.47,2.47,0,0,0-.656.827,3.338,3.338,0,0,1-2.01,2c-1.3.481-1.911,1.813-1.586,3.476,1.275,6.514,2.647,13.262,4.076,20.057.853,4.048,1.668,8.1,2.484,12.157.824,4.1,1.649,8.207,2.511,12.3.165.78.306,1.565.45,2.353a35.532,35.532,0,0,0,1.388,5.8c.449,1.243.143,2.09-.436,3.48q-2.613,6.266-5.167,12.556-2.233,5.46-4.483,10.913-4.349,10.484-8.756,20.944l-3.245,7.735c-.285.678-.578,1.353-.873,2.028-.362.831-.724,1.683-1.077,2.542-.352-.859-.715-1.711-1.077-2.542-.294-.675-.587-1.35-.873-2.028l-3.245-7.735q-4.392-10.467-8.756-20.944-2.262-5.448-4.483-10.913-2.567-6.285-5.167-12.556c-.579-1.389-.885-2.236-.436-3.48a35.535,35.535,0,0,0,1.388-5.8c.143-.788.284-1.573.449-2.353.863-4.1,1.688-8.2,2.512-12.3.815-4.054,1.631-8.109,2.483-12.157,1.43-6.794,2.8-13.542,4.076-20.057.326-1.662-.282-2.995-1.585-3.476a3.338,3.338,0,0,1-2.01-2,2.458,2.458,0,0,0-.657-.827l-.11-.1c-1.709-1.66-3.515-3.259-5.262-4.8s-3.554-3.148-5.25-4.8c-2.933-2.856-6.064-5.591-9.091-8.235q-1.234-1.079-2.467-2.161c-4.671-4.115-9.723-8.638-15.9-14.234-7.746-7.02-16.015-14.4-25.279-22.573-3.577-3.154-7.171-6.41-10.647-9.56q-2.072-1.877-4.147-3.752l-1.152-1.043c-1.335-1.21-2.672-2.419-4.036-3.6a3.32,3.32,0,0,0-2.689-.8,3.222,3.222,0,0,0-2.249,1.521c-.027.044-.063.077-.091.119l.486-.839.462-.91a5.367,5.367,0,0,0-1.915-.668c-1.639-.182-3.273-.4-4.908-.615-1.811-.24-3.686-.488-5.541-.686-3.783-.4-7.622-.915-11.333-1.413l-3.2-.427c-5.312-.7-10.628-1.363-15.945-2.025L90.4,7.125q-3.581-.446-7.167-.871-2.535-.3-5.071-.612L76.7,5.462q-5.965-.731-11.925-1.48-3.592-.458-7.183-.938-3.174-.42-6.349-.832l-2.61-.337C44.5,1.341,40.226.789,36.011.323,35.768.3,35.519.244,35.27.193a4.315,4.315,0,0,0-3.031.175,2.079,2.079,0,0,1-2.227-.16A1.015,1.015,0,0,0,28.863.3l-1.55.382a22.8,22.8,0,0,0-3.06,4.269c-.345.572-.69,1.144-1.056,1.7-2.246,3.418-4.482,6.917-6.645,10.3q-1.778,2.783-3.564,5.561L9.653,27.685q-4.064,6.288-8.094,12.6c-.183.287-.383.576-.582.853a3.751,3.751,0,0,0-.946,2.733,4.027,4.027,0,0,0,1.89,2.416,1.015,1.015,0,0,0,1.048.084c1.467-.726,3.091-.535,4.81-.334.624.073,1.248.146,1.869.179,4.215.225,8.5.556,12.644.877l1.2.093c1.641.126,3.279.276,4.917.425,1.659.152,3.318.3,4.98.431s3.316.235,4.976.341c2.91.186,5.919.379,8.854.692,1.762.189,3.549.323,5.278.454,1.5.113,3,.227,4.5.374,1.6.158,3.209.28,4.816.4,1.563.12,3.127.238,4.687.39,1.275.125,2.553.207,3.832.29,2.11.137,4.29.279,6.4.619a6.341,6.341,0,0,0,1.436.07,5.36,5.36,0,0,0,2.034-.54,5.48,5.48,0,0,0,1.213.612l.236.092a15.261,15.261,0,0,1,3.337,2.08l.681.506q5.338,3.9,10.629,7.871l22.311,16.585c.128.1.26.188.392.281.828.575.962.754.9,1.2a1.022,1.022,0,0,0,1.082,1.16.967.967,0,0,0,.241-.058c.382.1.4.157.426.306a50.232,50.232,0,0,0,2.758,8.788c.442,1.151.885,2.3,1.289,3.467,1.856,5.336,3.755,10.656,5.653,15.976l1.11,3.113q.949,2.664,1.911,5.322,1.251,3.473,2.485,6.953-.506,2.316-1.025,4.628c-.653,2.918-1.327,5.934-1.935,8.922-.423,2.082-.877,4.157-1.33,6.232-.883,4.032-1.8,8.2-2.459,12.378a11.5,11.5,0,0,1-.388,1.5c-.083.27-.165.539-.239.81a1.234,1.234,0,0,0,.752,1.5h.007l0,.205c.074,0,.125,0,.168,0A55.081,55.081,0,0,0,138.528,166c.972.461,1.942.921,2.9,1.4q3.086,1.546,6.165,3.109c3.864,1.955,7.859,3.977,11.819,5.911,2.591,1.265,5.168,2.557,7.745,3.849,3.424,1.716,6.963,3.492,10.48,5.174a38.022,38.022,0,0,1,3.87,2.111,3.416,3.416,0,0,1,1.113.947,5.535,5.535,0,0,1-2.914-.248c-4.678-1.546-9.476-2.968-14.115-4.343l-3.887-1.156q-4.829-1.445-9.667-2.864-3.445-1.015-6.886-2.035-8.214-2.44-16.419-4.9l-.129-.039a4.941,4.941,0,0,0-3.237-.186,3.273,3.273,0,0,0-4.012.9c-5.1,5.041-10.433,10.156-16.295,15.639-3.382,3.163-6.741,6.453-9.992,9.633l-1.792,1.753c-1.11,1.084-2.244,2.141-3.378,3.2-1.685,1.571-3.429,3.2-5.068,4.894l-.291.3a6.029,6.029,0,0,0-1.946,3.149.963.963,0,0,0,0,.18c-.013.029-.037.048-.048.078a4.5,4.5,0,0,0-.326,2.162c.105.8.222,1.606.338,2.408.268,1.848.545,3.759.675,5.63.157,2.249.406,4.514.647,6.7q.143,1.292.279,2.587c.37,3.565.781,7.126,1.19,10.688q.333,2.893.66,5.789c.058.526.1,1.057.139,1.588.069.909.14,1.85.305,2.785.489,2.765.757,5.626,1.017,8.392.224,2.391.456,4.864.831,7.3a7.182,7.182,0,0,0,3.277,5.194c1.744,1.145,3.576,2.187,5.348,3.2q1.064.6,2.122,1.217,2.857,1.664,5.709,3.336c4.44,2.6,9.033,5.285,13.58,7.879,9.88,5.633,18.748,10.751,27.11,15.649.268.157.534.32.8.484a10.52,10.52,0,0,0,5.215,1.979c.033,0,.066,0,.1,0a1.024,1.024,0,0,0,.767-.431,4.111,4.111,0,0,1,1.4-1.055,6.644,6.644,0,0,0,1.959-1.488c1.157-1.393,2.455-2.732,3.711-4.026q.674-.7,1.344-1.395l8.032-8.438q6.432-6.752,12.856-13.512,3.88-4.089,7.741-8.194,3.586-3.805,7.179-7.6,2.34-2.467,4.7-4.917c2.263-2.355,4.525-4.711,6.756-7.1,4.622-4.939,9.429-10.033,14.291-15.14s9.736-10.236,14.6-15.358a3.919,3.919,0,0,0,1.131-2.359,2.808,2.808,0,0,1,.529-1.351c.015-.022.027-.047.041-.07.014.023.026.048.04.07a2.8,2.8,0,0,1,.53,1.351,3.919,3.919,0,0,0,1.131,2.359q7.3,7.683,14.6,15.358c4.862,5.107,9.669,10.2,14.291,15.14,2.231,2.385,4.493,4.741,6.755,7.1q2.357,2.455,4.7,4.917,3.6,3.793,7.178,7.6,3.867,4.1,7.741,8.194,6.42,6.763,12.856,13.512l8.033,8.438c.444.466.894.931,1.344,1.395,1.256,1.294,2.554,2.634,3.71,4.026a6.671,6.671,0,0,0,1.959,1.488,4.106,4.106,0,0,1,1.4,1.055,1.022,1.022,0,0,0,.767.431c.032,0,.065,0,.1,0a10.524,10.524,0,0,0,5.215-1.979c.268-.164.535-.327.8-.484,8.363-4.9,17.232-10.017,27.11-15.649,4.549-2.594,9.141-5.28,13.581-7.879q2.854-1.67,5.709-3.336,1.056-.615,2.122-1.217c1.772-1.009,3.6-2.052,5.349-3.2a7.185,7.185,0,0,0,3.276-5.194c.374-2.432.607-4.905.831-7.3.26-2.766.527-5.627,1.017-8.392.165-.935.236-1.876.305-2.785.04-.53.08-1.062.139-1.588q.325-2.895.66-5.789c.41-3.562.819-7.123,1.19-10.688.089-.863.184-1.726.279-2.587.241-2.189.489-4.455.647-6.7.131-1.872.408-3.782.674-5.63.116-.8.234-1.605.339-2.408a4.486,4.486,0,0,0-.327-2.162.865.865,0,0,0-.047-.078,1.06,1.06,0,0,0,0-.18,6.024,6.024,0,0,0-1.947-3.149l-.291-.3c-1.638-1.7-3.382-3.322-5.066-4.894-1.134-1.056-2.269-2.114-3.379-3.2l-1.791-1.753c-3.251-3.18-6.611-6.47-9.992-9.633-5.861-5.482-11.191-10.6-16.295-15.639a3.273,3.273,0,0,0-4.012-.9,4.941,4.941,0,0,0-3.237.186l-.129.039q-8.205,2.467-16.42,4.9-3.44,1.022-6.885,2.035-4.835,1.425-9.667,2.864l-3.887,1.156c-4.64,1.375-9.438,2.8-14.115,4.343a5.535,5.535,0,0,1-2.914.248,3.416,3.416,0,0,1,1.113-.947,38.109,38.109,0,0,1,3.869-2.111c3.519-1.682,7.058-3.457,10.481-5.174,2.578-1.291,5.154-2.584,7.745-3.849,3.96-1.934,7.955-3.956,11.819-5.911q3.08-1.559,6.165-3.109c.958-.48,1.929-.94,2.9-1.4a55.082,55.082,0,0,0,8.125-4.436c.042,0,.094,0,.167,0l0-.205h.007a1.234,1.234,0,0,0,.752-1.5c-.075-.271-.156-.54-.239-.81a11.5,11.5,0,0,1-.388-1.5c-.664-4.178-1.576-8.346-2.459-12.378-.454-2.075-.908-4.15-1.33-6.232-.608-2.988-1.282-6-1.935-8.922q-.518-2.313-1.025-4.628,1.229-3.48,2.485-6.953.958-2.659,1.911-5.322l1.11-3.113c1.9-5.32,3.8-10.64,5.653-15.976.4-1.163.847-2.315,1.288-3.467a50.149,50.149,0,0,0,2.759-8.788c.028-.149.044-.208.426-.306a.967.967,0,0,0,.241.058,1.022,1.022,0,0,0,1.082-1.16c-.061-.443.074-.622.9-1.2.133-.093.265-.186.392-.281l22.31-16.585q5.3-3.951,10.629-7.871l.682-.506a15.26,15.26,0,0,1,3.337-2.08l.236-.092a5.48,5.48,0,0,0,1.213-.612,5.355,5.355,0,0,0,2.033.54,6.35,6.35,0,0,0,1.438-.07c2.108-.34,4.288-.482,6.4-.619,1.278-.083,2.557-.166,3.832-.29,1.56-.152,3.124-.271,4.687-.39,1.606-.123,3.213-.244,4.816-.4,1.5-.147,3-.261,4.5-.374,1.729-.131,3.516-.265,5.278-.454,2.935-.313,5.943-.506,8.854-.692,1.659-.106,3.318-.214,4.976-.341s3.32-.279,4.98-.431c1.639-.149,3.277-.3,4.917-.425l1.2-.093c4.144-.321,8.429-.652,12.643-.877.621-.033,1.245-.106,1.87-.179,1.718-.2,3.343-.392,4.81.334a1.015,1.015,0,0,0,1.048-.084,4.029,4.029,0,0,0,1.889-2.416,3.745,3.745,0,0,0-.945-2.733M77.058,49.586c-2.2-.356-4.434-.5-6.591-.641-1.257-.081-2.513-.162-3.767-.284-1.574-.154-3.152-.275-4.731-.394s-3.183-.242-4.77-.4c-1.515-.149-3.033-.265-4.553-.378-1.712-.13-3.483-.263-5.215-.447-2.977-.318-6.007-.512-8.939-.7-1.65-.106-3.3-.211-4.949-.339s-3.3-.278-4.952-.429-3.295-.3-4.944-.428l-1.2-.092c-4.156-.322-8.453-.654-12.692-.88-.579-.031-1.16-.1-1.74-.169a10.944,10.944,0,0,0-5.36.273c-.458-.378-.59-.606-.61-.736-.026-.15.056-.482.582-1.207.225-.311.45-.634.654-.957q4.009-6.314,8.084-12.586l3.339-5.173q1.788-2.778,3.567-5.567c2.16-3.38,4.393-6.873,6.631-10.279.38-.578.74-1.173,1.1-1.766A19.784,19.784,0,0,1,28.948,1.94c.015.01.025.028.042.037a5.34,5.34,0,0,0,1.3.545,6.229,6.229,0,0,0,2.083,3.034q3.565,3.315,7.123,6.635c6.18,5.763,12.573,11.722,18.912,17.529,2.426,2.223,4.856,4.529,7.207,6.76,3.7,3.508,7.52,7.136,11.44,10.548a7.622,7.622,0,0,1,1.988,2.322c.01.019.026.033.036.051a3.815,3.815,0,0,1-2.026.185m4.069-.532a1,1,0,0,0-.221-.518c-.011-.028-.009-.056-.022-.084A9.618,9.618,0,0,0,78.4,45.486C74.514,42.1,70.707,38.492,67.026,35c-2.356-2.236-4.794-4.55-7.232-6.785-6.333-5.8-12.721-11.756-18.9-17.517q-3.56-3.319-7.124-6.636a5.741,5.741,0,0,1-1.328-1.58,4.486,4.486,0,0,0,.745-.3,2.52,2.52,0,0,1,1.678.017c.311.063.619.125.924.158,4.2.464,8.457,1.015,12.578,1.548l2.612.336q3.172.409,6.342.832,3.6.475,7.193.939,5.965.76,11.935,1.481l1.467.18q2.538.311,5.076.613,3.58.431,7.158.87l.554.069c5.312.661,10.624,1.322,15.931,2.023l3.2.426c3.725.5,7.579,1.017,11.391,1.42,1.828.194,3.688.44,5.486.679,1.649.219,3.3.436,4.95.62a3.385,3.385,0,0,1,1.16.43A3.815,3.815,0,0,1,131.8,15.85c-1.228.839-2.447,1.692-3.665,2.545-1.139.8-2.278,1.6-3.426,2.383q-3.908,2.674-7.824,5.337-5.01,3.413-10.012,6.838l-1.717,1.181c-5.818,3.995-11.833,8.127-17.693,12.274-.427.3-.881.571-1.336.842a9.79,9.79,0,0,0-3.4,2.838c-.1-.046-.2-.1-.308-.145l-.27-.105c-.81-.312-.991-.452-1.022-.785m38.7,28.187L97.519,60.657c-3.54-2.638-7.08-5.276-10.643-7.882l-.664-.493c-.538-.4-1.087-.807-1.664-1.188a8.441,8.441,0,0,1,2.622-2.086c.486-.29.99-.59,1.47-.93,5.849-4.14,11.86-8.267,17.671-12.259l1.717-1.18q4.994-3.43,10.005-6.833,3.917-2.668,7.829-5.341c1.153-.79,2.3-1.592,3.444-2.395,1.211-.849,2.422-1.7,3.644-2.531a5.875,5.875,0,0,0,1.733-1.813,1.169,1.169,0,0,1,.82-.568,1.285,1.285,0,0,1,1.038.327c1.353,1.166,2.676,2.364,4,3.564l1.156,1.045q2.074,1.873,4.143,3.749c3.482,3.154,7.081,6.415,10.667,9.578,9.258,8.163,17.52,15.541,25.258,22.555,6.183,5.6,11.242,10.131,15.92,14.252q1.235,1.087,2.475,2.167c3.006,2.627,6.115,5.342,9.009,8.16,1.731,1.684,3.556,3.3,5.322,4.862,1.728,1.531,3.517,3.114,5.193,4.743l.158.147a2.065,2.065,0,0,1,.182.177,6.465,6.465,0,0,0,.429.792,2.613,2.613,0,0,1-1.572.3c-2.843-.516-5.742-.864-8.544-1.2-1.725-.207-3.449-.415-5.17-.66-2.268-.324-4.577-.6-6.809-.875-2.921-.354-5.942-.719-8.888-1.188-3.272-.52-6.6-.907-9.825-1.282-2.244-.262-4.565-.531-6.837-.843-3.834-.526-7.716-1.007-11.469-1.472-2.362-.292-4.72-.628-7.077-.964-1.98-.282-3.961-.565-5.945-.822l-2.395-.311c-5.34-.695-10.862-1.413-16.313-1.983-.572-.06-1.151-.171-1.764-.288a9.752,9.752,0,0,0-5.363.045,3.189,3.189,0,0,0-.613-.248,3.74,3.74,0,0,0-1.7-2c-.114-.08-.229-.159-.34-.242M134.382,112.4l-1.111-3.114c-1.9-5.316-3.792-10.63-5.648-15.96-.412-1.184-.861-2.357-1.31-3.53a49.019,49.019,0,0,1-2.63-8.308,9.1,9.1,0,0,1,3.776.2c.627.12,1.277.243,1.935.313,5.426.568,10.935,1.284,16.262,1.977l2.4.312c1.976.255,3.948.537,5.92.817,2.369.338,4.74.676,7.115.971,3.746.464,7.621.944,11.442,1.469,2.293.315,4.624.585,6.879.847,3.2.373,6.51.758,9.741,1.272,2.982.474,6.023.842,8.963,1.2,2.221.269,4.519.547,6.766.868,1.735.247,3.476.457,5.216.665,2.773.334,5.64.677,8.422,1.183a3.944,3.944,0,0,0,.967.053,5.73,5.73,0,0,0,2.4-.805,5.48,5.48,0,0,0,1.287.7c.4.147.377.716.289,1.167-1.273,6.505-2.643,13.243-4.071,20.028-.853,4.053-1.67,8.115-2.486,12.175-.823,4.1-1.648,8.195-2.509,12.284-.168.8-.314,1.605-.46,2.411a33.437,33.437,0,0,1-1.3,5.465,5.509,5.509,0,0,0-.27,1.119A21.259,21.259,0,0,1,208,147.016c-.6-.208-1.2-.416-1.8-.6q-1.767-.549-3.539-1.085c-3.261-.994-6.634-2.023-9.906-3.153-4.54-1.568-9.294-3.054-14.534-4.543-3.019-.858-6.062-1.839-9-2.788-2.378-.766-4.838-1.559-7.278-2.286s-4.928-1.515-7.325-2.276c-2.255-.716-4.509-1.431-6.774-2.113-.891-.267-1.775-.561-2.657-.853a47.113,47.113,0,0,0-6.064-1.7l-.012-.033.025-.112-.072-.018c-.908-2.582-1.837-5.157-2.765-7.734q-.956-2.656-1.907-5.315M178.519,183.6c-3.5-1.675-7.032-3.444-10.447-5.156-2.583-1.3-5.167-2.591-7.763-3.859-3.948-1.928-7.936-3.947-11.8-5.9q-3.083-1.56-6.17-3.113c-.973-.487-1.956-.953-2.94-1.42a54.863,54.863,0,0,1-7.633-4.142c.019-.061.036-.124.055-.186a13.5,13.5,0,0,0,.467-1.846c.653-4.1,1.557-8.237,2.432-12.233.457-2.087.913-4.175,1.339-6.27.6-2.963,1.274-5.967,1.924-8.872.224-1,.442-2,.664-3a44.847,44.847,0,0,1,5.881,1.649c.9.3,1.8.6,2.713.871,2.255.678,4.5,1.391,6.744,2.1,2.406.764,4.895,1.554,7.36,2.289,2.42.719,4.867,1.509,7.234,2.272,2.96.954,6.021,1.94,9.074,2.809,5.2,1.478,9.92,2.954,14.425,4.51,3.307,1.142,6.7,2.176,9.978,3.175q1.765.538,3.529,1.082c.581.18,1.159.38,1.737.58a21.651,21.651,0,0,0,5.156,1.3,12.33,12.33,0,0,0,.627,1.773c1.74,4.173,3.45,8.357,5.16,12.543q2.234,5.465,4.486,10.922,4.352,10.489,8.76,20.952l3.245,7.735c.288.688.585,1.371.883,2.055.569,1.3,1.158,2.655,1.656,4a3.882,3.882,0,0,1,.183,2.147,1.007,1.007,0,0,0-.5-.518,3.179,3.179,0,0,1-.592-.4,5.16,5.16,0,0,0-.987-.65l-2.091-.994c-3.154-1.5-6.414-3.054-9.679-4.479l-.976-.425c-2.5-1.086-5.077-2.21-7.526-3.457-3.744-1.91-7.628-3.659-11.381-5.352q-1.724-.777-3.447-1.559c-4.367-1.991-8.913-3.72-13.308-5.391l-1.451-.553c-.553-.209-.793-.377-.89-.614a4.673,4.673,0,0,0-2.058-2.155,39.845,39.845,0,0,0-4.076-2.224m-50.509-8.732.131.04q8.211,2.467,16.429,4.907,3.442,1.022,6.888,2.036,4.832,1.424,9.66,2.861l3.892,1.158c4.626,1.371,9.409,2.788,14.056,4.324a7.368,7.368,0,0,0,5.07,0,5.817,5.817,0,0,0,.679.311l1.453.553c4.366,1.66,8.88,3.378,13.187,5.341q1.726.786,3.455,1.563c3.732,1.682,7.591,3.421,11.294,5.309,2.5,1.275,5.114,2.412,7.638,3.51l.975.424c3.234,1.412,6.478,2.957,9.617,4.45l2.094,1a3.44,3.44,0,0,1,.6.412,4.916,4.916,0,0,0,1.008.656.967.967,0,0,0,.83,0c-.044.077-.083.153-.132.23-.075.115-.145.238-.217.361a33.355,33.355,0,0,0-8.037,1.635l-.833.243c-2.6.751-5.266,1.445-7.845,2.115q-1.525.4-3.048.8l-4.916,1.3q-7.583,2-15.17,3.994c-2.135.558-4.275,1.1-6.413,1.646-3.017.766-6.033,1.534-9.039,2.339-2.439.654-4.871,1.336-7.3,2.018-3.807,1.067-7.743,2.171-11.637,3.14-.981.245-1.959.506-2.936.768-1.848.494-3.761,1.006-5.655,1.381a7.017,7.017,0,0,0-1.04-4.269c-.1-.2-.2-.4-.3-.607q-3.368-7.142-6.677-14.315-2.766-5.966-5.551-11.923-1.657-3.528-3.327-7.05c-2.353-4.977-4.787-10.123-7.109-15.215-.439-.964-.893-1.925-1.348-2.884-.556-1.176-1.112-2.353-1.643-3.542a6.363,6.363,0,0,1-.41-1.3,4.223,4.223,0,0,1,1.627.286M85.993,210.475l.308-.315c1.6-1.657,3.324-3.263,4.99-4.817,1.145-1.068,2.292-2.136,3.412-3.232l1.792-1.754c3.243-3.172,6.6-6.454,9.959-9.6,5.876-5.5,11.219-10.624,16.335-15.677.767-.757,1.127-.786,1.49-.619a8.076,8.076,0,0,0,.65,2.247c.537,1.2,1.1,2.392,1.662,3.582.45.951.9,1.9,1.334,2.859,2.328,5.105,4.765,10.258,7.122,15.24q1.664,3.52,3.322,7.043,2.791,5.951,5.548,11.916,3.326,7.171,6.683,14.326c.1.217.209.432.318.649a6.274,6.274,0,0,1,.867,2.583c-7.087-2.625-14.32-5.12-21.33-7.531l-1.929-.664q-10.34-3.557-20.659-7.172c-1.3-.455-2.594-.936-3.885-1.416-1.943-.721-3.952-1.468-5.968-2.118-1.628-.526-3.244-1.086-4.858-1.644-2.674-.926-5.427-1.877-8.21-2.665a7.16,7.16,0,0,1,1.047-1.221m2.471,41.955c-.148-.836-.213-1.685-.281-2.584-.042-.556-.084-1.11-.146-1.661q-.323-2.9-.66-5.795c-.41-3.553-.818-7.108-1.188-10.666-.09-.865-.185-1.732-.28-2.6-.239-2.17-.485-4.414-.64-6.622-.136-1.947-.418-3.9-.692-5.782-.115-.794-.23-1.587-.334-2.382a1.855,1.855,0,0,1,.067-.691c2.754.775,5.506,1.717,8.176,2.641,1.628.563,3.257,1.127,4.9,1.656,1.974.638,3.961,1.376,5.884,2.09,1.3.484,2.608.97,3.922,1.429q10.325,3.615,20.67,7.175l1.929.664c6.982,2.4,14.184,4.886,21.234,7.495a11.5,11.5,0,0,1-3.381,2.183c-.486.237-.971.474-1.444.732q-3.942,2.149-7.872,4.311c-5.447,2.99-11.08,6.083-16.661,9.039-2.928,1.55-5.88,3.166-8.735,4.729-4.178,2.285-8.5,4.65-12.808,6.846-1.365.695-2.722,1.448-4.034,2.175s-2.653,1.472-4,2.157a6.125,6.125,0,0,0-1.279.885,6.126,6.126,0,0,1-.5-1.7c-.365-2.372-.594-4.814-.815-7.176-.264-2.807-.535-5.709-1.038-8.557m58.852,51.258c-.28-.172-.558-.342-.838-.506-8.371-4.9-17.244-10.025-27.132-15.661-4.537-2.588-9.125-5.271-13.561-7.868q-2.855-1.669-5.712-3.337c-.709-.414-1.424-.82-2.138-1.227-1.745-.993-3.549-2.02-5.238-3.129a6.194,6.194,0,0,1-.62-.47,4.174,4.174,0,0,1,.945-.7c1.374-.7,2.739-1.457,4.058-2.189,1.3-.719,2.637-1.462,3.969-2.142,4.339-2.209,8.672-4.58,12.862-6.874,2.849-1.559,5.795-3.172,8.711-4.716,5.6-2.963,11.234-6.059,16.689-9.053q3.929-2.159,7.866-4.307c.445-.244.905-.467,1.363-.69a12.842,12.842,0,0,0,4.088-2.721,8.6,8.6,0,0,1,.3,3.78c-.036.567-.071,1.134-.069,1.7.007,2.509-.137,5.076-.276,7.557l-.039.7c-.138,2.464-.214,4.964-.287,7.384-.077,2.534-.157,5.153-.307,7.721-.053.919-.065,1.844-.077,2.772-.013,1.019-.027,2.072-.1,3.089-.1,1.431-.135,2.874-.164,4.271-.034,1.581-.068,3.216-.211,4.806-.116,1.292-.115,2.594-.114,3.853,0,.779,0,1.556-.027,2.332-.045,1.29-.106,2.582-.17,3.873-.085,1.784-.171,3.569-.213,5.356l-.029,1.466c-.026,1.477-.052,3-.174,4.493a3.558,3.558,0,0,0,.536,1.9l.009.02c-.057.052-.116.1-.171.155a9.757,9.757,0,0,1-3.732-1.641m73.5-70.984c-4.865,5.111-9.677,10.21-14.3,15.152-2.226,2.378-4.482,4.728-6.738,7.078q-2.36,2.457-4.71,4.924-3.6,3.8-7.184,7.607-3.862,4.1-7.735,8.189-6.42,6.763-12.853,13.509l-8.034,8.438c-.44.464-.885.923-1.33,1.382-1.283,1.323-2.609,2.691-3.815,4.144a4.28,4.28,0,0,1-1.184.893,1.745,1.745,0,0,1-.217-.6c.126-1.554.153-3.115.18-4.626l.028-1.452c.042-1.77.127-3.538.212-5.307.062-1.3.125-2.6.171-3.9.028-.8.028-1.6.028-2.4,0-1.269,0-2.467.106-3.669.149-1.659.184-3.33.22-4.946.03-1.37.059-2.786.159-4.165.079-1.078.093-2.163.105-3.212.011-.895.022-1.789.075-2.677.151-2.6.231-5.231.309-7.778.073-2.407.148-4.895.284-7.333l.039-.7c.141-2.511.287-5.107.28-7.676,0-.518.033-1.04.066-1.563a10.872,10.872,0,0,0-.36-4.426c1.814-.376,3.616-.848,5.358-1.314.966-.258,1.932-.517,2.9-.759,3.922-.977,7.874-2.085,11.694-3.156,2.425-.679,4.85-1.359,7.283-2.011,3-.8,6-1.567,9.011-2.332,2.143-.546,4.287-1.089,6.427-1.648q7.592-1.983,15.175-4l4.916-1.3q1.517-.4,3.039-.794c2.594-.674,5.275-1.371,7.9-2.131l.838-.243a34.641,34.641,0,0,1,6.805-1.516,2.052,2.052,0,0,1-.547.964q-7.3,7.682-14.6,15.356m102.265,70.424c-1.206-1.453-2.533-2.821-3.815-4.144-.445-.46-.891-.918-1.33-1.382l-8.034-8.438q-6.43-6.751-12.853-13.509-3.877-4.086-7.736-8.189-3.588-3.808-7.184-7.607-2.343-2.472-4.709-4.924c-2.257-2.35-4.513-4.7-6.738-7.078-4.625-4.943-9.437-10.041-14.3-15.152s-9.735-10.234-14.6-15.356a2.064,2.064,0,0,1-.548-.964,34.624,34.624,0,0,1,6.805,1.516l.839.243c2.624.76,5.3,1.457,7.9,2.131q1.52.4,3.039.794l4.916,1.3q7.586,2.006,15.175,4c2.139.559,4.283,1.1,6.427,1.648,3.007.765,6.015,1.529,9.011,2.332,2.433.652,4.857,1.331,7.283,2.011,3.82,1.071,7.772,2.179,11.693,3.156.972.242,1.937.5,2.9.759,1.742.466,3.543.938,5.358,1.314a10.872,10.872,0,0,0-.36,4.426c.034.523.067,1.045.065,1.563-.006,2.568.139,5.165.281,7.676l.039.7c.135,2.438.211,4.926.284,7.333.077,2.547.157,5.182.309,7.778.052.888.063,1.782.075,2.677.012,1.049.026,2.134.105,3.212.1,1.379.13,2.8.159,4.165.035,1.616.07,3.287.22,4.946.108,1.2.107,2.4.106,3.669,0,.8,0,1.605.028,2.4.046,1.3.108,2.6.17,3.9.085,1.769.17,3.537.211,5.307l.029,1.452c.026,1.511.053,3.072.18,4.626a1.745,1.745,0,0,1-.217.6,4.265,4.265,0,0,1-1.184-.893m56.176-28.039c-.714.407-1.429.813-2.139,1.227q-2.858,1.666-5.711,3.337c-4.436,2.6-9.023,5.28-13.561,7.868-9.888,5.637-18.761,10.759-27.132,15.661-.28.163-.558.334-.838.506a9.757,9.757,0,0,1-3.732,1.641c-.054-.057-.113-.1-.171-.155l.009-.02a3.558,3.558,0,0,0,.536-1.9c-.122-1.489-.149-3.016-.174-4.493l-.029-1.466c-.043-1.787-.128-3.572-.212-5.356-.063-1.291-.125-2.583-.17-3.873-.028-.776-.028-1.554-.027-2.332,0-1.259,0-2.56-.114-3.853-.143-1.59-.178-3.225-.211-4.806-.031-1.4-.06-2.839-.166-4.271-.074-1.017-.087-2.07-.1-3.089-.011-.928-.023-1.852-.077-2.772-.15-2.567-.23-5.187-.307-7.721-.074-2.419-.149-4.919-.287-7.384l-.039-.7c-.139-2.482-.283-5.048-.276-7.557,0-.562-.034-1.129-.069-1.7a8.59,8.59,0,0,1,.3-3.781,12.829,12.829,0,0,0,4.088,2.722c.458.223.917.445,1.363.69q3.939,2.144,7.866,4.307c5.455,2.995,11.093,6.09,16.688,9.053,2.917,1.544,5.862,3.157,8.712,4.716,4.19,2.294,8.523,4.665,12.861,6.874,1.333.68,2.673,1.423,3.97,2.142,1.319.733,2.684,1.49,4.058,2.189a4.191,4.191,0,0,1,.944.7,6.2,6.2,0,0,1-.62.47c-1.689,1.11-3.492,2.136-5.237,3.129m13.624-61.439a1.878,1.878,0,0,1,.067.691c-.1.795-.22,1.588-.334,2.382-.274,1.885-.556,3.834-.693,5.782-.153,2.208-.4,4.451-.639,6.622-.1.866-.19,1.733-.28,2.6-.37,3.559-.78,7.113-1.188,10.666q-.334,2.9-.66,5.795c-.062.552-.1,1.105-.146,1.661-.068.9-.133,1.748-.281,2.584-.5,2.847-.775,5.75-1.038,8.557-.222,2.362-.452,4.8-.815,7.176a6.163,6.163,0,0,1-.5,1.7,6.127,6.127,0,0,0-1.279-.885c-1.344-.685-2.692-1.432-4-2.157s-2.669-1.48-4.034-2.175c-4.31-2.2-8.631-4.561-12.808-6.846-2.856-1.563-5.807-3.179-8.735-4.729-5.581-2.956-11.215-6.048-16.661-9.039q-3.934-2.161-7.872-4.311c-.473-.257-.958-.494-1.444-.732a11.5,11.5,0,0,1-3.381-2.183c7.05-2.609,14.251-5.093,21.233-7.495l1.929-.664q10.346-3.56,20.67-7.175c1.314-.46,2.618-.945,3.922-1.429,1.923-.714,3.91-1.453,5.883-2.09,1.642-.529,3.271-1.093,4.9-1.656,2.671-.924,5.422-1.866,8.176-2.641M354.4,175.08c5.116,5.052,10.459,10.18,16.335,15.677,3.363,3.147,6.716,6.428,9.959,9.6l1.792,1.754c1.121,1.1,2.267,2.164,3.412,3.232,1.666,1.554,3.389,3.16,4.99,4.817l.306.315a7.167,7.167,0,0,1,1.048,1.221c-2.783.788-5.536,1.739-8.21,2.665-1.614.558-3.231,1.118-4.858,1.644-2.016.65-4.024,1.4-5.968,2.118-1.292.48-2.585.961-3.885,1.416q-10.318,3.615-20.659,7.172l-1.929.664c-7.011,2.411-14.243,4.906-21.33,7.531a6.274,6.274,0,0,1,.867-2.583c.107-.217.217-.432.318-.649q3.372-7.148,6.683-14.326,2.765-5.963,5.548-11.916,1.654-3.525,3.322-7.043c2.357-4.983,4.794-10.135,7.121-15.24.436-.957.886-1.907,1.335-2.859.563-1.19,1.125-2.379,1.662-3.582a8.11,8.11,0,0,0,.65-2.247c.363-.167.722-.138,1.49.619m-56.278,15.11c4.649-1.536,9.431-2.953,14.056-4.324l3.893-1.158q4.826-1.444,9.66-2.861,3.445-1.018,6.888-2.036,8.217-2.441,16.429-4.907l.131-.04a4.223,4.223,0,0,1,1.627-.286,6.308,6.308,0,0,1-.411,1.3c-.53,1.189-1.087,2.366-1.642,3.542-.455.959-.908,1.92-1.348,2.884-2.322,5.092-4.756,10.238-7.11,15.215q-1.666,3.523-3.326,7.05-2.792,5.954-5.551,11.923-3.324,7.165-6.678,14.315c-.1.2-.2.4-.3.607a7.01,7.01,0,0,0-1.04,4.269c-1.9-.375-3.807-.887-5.655-1.381-.978-.263-1.956-.523-2.937-.768-3.893-.969-7.83-2.073-11.636-3.14-2.433-.681-4.865-1.364-7.3-2.018-3.007-.805-6.022-1.572-9.039-2.339-2.138-.545-4.278-1.088-6.414-1.646q-7.587-1.982-15.169-3.994l-4.916-1.3q-1.522-.4-3.048-.8c-2.58-.67-5.248-1.364-7.845-2.115l-.833-.243a33.373,33.373,0,0,0-8.038-1.635c-.07-.123-.142-.245-.216-.361-.049-.077-.088-.153-.132-.23a.965.965,0,0,0,.829,0,4.925,4.925,0,0,0,1.009-.656,3.436,3.436,0,0,1,.6-.412l2.094-1c3.14-1.494,6.384-3.038,9.618-4.45l.975-.424c2.525-1.1,5.134-2.235,7.638-3.51,3.7-1.888,7.561-3.627,11.294-5.309q1.729-.779,3.454-1.563c4.307-1.964,8.822-3.681,13.188-5.341l1.453-.553a5.818,5.818,0,0,0,.679-.311,7.365,7.365,0,0,0,5.069,0m44.341-44.446c.876,4,1.78,8.128,2.433,12.233a13.5,13.5,0,0,0,.467,1.846c.018.062.036.125.055.186a54.921,54.921,0,0,1-7.633,4.142c-.985.467-1.968.933-2.94,1.42q-3.089,1.548-6.17,3.113c-3.859,1.951-7.848,3.97-11.8,5.9-2.6,1.268-5.18,2.563-7.763,3.859-3.414,1.712-6.945,3.482-10.447,5.156a39.975,39.975,0,0,0-4.078,2.224,4.672,4.672,0,0,0-2.057,2.155c-.1.237-.338.4-.89.614l-1.451.553c-4.4,1.671-8.942,3.4-13.308,5.391q-1.723.785-3.447,1.559c-3.754,1.693-7.637,3.442-11.383,5.352-2.448,1.247-5.029,2.371-7.526,3.457l-.975.425c-3.265,1.425-6.525,2.978-9.679,4.479l-2.092.994a5.184,5.184,0,0,0-.986.65,3.178,3.178,0,0,1-.592.4,1.007,1.007,0,0,0-.5.518,3.882,3.882,0,0,1,.183-2.147c.5-1.341,1.087-2.692,1.655-4,.3-.683.6-1.367.884-2.055l3.245-7.735q4.392-10.469,8.76-20.952,2.262-5.453,4.486-10.922c1.71-4.186,3.421-8.371,5.16-12.543a12.326,12.326,0,0,0,.627-1.773,21.664,21.664,0,0,0,5.156-1.3c.578-.2,1.156-.4,1.736-.58q1.764-.546,3.53-1.082c3.28-1,6.671-2.033,9.978-3.175,4.5-1.556,9.223-3.031,14.425-4.51,3.053-.868,6.114-1.854,9.074-2.809,2.367-.763,4.814-1.553,7.234-2.272,2.464-.735,4.953-1.524,7.36-2.289,2.245-.712,4.489-1.424,6.744-2.1.908-.274,1.81-.572,2.713-.871a44.846,44.846,0,0,1,5.881-1.649q.331,1.5.663,3c.651,2.906,1.323,5.909,1.925,8.872.426,2.1.883,4.183,1.338,6.27M350.876,89.8c-.449,1.173-.9,2.346-1.311,3.53-1.854,5.33-3.751,10.644-5.647,15.96l-1.111,3.114q-.947,2.659-1.909,5.315c-.928,2.577-1.855,5.152-2.764,7.734l-.072.018.025.112-.012.033a47.067,47.067,0,0,0-6.064,1.7c-.884.292-1.767.586-2.657.853-2.265.681-4.52,1.4-6.775,2.113-2.4.761-4.876,1.548-7.324,2.276s-4.9,1.52-7.278,2.286c-2.943.949-5.986,1.93-9.005,2.788-5.239,1.49-9.993,2.975-14.533,4.543-3.272,1.13-6.645,2.159-9.906,3.153q-1.77.539-3.539,1.085c-.6.186-1.2.393-1.8.6a21.258,21.258,0,0,1-4.371,1.164,5.513,5.513,0,0,0-.271-1.119,33.441,33.441,0,0,1-1.3-5.465c-.146-.806-.292-1.612-.46-2.411-.862-4.089-1.686-8.186-2.509-12.284-.815-4.06-1.633-8.122-2.486-12.175-1.428-6.785-2.8-13.523-4.071-20.028-.088-.451-.109-1.02.288-1.167a5.466,5.466,0,0,0,1.288-.7,5.725,5.725,0,0,0,2.405.805,3.943,3.943,0,0,0,.966-.053c2.781-.506,5.649-.849,8.422-1.183,1.74-.208,3.481-.418,5.215-.665,2.248-.322,4.545-.6,6.767-.868,2.94-.357,5.981-.724,8.963-1.2,3.231-.514,6.54-.9,9.741-1.272,2.254-.262,4.586-.532,6.879-.847,3.821-.525,7.7-1.005,11.442-1.469,2.375-.294,4.745-.632,7.115-.971,1.971-.28,3.944-.562,5.919-.817l2.4-.312c5.327-.693,10.836-1.409,16.262-1.977.658-.069,1.308-.193,1.934-.313a9.105,9.105,0,0,1,3.776-.2,49.022,49.022,0,0,1-2.629,8.308m40.1-37.518-.664.493c-3.563,2.606-7.1,5.244-10.643,7.882l-22.31,16.584c-.11.083-.226.162-.34.242a3.738,3.738,0,0,0-1.7,2,3.189,3.189,0,0,0-.613.248,9.752,9.752,0,0,0-5.363-.045c-.613.118-1.192.228-1.764.288-5.451.57-10.973,1.288-16.313,1.983l-2.4.311c-1.984.257-3.964.54-5.944.822-2.357.336-4.715.672-7.077.964-3.754.465-7.635.946-11.47,1.472-2.271.312-4.592.581-6.837.843-3.221.375-6.552.762-9.824,1.282-2.945.469-5.967.835-8.889,1.188-2.231.271-4.54.551-6.808.875-1.721.245-3.445.453-5.171.66-2.8.336-5.7.685-8.543,1.2a2.613,2.613,0,0,1-1.572-.3,6.6,6.6,0,0,0,.429-.792,2.064,2.064,0,0,1,.182-.177l.158-.147c1.677-1.629,3.465-3.211,5.193-4.743,1.765-1.563,3.591-3.178,5.322-4.862,2.894-2.818,6-5.533,9.009-8.16q1.238-1.082,2.473-2.167c4.679-4.121,9.738-8.65,15.921-14.252,7.738-7.014,16-14.391,25.258-22.555,3.586-3.163,7.185-6.424,10.667-9.578q2.07-1.876,4.143-3.749l1.156-1.045c1.324-1.2,2.647-2.4,4-3.564a1.287,1.287,0,0,1,1.039-.327,1.171,1.171,0,0,1,.82.568,5.875,5.875,0,0,0,1.733,1.813c1.222.834,2.434,1.682,3.644,2.531,1.145.8,2.291,1.605,3.444,2.395q3.909,2.677,7.829,5.341,5.007,3.41,10,6.833l1.718,1.18c5.811,3.992,11.821,8.119,17.67,12.259.481.34.985.64,1.471.93a8.453,8.453,0,0,1,2.622,2.086c-.577.381-1.127.787-1.664,1.188m4.063-2.443-.271.105c-.106.044-.2.1-.306.145a9.79,9.79,0,0,0-3.4-2.838c-.456-.271-.909-.54-1.336-.842-5.861-4.147-11.876-8.28-17.693-12.274l-1.718-1.181q-5-3.431-10.011-6.838-3.914-2.665-7.824-5.337c-1.147-.787-2.287-1.585-3.426-2.383-1.218-.853-2.437-1.706-3.665-2.545a3.834,3.834,0,0,1-1.018-1.029,3.4,3.4,0,0,1,1.16-.43c1.653-.184,3.3-.4,4.951-.62,1.8-.239,3.659-.485,5.486-.679,3.812-.4,7.666-.921,11.391-1.42l3.2-.426c5.306-.7,10.619-1.362,15.931-2.023l.554-.069q3.577-.446,7.158-.87,2.538-.3,5.076-.613l1.467-.18q5.969-.729,11.935-1.481,3.6-.458,7.193-.939,3.169-.42,6.342-.832l2.612-.336c4.12-.533,8.382-1.084,12.578-1.548.3-.034.613-.1.924-.158A2.52,2.52,0,0,1,444,2.178a4.485,4.485,0,0,0,.745.3,5.728,5.728,0,0,1-1.329,1.58Q439.855,7.375,436.3,10.7c-6.178,5.76-12.566,11.716-18.9,17.517-2.439,2.235-4.876,4.549-7.232,6.785-3.681,3.494-7.488,7.106-11.375,10.489a9.62,9.62,0,0,0-2.484,2.966c-.012.028-.01.056-.021.084a1,1,0,0,0-.222.518c-.03.333-.211.473-1.021.785m79.491-5.559a10.944,10.944,0,0,0-5.36-.273c-.58.068-1.161.138-1.74.169-4.239.226-8.536.558-12.692.88l-1.2.092c-1.649.128-3.3.278-4.944.428s-3.3.3-4.953.429-3.3.233-4.948.339c-2.931.188-5.961.382-8.94.7-1.731.185-3.5.318-5.215.447-1.518.113-3.036.229-4.552.378-1.588.156-3.179.277-4.77.4s-3.157.24-4.731.394c-1.255.122-2.51.2-3.767.284-2.157.14-4.388.285-6.592.641a3.812,3.812,0,0,1-2.025-.185c.01-.018.026-.032.035-.051a7.636,7.636,0,0,1,1.988-2.322c3.921-3.411,7.744-7.039,11.441-10.548,2.351-2.231,4.78-4.537,7.207-6.76,6.34-5.807,12.731-11.766,18.912-17.529q3.56-3.318,7.123-6.635A6.23,6.23,0,0,0,446.9,2.521a5.34,5.34,0,0,0,1.3-.545c.016-.009.026-.027.042-.037a19.783,19.783,0,0,1,2.945,4.068c.359.594.717,1.188,1.1,1.766,2.237,3.406,4.471,6.9,6.631,10.279q1.781,2.786,3.567,5.567l3.339,5.173c2.7,4.189,5.411,8.377,8.083,12.586.2.323.429.647.654.957.526.724.608,1.056.582,1.207-.02.13-.152.358-.61.736" transform="translate(0.383 0.383)"/>
        <path id="Path_21" data-name="Path 21" class="cls-1" d="M476.214,41.138c-.2-.277-.4-.566-.582-.853q-4.014-6.32-8.094-12.6L464.2,22.515q-1.788-2.777-3.564-5.561c-2.163-3.385-4.4-6.884-6.646-10.3-.366-.556-.71-1.128-1.056-1.7A22.746,22.746,0,0,0,449.877.683L448.327.3a1.015,1.015,0,0,0-1.148-.094,2.08,2.08,0,0,1-2.228.16,4.312,4.312,0,0,0-3.03-.175c-.25.051-.5.1-.741.13-4.215.466-8.486,1.019-12.617,1.552l-2.61.337q-3.175.408-6.349.832-3.592.475-7.183.938-5.962.76-11.926,1.48l-1.466.18q-2.535.31-5.072.612-3.583.432-7.166.871l-.554.069c-5.317.662-10.635,1.323-15.945,2.025l-3.2.427c-3.712.5-7.55,1.012-11.333,1.413-1.854.2-3.729.445-5.541.686-1.635.217-3.269.433-4.908.615a5.36,5.36,0,0,0-1.915.668l.462.91.486.839c-.028-.042-.064-.075-.091-.119A3.224,3.224,0,0,0,342,13.138a3.32,3.32,0,0,0-2.689.8c-1.365,1.176-2.7,2.386-4.036,3.6l-1.153,1.043q-2.077,1.873-4.146,3.752c-3.476,3.15-7.071,6.406-10.647,9.56-9.265,8.169-17.533,15.553-25.279,22.573-6.174,5.6-11.226,10.119-15.9,14.234q-1.231,1.082-2.466,2.161c-3.028,2.644-6.158,5.379-9.091,8.235-1.7,1.649-3.5,3.249-5.25,4.8s-3.553,3.145-5.262,4.8l-.111.1a2.47,2.47,0,0,0-.656.827,3.338,3.338,0,0,1-2.01,2c-1.3.481-1.911,1.813-1.586,3.476,1.275,6.514,2.647,13.262,4.076,20.057.853,4.048,1.668,8.1,2.484,12.157.824,4.1,1.649,8.207,2.511,12.3.165.78.306,1.565.45,2.353a35.532,35.532,0,0,0,1.388,5.8c.449,1.243.143,2.09-.436,3.48q-2.613,6.266-5.167,12.556-2.233,5.46-4.483,10.913-4.349,10.484-8.756,20.944l-3.245,7.735c-.285.678-.578,1.353-.873,2.028-.362.831-.724,1.683-1.077,2.542-.352-.859-.715-1.711-1.077-2.542-.294-.675-.587-1.35-.873-2.028l-3.245-7.735q-4.392-10.467-8.756-20.944-2.262-5.448-4.483-10.913-2.567-6.285-5.167-12.556c-.579-1.389-.885-2.236-.436-3.48a35.535,35.535,0,0,0,1.388-5.8c.143-.788.284-1.573.449-2.353.863-4.1,1.688-8.2,2.512-12.3.815-4.054,1.631-8.109,2.483-12.157,1.43-6.794,2.8-13.542,4.076-20.057.326-1.662-.282-2.995-1.585-3.476a3.338,3.338,0,0,1-2.01-2,2.458,2.458,0,0,0-.657-.827l-.11-.1c-1.709-1.66-3.515-3.259-5.262-4.8s-3.554-3.148-5.25-4.8c-2.933-2.856-6.064-5.591-9.091-8.235q-1.234-1.079-2.467-2.161c-4.671-4.115-9.723-8.638-15.9-14.234-7.746-7.02-16.015-14.4-25.279-22.573-3.577-3.154-7.171-6.41-10.647-9.56q-2.072-1.877-4.147-3.752l-1.152-1.043c-1.335-1.21-2.672-2.419-4.036-3.6a3.32,3.32,0,0,0-2.689-.8,3.222,3.222,0,0,0-2.249,1.521c-.027.044-.063.077-.091.119l.486-.839.462-.91a5.367,5.367,0,0,0-1.915-.668c-1.639-.182-3.273-.4-4.908-.615-1.811-.24-3.686-.488-5.541-.686-3.783-.4-7.622-.915-11.333-1.413l-3.2-.427c-5.312-.7-10.628-1.363-15.945-2.025L90.4,7.125q-3.581-.446-7.167-.871-2.535-.3-5.071-.612L76.7,5.462q-5.965-.731-11.925-1.48-3.592-.458-7.183-.938-3.174-.42-6.349-.832l-2.61-.337C44.5,1.341,40.226.789,36.011.323,35.768.3,35.519.244,35.27.193a4.315,4.315,0,0,0-3.031.175,2.079,2.079,0,0,1-2.227-.16A1.015,1.015,0,0,0,28.863.3l-1.55.382a22.8,22.8,0,0,0-3.06,4.269c-.345.572-.69,1.144-1.056,1.7-2.246,3.418-4.482,6.917-6.645,10.3q-1.778,2.783-3.564,5.561L9.653,27.685q-4.064,6.288-8.094,12.6c-.183.287-.383.576-.582.853a3.751,3.751,0,0,0-.946,2.733,4.027,4.027,0,0,0,1.89,2.416,1.015,1.015,0,0,0,1.048.084c1.467-.726,3.091-.535,4.81-.334.624.073,1.248.146,1.869.179,4.215.225,8.5.556,12.644.877l1.2.093c1.641.126,3.279.276,4.917.425,1.659.152,3.318.3,4.98.431s3.316.235,4.976.341c2.91.186,5.919.379,8.854.692,1.762.189,3.549.323,5.278.454,1.5.113,3,.227,4.5.374,1.6.158,3.209.28,4.816.4,1.563.12,3.127.238,4.687.39,1.275.125,2.553.207,3.832.29,2.11.137,4.29.279,6.4.619a6.341,6.341,0,0,0,1.436.07,5.36,5.36,0,0,0,2.034-.54,5.48,5.48,0,0,0,1.213.612l.236.092a15.261,15.261,0,0,1,3.337,2.08l.681.506q5.338,3.9,10.629,7.871l22.311,16.585c.128.1.26.188.392.281.828.575.962.754.9,1.2a1.022,1.022,0,0,0,1.082,1.16.967.967,0,0,0,.241-.058c.382.1.4.157.426.306a50.232,50.232,0,0,0,2.758,8.788c.442,1.151.885,2.3,1.289,3.467,1.856,5.336,3.755,10.656,5.653,15.976l1.11,3.113q.949,2.664,1.911,5.322,1.251,3.473,2.485,6.953-.506,2.316-1.025,4.628c-.653,2.918-1.327,5.934-1.935,8.922-.423,2.082-.877,4.157-1.33,6.232-.883,4.032-1.8,8.2-2.459,12.378a11.5,11.5,0,0,1-.388,1.5c-.083.27-.165.539-.239.81a1.234,1.234,0,0,0,.752,1.5h.007l0,.205c.074,0,.125,0,.168,0A55.081,55.081,0,0,0,138.528,166c.972.461,1.942.921,2.9,1.4q3.086,1.546,6.165,3.109c3.864,1.955,7.859,3.977,11.819,5.911,2.591,1.265,5.168,2.557,7.745,3.849,3.424,1.716,6.963,3.492,10.48,5.174a38.022,38.022,0,0,1,3.87,2.111,3.416,3.416,0,0,1,1.113.947,5.535,5.535,0,0,1-2.914-.248c-4.678-1.546-9.476-2.968-14.115-4.343l-3.887-1.156q-4.829-1.445-9.667-2.864-3.445-1.015-6.886-2.035-8.214-2.44-16.419-4.9l-.129-.039a4.941,4.941,0,0,0-3.237-.186,3.273,3.273,0,0,0-4.012.9c-5.1,5.041-10.433,10.156-16.295,15.639-3.382,3.163-6.741,6.453-9.992,9.633l-1.792,1.753c-1.11,1.084-2.244,2.141-3.378,3.2-1.685,1.571-3.429,3.2-5.068,4.894l-.291.3a6.029,6.029,0,0,0-1.946,3.149.963.963,0,0,0,0,.18c-.013.029-.037.048-.048.078a4.5,4.5,0,0,0-.326,2.162c.105.8.222,1.606.338,2.408.268,1.848.545,3.759.675,5.63.157,2.249.406,4.514.647,6.7q.143,1.292.279,2.587c.37,3.565.781,7.126,1.19,10.688q.333,2.893.66,5.789c.058.526.1,1.057.139,1.588.069.909.14,1.85.305,2.785.489,2.765.757,5.626,1.017,8.392.224,2.391.456,4.864.831,7.3a7.182,7.182,0,0,0,3.277,5.194c1.744,1.145,3.576,2.187,5.348,3.2q1.064.6,2.122,1.217,2.857,1.664,5.709,3.336c4.44,2.6,9.033,5.285,13.58,7.879,9.88,5.633,18.748,10.751,27.11,15.649.268.157.534.32.8.484a10.52,10.52,0,0,0,5.215,1.979c.033,0,.066,0,.1,0a1.024,1.024,0,0,0,.767-.431,4.111,4.111,0,0,1,1.4-1.055,6.644,6.644,0,0,0,1.959-1.488c1.157-1.393,2.455-2.732,3.711-4.026q.674-.7,1.344-1.395l8.032-8.438q6.432-6.752,12.856-13.512,3.88-4.089,7.741-8.194,3.586-3.805,7.179-7.6,2.34-2.467,4.7-4.917c2.263-2.355,4.525-4.711,6.756-7.1,4.622-4.939,9.429-10.033,14.291-15.14s9.736-10.236,14.6-15.358a3.919,3.919,0,0,0,1.131-2.359,2.808,2.808,0,0,1,.529-1.351c.015-.022.027-.047.041-.07.014.023.026.048.04.07a2.8,2.8,0,0,1,.53,1.351,3.919,3.919,0,0,0,1.131,2.359q7.3,7.683,14.6,15.358c4.862,5.107,9.669,10.2,14.291,15.14,2.231,2.385,4.493,4.741,6.755,7.1q2.357,2.455,4.7,4.917,3.6,3.793,7.178,7.6,3.867,4.1,7.741,8.194,6.42,6.763,12.856,13.512l8.033,8.438c.444.466.894.931,1.344,1.395,1.256,1.294,2.554,2.634,3.71,4.026a6.671,6.671,0,0,0,1.959,1.488,4.106,4.106,0,0,1,1.4,1.055,1.022,1.022,0,0,0,.767.431c.032,0,.065,0,.1,0a10.524,10.524,0,0,0,5.215-1.979c.268-.164.535-.327.8-.484,8.363-4.9,17.232-10.017,27.11-15.649,4.549-2.594,9.141-5.28,13.581-7.879q2.854-1.67,5.709-3.336,1.056-.615,2.122-1.217c1.772-1.009,3.6-2.052,5.349-3.2a7.185,7.185,0,0,0,3.276-5.194c.374-2.432.607-4.905.831-7.3.26-2.766.527-5.627,1.017-8.392.165-.935.236-1.876.305-2.785.04-.53.08-1.062.139-1.588q.325-2.895.66-5.789c.41-3.562.819-7.123,1.19-10.688.089-.863.184-1.726.279-2.587.241-2.189.489-4.455.647-6.7.131-1.872.408-3.782.674-5.63.116-.8.234-1.605.339-2.408a4.486,4.486,0,0,0-.327-2.162.865.865,0,0,0-.047-.078,1.06,1.06,0,0,0,0-.18,6.024,6.024,0,0,0-1.947-3.149l-.291-.3c-1.638-1.7-3.382-3.322-5.066-4.894-1.134-1.056-2.269-2.114-3.379-3.2l-1.791-1.753c-3.251-3.18-6.611-6.47-9.992-9.633-5.861-5.482-11.191-10.6-16.295-15.639a3.273,3.273,0,0,0-4.012-.9,4.941,4.941,0,0,0-3.237.186l-.129.039q-8.205,2.467-16.42,4.9-3.44,1.022-6.885,2.035-4.835,1.425-9.667,2.864l-3.887,1.156c-4.64,1.375-9.438,2.8-14.115,4.343a5.535,5.535,0,0,1-2.914.248,3.416,3.416,0,0,1,1.113-.947,38.109,38.109,0,0,1,3.869-2.111c3.519-1.682,7.058-3.457,10.481-5.174,2.578-1.291,5.154-2.584,7.745-3.849,3.96-1.934,7.955-3.956,11.819-5.911q3.08-1.559,6.165-3.109c.958-.48,1.929-.94,2.9-1.4a55.082,55.082,0,0,0,8.125-4.436c.042,0,.094,0,.167,0l0-.205h.007a1.234,1.234,0,0,0,.752-1.5c-.075-.271-.156-.54-.239-.81a11.5,11.5,0,0,1-.388-1.5c-.664-4.178-1.576-8.346-2.459-12.378-.454-2.075-.908-4.15-1.33-6.232-.608-2.988-1.282-6-1.935-8.922q-.518-2.313-1.025-4.628,1.229-3.48,2.485-6.953.958-2.659,1.911-5.322l1.11-3.113c1.9-5.32,3.8-10.64,5.653-15.976.4-1.163.847-2.315,1.288-3.467a50.149,50.149,0,0,0,2.759-8.788c.028-.149.044-.208.426-.306a.967.967,0,0,0,.241.058,1.022,1.022,0,0,0,1.082-1.16c-.061-.443.074-.622.9-1.2.133-.093.265-.186.392-.281l22.31-16.585q5.3-3.951,10.629-7.871l.682-.506a15.26,15.26,0,0,1,3.337-2.08l.236-.092a5.48,5.48,0,0,0,1.213-.612,5.355,5.355,0,0,0,2.033.54,6.35,6.35,0,0,0,1.438-.07c2.108-.34,4.288-.482,6.4-.619,1.278-.083,2.557-.166,3.832-.29,1.56-.152,3.124-.271,4.687-.39,1.606-.123,3.213-.244,4.816-.4,1.5-.147,3-.261,4.5-.374,1.729-.131,3.516-.265,5.278-.454,2.935-.313,5.943-.506,8.854-.692,1.659-.106,3.318-.214,4.976-.341s3.32-.279,4.98-.431c1.639-.149,3.277-.3,4.917-.425l1.2-.093c4.144-.321,8.429-.652,12.643-.877.621-.033,1.245-.106,1.87-.179,1.718-.2,3.343-.392,4.81.334a1.015,1.015,0,0,0,1.048-.084,4.029,4.029,0,0,0,1.889-2.416A3.745,3.745,0,0,0,476.214,41.138ZM77.058,49.586c-2.2-.356-4.434-.5-6.591-.641-1.257-.081-2.513-.162-3.767-.284-1.574-.154-3.152-.275-4.731-.394s-3.183-.242-4.77-.4c-1.515-.149-3.033-.265-4.553-.378-1.712-.13-3.483-.263-5.215-.447-2.977-.318-6.007-.512-8.939-.7-1.65-.106-3.3-.211-4.949-.339s-3.3-.278-4.952-.429-3.295-.3-4.944-.428l-1.2-.092c-4.156-.322-8.453-.654-12.692-.88-.579-.031-1.16-.1-1.74-.169a10.944,10.944,0,0,0-5.36.273c-.458-.378-.59-.606-.61-.736-.026-.15.056-.482.582-1.207.225-.311.45-.634.654-.957q4.009-6.314,8.084-12.586l3.339-5.173q1.788-2.778,3.567-5.567c2.16-3.38,4.393-6.873,6.631-10.279.38-.578.74-1.173,1.1-1.766A19.784,19.784,0,0,1,28.948,1.94c.015.01.025.028.042.037a5.34,5.34,0,0,0,1.3.545,6.229,6.229,0,0,0,2.083,3.034q3.565,3.315,7.123,6.635c6.18,5.763,12.573,11.722,18.912,17.529,2.426,2.223,4.856,4.529,7.207,6.76,3.7,3.508,7.52,7.136,11.44,10.548a7.622,7.622,0,0,1,1.988,2.322c.01.019.026.033.036.051A3.815,3.815,0,0,1,77.058,49.586Zm4.069-.532a1,1,0,0,0-.221-.518c-.011-.028-.009-.056-.022-.084A9.618,9.618,0,0,0,78.4,45.486C74.514,42.1,70.707,38.492,67.026,35c-2.356-2.236-4.794-4.55-7.232-6.785-6.333-5.8-12.721-11.756-18.9-17.517q-3.56-3.319-7.124-6.636a5.741,5.741,0,0,1-1.328-1.58,4.486,4.486,0,0,0,.745-.3,2.52,2.52,0,0,1,1.678.017c.311.063.619.125.924.158,4.2.464,8.457,1.015,12.578,1.548l2.612.336q3.172.409,6.342.832,3.6.475,7.193.939,5.965.76,11.935,1.481l1.467.18q2.538.311,5.076.613,3.58.431,7.158.87l.554.069c5.312.661,10.624,1.322,15.931,2.023l3.2.426c3.725.5,7.579,1.017,11.391,1.42,1.828.194,3.688.44,5.486.679,1.649.219,3.3.436,4.95.62a3.385,3.385,0,0,1,1.16.43A3.815,3.815,0,0,1,131.8,15.85c-1.228.839-2.447,1.692-3.665,2.545-1.139.8-2.278,1.6-3.426,2.383q-3.908,2.674-7.824,5.337-5.01,3.413-10.012,6.838l-1.717,1.181c-5.818,3.995-11.833,8.127-17.693,12.274-.427.3-.881.571-1.336.842a9.79,9.79,0,0,0-3.4,2.838c-.1-.046-.2-.1-.308-.145l-.27-.105C81.339,49.527,81.158,49.387,81.127,49.054Zm38.7,28.187L97.519,60.657c-3.54-2.638-7.08-5.276-10.643-7.882l-.664-.493c-.538-.4-1.087-.807-1.664-1.188a8.441,8.441,0,0,1,2.622-2.086c.486-.29.99-.59,1.47-.93,5.849-4.14,11.86-8.267,17.671-12.259l1.717-1.18q4.994-3.43,10.005-6.833,3.917-2.668,7.829-5.341c1.153-.79,2.3-1.592,3.444-2.395,1.211-.849,2.422-1.7,3.644-2.531a5.875,5.875,0,0,0,1.733-1.813,1.169,1.169,0,0,1,.82-.568,1.285,1.285,0,0,1,1.038.327c1.353,1.166,2.676,2.364,4,3.564l1.156,1.045q2.074,1.873,4.143,3.749c3.482,3.154,7.081,6.415,10.667,9.578,9.258,8.163,17.52,15.541,25.258,22.555,6.183,5.6,11.242,10.131,15.92,14.252q1.235,1.087,2.475,2.167c3.006,2.627,6.115,5.342,9.009,8.16,1.731,1.684,3.556,3.3,5.322,4.862,1.728,1.531,3.517,3.114,5.193,4.743l.158.147a2.065,2.065,0,0,1,.182.177,6.465,6.465,0,0,0,.429.792,2.613,2.613,0,0,1-1.572.3c-2.843-.516-5.742-.864-8.544-1.2-1.725-.207-3.449-.415-5.17-.66-2.268-.324-4.577-.6-6.809-.875-2.921-.354-5.942-.719-8.888-1.188-3.272-.52-6.6-.907-9.825-1.282-2.244-.262-4.565-.531-6.837-.843-3.834-.526-7.716-1.007-11.469-1.472-2.362-.292-4.72-.628-7.077-.964-1.98-.282-3.961-.565-5.945-.822l-2.395-.311c-5.34-.695-10.862-1.413-16.313-1.983-.572-.06-1.151-.171-1.764-.288a9.752,9.752,0,0,0-5.363.045,3.189,3.189,0,0,0-.613-.248,3.74,3.74,0,0,0-1.7-2C120.054,77.4,119.94,77.323,119.828,77.241ZM134.382,112.4l-1.111-3.114c-1.9-5.316-3.792-10.63-5.648-15.96-.412-1.184-.861-2.357-1.31-3.53a49.019,49.019,0,0,1-2.63-8.308,9.1,9.1,0,0,1,3.776.2c.627.12,1.277.243,1.935.313,5.426.568,10.935,1.284,16.262,1.977l2.4.312c1.976.255,3.948.537,5.92.817,2.369.338,4.74.676,7.115.971,3.746.464,7.621.944,11.442,1.469,2.293.315,4.624.585,6.879.847,3.2.373,6.51.758,9.741,1.272,2.982.474,6.023.842,8.963,1.2,2.221.269,4.519.547,6.766.868,1.735.247,3.476.457,5.216.665,2.773.334,5.64.677,8.422,1.183a3.944,3.944,0,0,0,.967.053,5.73,5.73,0,0,0,2.4-.805,5.48,5.48,0,0,0,1.287.7c.4.147.377.716.289,1.167-1.273,6.505-2.643,13.243-4.071,20.028-.853,4.053-1.67,8.115-2.486,12.175-.823,4.1-1.648,8.195-2.509,12.284-.168.8-.314,1.605-.46,2.411a33.437,33.437,0,0,1-1.3,5.465,5.509,5.509,0,0,0-.27,1.119A21.259,21.259,0,0,1,208,147.016c-.6-.208-1.2-.416-1.8-.6q-1.767-.549-3.539-1.085c-3.261-.994-6.634-2.023-9.906-3.153-4.54-1.568-9.294-3.054-14.534-4.543-3.019-.858-6.062-1.839-9-2.788-2.378-.766-4.838-1.559-7.278-2.286s-4.928-1.515-7.325-2.276c-2.255-.716-4.509-1.431-6.774-2.113-.891-.267-1.775-.561-2.657-.853a47.113,47.113,0,0,0-6.064-1.7l-.012-.033.025-.112-.072-.018c-.908-2.582-1.837-5.157-2.765-7.734Q135.333,115.062,134.382,112.4ZM178.519,183.6c-3.5-1.675-7.032-3.444-10.447-5.156-2.583-1.3-5.167-2.591-7.763-3.859-3.948-1.928-7.936-3.947-11.8-5.9q-3.083-1.56-6.17-3.113c-.973-.487-1.956-.953-2.94-1.42a54.863,54.863,0,0,1-7.633-4.142c.019-.061.036-.124.055-.186a13.5,13.5,0,0,0,.467-1.846c.653-4.1,1.557-8.237,2.432-12.233.457-2.087.913-4.175,1.339-6.27.6-2.963,1.274-5.967,1.924-8.872.224-1,.442-2,.664-3a44.847,44.847,0,0,1,5.881,1.649c.9.3,1.8.6,2.713.871,2.255.678,4.5,1.391,6.744,2.1,2.406.764,4.895,1.554,7.36,2.289,2.42.719,4.867,1.509,7.234,2.272,2.96.954,6.021,1.94,9.074,2.809,5.2,1.478,9.92,2.954,14.425,4.51,3.307,1.142,6.7,2.176,9.978,3.175q1.765.538,3.529,1.082c.581.18,1.159.38,1.737.58a21.651,21.651,0,0,0,5.156,1.3,12.33,12.33,0,0,0,.627,1.773c1.74,4.173,3.45,8.357,5.16,12.543q2.234,5.465,4.486,10.922,4.352,10.489,8.76,20.952l3.245,7.735c.288.688.585,1.371.883,2.055.569,1.3,1.158,2.655,1.656,4a3.882,3.882,0,0,1,.183,2.147,1.007,1.007,0,0,0-.5-.518,3.179,3.179,0,0,1-.592-.4,5.16,5.16,0,0,0-.987-.65l-2.091-.994c-3.154-1.5-6.414-3.054-9.679-4.479l-.976-.425c-2.5-1.086-5.077-2.21-7.526-3.457-3.744-1.91-7.628-3.659-11.381-5.352q-1.724-.777-3.447-1.559c-4.367-1.991-8.913-3.72-13.308-5.391l-1.451-.553c-.553-.209-.793-.377-.89-.614a4.673,4.673,0,0,0-2.058-2.155A39.845,39.845,0,0,0,178.519,183.6Zm-50.509-8.732.131.04q8.211,2.467,16.429,4.907,3.442,1.022,6.888,2.036,4.832,1.424,9.66,2.861l3.892,1.158c4.626,1.371,9.409,2.788,14.056,4.324a7.368,7.368,0,0,0,5.07,0,5.817,5.817,0,0,0,.679.311l1.453.553c4.366,1.66,8.88,3.378,13.187,5.341q1.726.786,3.455,1.563c3.732,1.682,7.591,3.421,11.294,5.309,2.5,1.275,5.114,2.412,7.638,3.51l.975.424c3.234,1.412,6.478,2.957,9.617,4.45l2.094,1a3.44,3.44,0,0,1,.6.412,4.916,4.916,0,0,0,1.008.656.967.967,0,0,0,.83,0c-.044.077-.083.153-.132.23-.075.115-.145.238-.217.361a33.355,33.355,0,0,0-8.037,1.635l-.833.243c-2.6.751-5.266,1.445-7.845,2.115q-1.525.4-3.048.8l-4.916,1.3q-7.583,2-15.17,3.994c-2.135.558-4.275,1.1-6.413,1.646-3.017.766-6.033,1.534-9.039,2.339-2.439.654-4.871,1.336-7.3,2.018-3.807,1.067-7.743,2.171-11.637,3.14-.981.245-1.959.506-2.936.768-1.848.494-3.761,1.006-5.655,1.381a7.017,7.017,0,0,0-1.04-4.269c-.1-.2-.2-.4-.3-.607q-3.368-7.142-6.677-14.315-2.766-5.966-5.551-11.923-1.657-3.528-3.327-7.05c-2.353-4.977-4.787-10.123-7.109-15.215-.439-.964-.893-1.925-1.348-2.884-.556-1.176-1.112-2.353-1.643-3.542a6.363,6.363,0,0,1-.41-1.3A4.223,4.223,0,0,1,128.011,174.865ZM85.993,210.475l.308-.315c1.6-1.657,3.324-3.263,4.99-4.817,1.145-1.068,2.292-2.136,3.412-3.232l1.792-1.754c3.243-3.172,6.6-6.454,9.959-9.6,5.876-5.5,11.219-10.624,16.335-15.677.767-.757,1.127-.786,1.49-.619a8.076,8.076,0,0,0,.65,2.247c.537,1.2,1.1,2.392,1.662,3.582.45.951.9,1.9,1.334,2.859,2.328,5.105,4.765,10.258,7.122,15.24q1.664,3.52,3.322,7.043,2.791,5.951,5.548,11.916,3.326,7.171,6.683,14.326c.1.217.209.432.318.649a6.274,6.274,0,0,1,.867,2.583c-7.087-2.625-14.32-5.12-21.33-7.531l-1.929-.664q-10.34-3.557-20.659-7.172c-1.3-.455-2.594-.936-3.885-1.416-1.943-.721-3.952-1.468-5.968-2.118-1.628-.526-3.244-1.086-4.858-1.644-2.674-.926-5.427-1.877-8.21-2.665A7.16,7.16,0,0,1,85.993,210.475Zm2.471,41.955c-.148-.836-.213-1.685-.281-2.584-.042-.556-.084-1.11-.146-1.661q-.323-2.9-.66-5.795c-.41-3.553-.818-7.108-1.188-10.666-.09-.865-.185-1.732-.28-2.6-.239-2.17-.485-4.414-.64-6.622-.136-1.947-.418-3.9-.692-5.782-.115-.794-.23-1.587-.334-2.382a1.855,1.855,0,0,1,.067-.691c2.754.775,5.506,1.717,8.176,2.641,1.628.563,3.257,1.127,4.9,1.656,1.974.638,3.961,1.376,5.884,2.09,1.3.484,2.608.97,3.922,1.429q10.325,3.615,20.67,7.175l1.929.664c6.982,2.4,14.184,4.886,21.234,7.495a11.5,11.5,0,0,1-3.381,2.183c-.486.237-.971.474-1.444.732q-3.942,2.149-7.872,4.311c-5.447,2.99-11.08,6.083-16.661,9.039-2.928,1.55-5.88,3.166-8.735,4.729-4.178,2.285-8.5,4.65-12.808,6.846-1.365.695-2.722,1.448-4.034,2.175s-2.653,1.472-4,2.157a6.125,6.125,0,0,0-1.279.885,6.126,6.126,0,0,1-.5-1.7c-.365-2.372-.594-4.814-.815-7.176C89.239,258.181,88.967,255.278,88.465,252.431Zm58.852,51.258c-.28-.172-.558-.342-.838-.506-8.371-4.9-17.244-10.025-27.132-15.661-4.537-2.588-9.125-5.271-13.561-7.868q-2.855-1.669-5.712-3.337c-.709-.414-1.424-.82-2.138-1.227-1.745-.993-3.549-2.02-5.238-3.129a6.194,6.194,0,0,1-.62-.47,4.174,4.174,0,0,1,.945-.7c1.374-.7,2.739-1.457,4.058-2.189,1.3-.719,2.637-1.462,3.969-2.142,4.339-2.209,8.672-4.58,12.862-6.874,2.849-1.559,5.795-3.172,8.711-4.716,5.6-2.963,11.234-6.059,16.689-9.053q3.929-2.159,7.866-4.307c.445-.244.905-.467,1.363-.69a12.842,12.842,0,0,0,4.088-2.721,8.6,8.6,0,0,1,.3,3.78c-.036.567-.071,1.134-.069,1.7.007,2.509-.137,5.076-.276,7.557l-.039.7c-.138,2.464-.214,4.964-.287,7.384-.077,2.534-.157,5.153-.307,7.721-.053.919-.065,1.844-.077,2.772-.013,1.019-.027,2.072-.1,3.089-.1,1.431-.135,2.874-.164,4.271-.034,1.581-.068,3.216-.211,4.806-.116,1.292-.115,2.594-.114,3.853,0,.779,0,1.556-.027,2.332-.045,1.29-.106,2.582-.17,3.873-.085,1.784-.171,3.569-.213,5.356l-.029,1.466c-.026,1.477-.052,3-.174,4.493a3.558,3.558,0,0,0,.536,1.9l.009.02c-.057.052-.116.1-.171.155A9.757,9.757,0,0,1,147.316,303.688Zm73.5-70.984c-4.865,5.111-9.677,10.21-14.3,15.152-2.226,2.378-4.482,4.728-6.738,7.078q-2.36,2.457-4.71,4.924-3.6,3.8-7.184,7.607-3.862,4.1-7.735,8.189-6.42,6.763-12.853,13.509l-8.034,8.438c-.44.464-.885.923-1.33,1.382-1.283,1.323-2.609,2.691-3.815,4.144a4.28,4.28,0,0,1-1.184.893,1.745,1.745,0,0,1-.217-.6c.126-1.554.153-3.115.18-4.626l.028-1.452c.042-1.77.127-3.538.212-5.307.062-1.3.125-2.6.171-3.9.028-.8.028-1.6.028-2.4,0-1.269,0-2.467.106-3.669.149-1.659.184-3.33.22-4.946.03-1.37.059-2.786.159-4.165.079-1.078.093-2.163.105-3.212.011-.895.022-1.789.075-2.677.151-2.6.231-5.231.309-7.778.073-2.407.148-4.895.284-7.333l.039-.7c.141-2.511.287-5.107.28-7.676,0-.518.033-1.04.066-1.563a10.872,10.872,0,0,0-.36-4.426c1.814-.376,3.616-.848,5.358-1.314.966-.258,1.932-.517,2.9-.759,3.922-.977,7.874-2.085,11.694-3.156,2.425-.679,4.85-1.359,7.283-2.011,3-.8,6-1.567,9.011-2.332,2.143-.546,4.287-1.089,6.427-1.648q7.592-1.983,15.175-4l4.916-1.3q1.517-.4,3.039-.794c2.594-.674,5.275-1.371,7.9-2.131l.838-.243a34.641,34.641,0,0,1,6.805-1.516,2.052,2.052,0,0,1-.547.964Q228.116,225.031,220.814,232.7Zm102.265,70.424c-1.206-1.453-2.533-2.821-3.815-4.144-.445-.46-.891-.918-1.33-1.382l-8.034-8.438q-6.43-6.751-12.853-13.509-3.877-4.086-7.736-8.189-3.588-3.808-7.184-7.607-2.343-2.472-4.709-4.924c-2.257-2.35-4.513-4.7-6.738-7.078-4.625-4.943-9.437-10.041-14.3-15.152s-9.735-10.234-14.6-15.356a2.064,2.064,0,0,1-.548-.964,34.624,34.624,0,0,1,6.805,1.516l.839.243c2.624.76,5.3,1.457,7.9,2.131q1.52.4,3.039.794l4.916,1.3q7.586,2.006,15.175,4c2.139.559,4.283,1.1,6.427,1.648,3.007.765,6.015,1.529,9.011,2.332,2.433.652,4.857,1.331,7.283,2.011,3.82,1.071,7.772,2.179,11.693,3.156.972.242,1.937.5,2.9.759,1.742.466,3.543.938,5.358,1.314a10.872,10.872,0,0,0-.36,4.426c.034.523.067,1.045.065,1.563-.006,2.568.139,5.165.281,7.676l.039.7c.135,2.438.211,4.926.284,7.333.077,2.547.157,5.182.309,7.778.052.888.063,1.782.075,2.677.012,1.049.026,2.134.105,3.212.1,1.379.13,2.8.159,4.165.035,1.616.07,3.287.22,4.946.108,1.2.107,2.4.106,3.669,0,.8,0,1.605.028,2.4.046,1.3.108,2.6.17,3.9.085,1.769.17,3.537.211,5.307l.029,1.452c.026,1.511.053,3.072.18,4.626a1.745,1.745,0,0,1-.217.6A4.265,4.265,0,0,1,323.079,303.128Zm56.176-28.039c-.714.407-1.429.813-2.139,1.227q-2.858,1.666-5.711,3.337c-4.436,2.6-9.023,5.28-13.561,7.868-9.888,5.637-18.761,10.759-27.132,15.661-.28.163-.558.334-.838.506a9.757,9.757,0,0,1-3.732,1.641c-.054-.057-.113-.1-.171-.155l.009-.02a3.558,3.558,0,0,0,.536-1.9c-.122-1.489-.149-3.016-.174-4.493l-.029-1.466c-.043-1.787-.128-3.572-.212-5.356-.063-1.291-.125-2.583-.17-3.873-.028-.776-.028-1.554-.027-2.332,0-1.259,0-2.56-.114-3.853-.143-1.59-.178-3.225-.211-4.806-.031-1.4-.06-2.839-.166-4.271-.074-1.017-.087-2.07-.1-3.089-.011-.928-.023-1.852-.077-2.772-.15-2.567-.23-5.187-.307-7.721-.074-2.419-.149-4.919-.287-7.384l-.039-.7c-.139-2.482-.283-5.048-.276-7.557,0-.562-.034-1.129-.069-1.7a8.59,8.59,0,0,1,.3-3.781,12.829,12.829,0,0,0,4.088,2.722c.458.223.917.445,1.363.69q3.939,2.144,7.866,4.307c5.455,2.995,11.093,6.09,16.688,9.053,2.917,1.544,5.862,3.157,8.712,4.716,4.19,2.294,8.523,4.665,12.861,6.874,1.333.68,2.673,1.423,3.97,2.142,1.319.733,2.684,1.49,4.058,2.189a4.191,4.191,0,0,1,.944.7,6.2,6.2,0,0,1-.62.47C382.8,273.069,381,274.1,379.254,275.089Zm13.624-61.439a1.878,1.878,0,0,1,.067.691c-.1.795-.22,1.588-.334,2.382-.274,1.885-.556,3.834-.693,5.782-.153,2.208-.4,4.451-.639,6.622-.1.866-.19,1.733-.28,2.6-.37,3.559-.78,7.113-1.188,10.666q-.334,2.9-.66,5.795c-.062.552-.1,1.105-.146,1.661-.068.9-.133,1.748-.281,2.584-.5,2.847-.775,5.75-1.038,8.557-.222,2.362-.452,4.8-.815,7.176a6.163,6.163,0,0,1-.5,1.7,6.127,6.127,0,0,0-1.279-.885c-1.344-.685-2.692-1.432-4-2.157s-2.669-1.48-4.034-2.175c-4.31-2.2-8.631-4.561-12.808-6.846-2.856-1.563-5.807-3.179-8.735-4.729-5.581-2.956-11.215-6.048-16.661-9.039q-3.934-2.161-7.872-4.311c-.473-.257-.958-.494-1.444-.732a11.5,11.5,0,0,1-3.381-2.183c7.05-2.609,14.251-5.093,21.233-7.495l1.929-.664q10.346-3.56,20.67-7.175c1.314-.46,2.618-.945,3.922-1.429,1.923-.714,3.91-1.453,5.883-2.09,1.642-.529,3.271-1.093,4.9-1.656C387.373,215.368,390.124,214.426,392.878,213.651ZM354.4,175.08c5.116,5.052,10.459,10.18,16.335,15.677,3.363,3.147,6.716,6.428,9.959,9.6l1.792,1.754c1.121,1.1,2.267,2.164,3.412,3.232,1.666,1.554,3.389,3.16,4.99,4.817l.306.315a7.167,7.167,0,0,1,1.048,1.221c-2.783.788-5.536,1.739-8.21,2.665-1.614.558-3.231,1.118-4.858,1.644-2.016.65-4.024,1.4-5.968,2.118-1.292.48-2.585.961-3.885,1.416q-10.318,3.615-20.659,7.172l-1.929.664c-7.011,2.411-14.243,4.906-21.33,7.531a6.274,6.274,0,0,1,.867-2.583c.107-.217.217-.432.318-.649q3.372-7.148,6.683-14.326,2.765-5.963,5.548-11.916,1.654-3.525,3.322-7.043c2.357-4.983,4.794-10.135,7.121-15.24.436-.957.886-1.907,1.335-2.859.563-1.19,1.125-2.379,1.662-3.582a8.11,8.11,0,0,0,.65-2.247C353.274,174.295,353.634,174.323,354.4,175.08Zm-56.278,15.11c4.649-1.536,9.431-2.953,14.056-4.324l3.893-1.158q4.826-1.444,9.66-2.861,3.445-1.018,6.888-2.036,8.217-2.441,16.429-4.907l.131-.04a4.223,4.223,0,0,1,1.627-.286,6.308,6.308,0,0,1-.411,1.3c-.53,1.189-1.087,2.366-1.642,3.542-.455.959-.908,1.92-1.348,2.884-2.322,5.092-4.756,10.238-7.11,15.215q-1.666,3.523-3.326,7.05-2.792,5.954-5.551,11.923-3.324,7.165-6.678,14.315c-.1.2-.2.4-.3.607a7.01,7.01,0,0,0-1.04,4.269c-1.9-.375-3.807-.887-5.655-1.381-.978-.263-1.956-.523-2.937-.768-3.893-.969-7.83-2.073-11.636-3.14-2.433-.681-4.865-1.364-7.3-2.018-3.007-.805-6.022-1.572-9.039-2.339-2.138-.545-4.278-1.088-6.414-1.646q-7.587-1.982-15.169-3.994l-4.916-1.3q-1.522-.4-3.048-.8c-2.58-.67-5.248-1.364-7.845-2.115l-.833-.243a33.373,33.373,0,0,0-8.038-1.635c-.07-.123-.142-.245-.216-.361-.049-.077-.088-.153-.132-.23a.965.965,0,0,0,.829,0,4.925,4.925,0,0,0,1.009-.656,3.436,3.436,0,0,1,.6-.412l2.094-1c3.14-1.494,6.384-3.038,9.618-4.45l.975-.424c2.525-1.1,5.134-2.235,7.638-3.51,3.7-1.888,7.561-3.627,11.294-5.309q1.729-.779,3.454-1.563c4.307-1.964,8.822-3.681,13.188-5.341l1.453-.553a5.818,5.818,0,0,0,.679-.311A7.365,7.365,0,0,0,298.123,190.19Zm44.341-44.446c.876,4,1.78,8.128,2.433,12.233a13.5,13.5,0,0,0,.467,1.846c.018.062.036.125.055.186a54.921,54.921,0,0,1-7.633,4.142c-.985.467-1.968.933-2.94,1.42q-3.089,1.548-6.17,3.113c-3.859,1.951-7.848,3.97-11.8,5.9-2.6,1.268-5.18,2.563-7.763,3.859-3.414,1.712-6.945,3.482-10.447,5.156a39.975,39.975,0,0,0-4.078,2.224,4.672,4.672,0,0,0-2.057,2.155c-.1.237-.338.4-.89.614l-1.451.553c-4.4,1.671-8.942,3.4-13.308,5.391q-1.723.785-3.447,1.559c-3.754,1.693-7.637,3.442-11.383,5.352-2.448,1.247-5.029,2.371-7.526,3.457l-.975.425c-3.265,1.425-6.525,2.978-9.679,4.479l-2.092.994a5.184,5.184,0,0,0-.986.65,3.178,3.178,0,0,1-.592.4,1.007,1.007,0,0,0-.5.518,3.882,3.882,0,0,1,.183-2.147c.5-1.341,1.087-2.692,1.655-4,.3-.683.6-1.367.884-2.055l3.245-7.735q4.392-10.469,8.76-20.952,2.262-5.453,4.486-10.922c1.71-4.186,3.421-8.371,5.16-12.543a12.326,12.326,0,0,0,.627-1.773,21.664,21.664,0,0,0,5.156-1.3c.578-.2,1.156-.4,1.736-.58q1.764-.546,3.53-1.082c3.28-1,6.671-2.033,9.978-3.175,4.5-1.556,9.223-3.031,14.425-4.51,3.053-.868,6.114-1.854,9.074-2.809,2.367-.763,4.814-1.553,7.234-2.272,2.464-.735,4.953-1.524,7.36-2.289,2.245-.712,4.489-1.424,6.744-2.1.908-.274,1.81-.572,2.713-.871a44.846,44.846,0,0,1,5.881-1.649q.331,1.5.663,3c.651,2.906,1.323,5.909,1.925,8.872C341.551,141.569,342.008,143.657,342.464,145.744ZM350.876,89.8c-.449,1.173-.9,2.346-1.311,3.53-1.854,5.33-3.751,10.644-5.647,15.96l-1.111,3.114q-.947,2.659-1.909,5.315c-.928,2.577-1.855,5.152-2.764,7.734l-.072.018.025.112-.012.033a47.067,47.067,0,0,0-6.064,1.7c-.884.292-1.767.586-2.657.853-2.265.681-4.52,1.4-6.775,2.113-2.4.761-4.876,1.548-7.324,2.276s-4.9,1.52-7.278,2.286c-2.943.949-5.986,1.93-9.005,2.788-5.239,1.49-9.993,2.975-14.533,4.543-3.272,1.13-6.645,2.159-9.906,3.153q-1.77.539-3.539,1.085c-.6.186-1.2.393-1.8.6a21.258,21.258,0,0,1-4.371,1.164,5.513,5.513,0,0,0-.271-1.119,33.441,33.441,0,0,1-1.3-5.465c-.146-.806-.292-1.612-.46-2.411-.862-4.089-1.686-8.186-2.509-12.284-.815-4.06-1.633-8.122-2.486-12.175-1.428-6.785-2.8-13.523-4.071-20.028-.088-.451-.109-1.02.288-1.167a5.466,5.466,0,0,0,1.288-.7,5.725,5.725,0,0,0,2.405.805,3.943,3.943,0,0,0,.966-.053c2.781-.506,5.649-.849,8.422-1.183,1.74-.208,3.481-.418,5.215-.665,2.248-.322,4.545-.6,6.767-.868,2.94-.357,5.981-.724,8.963-1.2,3.231-.514,6.54-.9,9.741-1.272,2.254-.262,4.586-.532,6.879-.847,3.821-.525,7.7-1.005,11.442-1.469,2.375-.294,4.745-.632,7.115-.971,1.971-.28,3.944-.562,5.919-.817l2.4-.312c5.327-.693,10.836-1.409,16.262-1.977.658-.069,1.308-.193,1.934-.313a9.105,9.105,0,0,1,3.776-.2A49.022,49.022,0,0,1,350.876,89.8Zm40.1-37.518-.664.493c-3.563,2.606-7.1,5.244-10.643,7.882l-22.31,16.584c-.11.083-.226.162-.34.242a3.738,3.738,0,0,0-1.7,2,3.189,3.189,0,0,0-.613.248,9.752,9.752,0,0,0-5.363-.045c-.613.118-1.192.228-1.764.288-5.451.57-10.973,1.288-16.313,1.983l-2.4.311c-1.984.257-3.964.54-5.944.822-2.357.336-4.715.672-7.077.964-3.754.465-7.635.946-11.47,1.472-2.271.312-4.592.581-6.837.843-3.221.375-6.552.762-9.824,1.282-2.945.469-5.967.835-8.889,1.188-2.231.271-4.54.551-6.808.875-1.721.245-3.445.453-5.171.66-2.8.336-5.7.685-8.543,1.2a2.613,2.613,0,0,1-1.572-.3,6.6,6.6,0,0,0,.429-.792,2.064,2.064,0,0,1,.182-.177l.158-.147c1.677-1.629,3.465-3.211,5.193-4.743,1.765-1.563,3.591-3.178,5.322-4.862,2.894-2.818,6-5.533,9.009-8.16q1.238-1.082,2.473-2.167c4.679-4.121,9.738-8.65,15.921-14.252,7.738-7.014,16-14.391,25.258-22.555,3.586-3.163,7.185-6.424,10.667-9.578q2.07-1.876,4.143-3.749l1.156-1.045c1.324-1.2,2.647-2.4,4-3.564a1.287,1.287,0,0,1,1.039-.327,1.171,1.171,0,0,1,.82.568,5.875,5.875,0,0,0,1.733,1.813c1.222.834,2.434,1.682,3.644,2.531,1.145.8,2.291,1.605,3.444,2.395q3.909,2.677,7.829,5.341,5.007,3.41,10,6.833l1.718,1.18c5.811,3.992,11.821,8.119,17.67,12.259.481.34.985.64,1.471.93a8.453,8.453,0,0,1,2.622,2.086C392.065,51.474,391.516,51.88,390.978,52.281Zm4.063-2.443-.271.105c-.106.044-.2.1-.306.145a9.79,9.79,0,0,0-3.4-2.838c-.456-.271-.909-.54-1.336-.842-5.861-4.147-11.876-8.28-17.693-12.274l-1.718-1.181q-5-3.431-10.011-6.838-3.914-2.665-7.824-5.337c-1.147-.787-2.287-1.585-3.426-2.383-1.218-.853-2.437-1.706-3.665-2.545a3.834,3.834,0,0,1-1.018-1.029,3.4,3.4,0,0,1,1.16-.43c1.653-.184,3.3-.4,4.951-.62,1.8-.239,3.659-.485,5.486-.679,3.812-.4,7.666-.921,11.391-1.42l3.2-.426c5.306-.7,10.619-1.362,15.931-2.023l.554-.069q3.577-.446,7.158-.87,2.538-.3,5.076-.613l1.467-.18q5.969-.729,11.935-1.481,3.6-.458,7.193-.939,3.169-.42,6.342-.832l2.612-.336c4.12-.533,8.382-1.084,12.578-1.548.3-.034.613-.1.924-.158A2.52,2.52,0,0,1,444,2.178a4.485,4.485,0,0,0,.745.3,5.728,5.728,0,0,1-1.329,1.58Q439.855,7.375,436.3,10.7c-6.178,5.76-12.566,11.716-18.9,17.517-2.439,2.235-4.876,4.549-7.232,6.785-3.681,3.494-7.488,7.106-11.375,10.489a9.62,9.62,0,0,0-2.484,2.966c-.012.028-.01.056-.021.084a1,1,0,0,0-.222.518C396.032,49.387,395.85,49.527,395.041,49.838Zm79.491-5.559a10.944,10.944,0,0,0-5.36-.273c-.58.068-1.161.138-1.74.169-4.239.226-8.536.558-12.692.88l-1.2.092c-1.649.128-3.3.278-4.944.428s-3.3.3-4.953.429-3.3.233-4.948.339c-2.931.188-5.961.382-8.94.7-1.731.185-3.5.318-5.215.447-1.518.113-3.036.229-4.552.378-1.588.156-3.179.277-4.77.4s-3.157.24-4.731.394c-1.255.122-2.51.2-3.767.284-2.157.14-4.388.285-6.592.641a3.812,3.812,0,0,1-2.025-.185c.01-.018.026-.032.035-.051a7.636,7.636,0,0,1,1.988-2.322c3.921-3.411,7.744-7.039,11.441-10.548,2.351-2.231,4.78-4.537,7.207-6.76,6.34-5.807,12.731-11.766,18.912-17.529q3.56-3.318,7.123-6.635A6.23,6.23,0,0,0,446.9,2.521a5.34,5.34,0,0,0,1.3-.545c.016-.009.026-.027.042-.037a19.783,19.783,0,0,1,2.945,4.068c.359.594.717,1.188,1.1,1.766,2.237,3.406,4.471,6.9,6.631,10.279q1.781,2.786,3.567,5.567l3.339,5.173c2.7,4.189,5.411,8.377,8.083,12.586.2.323.429.647.654.957.526.724.608,1.056.582,1.207C475.121,43.673,474.99,43.9,474.532,44.279Z" transform="translate(0.383 0.383)"/>
      </g>
    </g>
  </g>
</svg>
