<svg xmlns="http://www.w3.org/2000/svg" xmlns:xlink="http://www.w3.org/1999/xlink" width="745" height="546" viewBox="0 0 745 546">
  <defs>
    <clipPath id="clip-path">
      <rect id="Rectangle_20" data-name="Rectangle 20" width="608.942" height="392.632" fill="#fcfcfc"/>
    </clipPath>
    <clipPath id="clip-Artboard_3">
      <rect width="745" height="546"/>
    </clipPath>
  </defs>
  <g id="Artboard_3" data-name="Artboard – 3" clip-path="url(#clip-Artboard_3)">
    <g id="Butterfly_Home" data-name="Butterfly Home" transform="translate(33.866 17.671)">
      <g id="Group_171" data-name="Group 171" transform="matrix(0.978, 0.208, -0.208, 0.978, 81.633, 0)">
        <g id="Group_170" data-name="Group 170" clip-path="url(#clip-path)">
          <path id="Path_20" data-name="Path 20" d="M607.1,52.787c-.254-.353-.51-.721-.742-1.087q-5.114-8.052-10.312-16.052l-4.25-6.588q-2.279-3.538-4.54-7.085c-2.756-4.312-5.606-8.771-8.467-13.125-.466-.708-.9-1.437-1.346-2.166a28.98,28.98,0,0,0-3.9-5.438L571.568.759a1.293,1.293,0,0,0-1.463-.12,2.651,2.651,0,0,1-2.839.2,5.493,5.493,0,0,0-3.861-.223c-.319.065-.634.13-.944.165-5.371.594-10.812,1.3-16.074,1.977l-3.326.43q-4.046.519-8.089,1.06-4.577.605-9.152,1.195-7.6.968-15.194,1.886l-1.868.229q-3.229.394-6.462.78-4.565.551-9.13,1.11l-.706.089c-6.774.843-13.549,1.686-20.315,2.58l-4.078.544c-4.729.634-9.619,1.29-14.439,1.8-2.363.251-4.751.568-7.059.873-2.083.276-4.165.552-6.253.784a6.829,6.829,0,0,0-2.439.851l.588,1.16.62,1.069c-.035-.053-.082-.1-.116-.151a4.108,4.108,0,0,0-2.865-1.938,4.23,4.23,0,0,0-3.426,1.018c-1.739,1.5-3.44,3.039-5.142,4.581l-1.47,1.329q-2.646,2.386-5.282,4.78c-4.428,4.013-9.009,8.161-13.565,12.18-11.8,10.408-22.338,19.815-32.207,28.759-7.866,7.129-14.3,12.892-20.255,18.135q-1.568,1.378-3.142,2.753c-3.858,3.369-7.845,6.853-11.582,10.491-2.161,2.1-4.463,4.139-6.689,6.111s-4.527,4.007-6.7,6.122l-.142.13a3.146,3.146,0,0,0-.836,1.053,4.253,4.253,0,0,1-2.56,2.542c-1.66.613-2.434,2.31-2.02,4.428,1.624,8.3,3.373,16.9,5.194,25.553,1.087,5.157,2.126,10.324,3.164,15.489,1.05,5.229,2.1,10.456,3.2,15.675.211.993.391,1.994.573,3a45.269,45.269,0,0,0,1.769,7.384c.571,1.584.182,2.663-.556,4.433q-3.329,7.984-6.583,16-2.845,6.957-5.712,13.9-5.541,13.357-11.155,26.684l-4.134,9.855c-.363.864-.737,1.723-1.112,2.584-.461,1.058-.923,2.144-1.372,3.239-.449-1.095-.911-2.18-1.372-3.239-.375-.86-.748-1.72-1.112-2.584l-4.134-9.855q-5.6-13.336-11.155-26.684-2.882-6.941-5.712-13.9-3.27-8.007-6.583-16c-.738-1.77-1.127-2.849-.556-4.433a45.272,45.272,0,0,0,1.769-7.384c.182-1,.362-2,.571-3,1.1-5.218,2.15-10.446,3.2-15.675,1.039-5.165,2.077-10.331,3.163-15.489,1.822-8.656,3.57-17.254,5.194-25.553.415-2.118-.359-3.815-2.019-4.428a4.253,4.253,0,0,1-2.56-2.542,3.132,3.132,0,0,0-.837-1.053l-.141-.13c-2.178-2.115-4.478-4.152-6.7-6.122s-4.529-4.01-6.689-6.111c-3.737-3.638-7.725-7.123-11.582-10.491q-1.572-1.375-3.144-2.753c-5.951-5.243-12.388-11.006-20.254-18.135C223.834,60.815,213.3,51.408,201.5,41c-4.557-4.018-9.136-8.167-13.565-12.18q-2.64-2.392-5.283-4.78l-1.468-1.329c-1.7-1.541-3.4-3.082-5.142-4.581a4.23,4.23,0,0,0-3.426-1.018,4.1,4.1,0,0,0-2.865,1.938c-.034.056-.081.1-.116.151l.62-1.069.588-1.16a6.838,6.838,0,0,0-2.439-.851c-2.088-.232-4.171-.508-6.253-.784-2.308-.306-4.7-.622-7.059-.873-4.82-.51-9.71-1.166-14.439-1.8l-4.078-.544c-6.767-.894-13.541-1.736-20.315-2.58l-.706-.089q-4.563-.568-9.131-1.11-3.229-.387-6.46-.78l-1.869-.229Q90.49,6.4,82.9,5.448q-4.577-.584-9.152-1.195-4.044-.535-8.089-1.06l-3.326-.43C57.067,2.084,51.626,1.38,46.255.786c-.31-.035-.626-.1-.944-.165a5.5,5.5,0,0,0-3.862.223,2.648,2.648,0,0,1-2.838-.2,1.293,1.293,0,0,0-1.463.12l-1.975.487a29.044,29.044,0,0,0-3.9,5.438c-.44.729-.879,1.458-1.346,2.166-2.861,4.354-5.71,8.812-8.466,13.125q-2.265,3.546-4.54,7.085l-4.25,6.588Q7.5,43.659,2.361,51.7c-.233.366-.488.734-.742,1.087A4.779,4.779,0,0,0,.414,56.269a5.131,5.131,0,0,0,2.408,3.078,1.293,1.293,0,0,0,1.336.107c1.869-.925,3.938-.682,6.128-.426.8.092,1.591.186,2.381.228,5.371.286,10.83.708,16.109,1.117l1.526.118c2.09.16,4.177.351,6.265.541,2.114.194,4.228.387,6.344.549s4.225.3,6.339.435c3.707.237,7.541.483,11.28.881,2.245.241,4.522.411,6.724.578,1.913.144,3.828.289,5.739.476,2.041.2,4.089.357,6.136.513,1.992.152,3.984.3,5.972.5,1.624.159,3.253.264,4.883.37,2.688.174,5.466.355,8.151.789a8.079,8.079,0,0,0,1.83.09,6.829,6.829,0,0,0,2.592-.689,6.983,6.983,0,0,0,1.545.78l.3.117a19.443,19.443,0,0,1,4.251,2.65l.868.644q6.8,4.975,13.541,10.028l28.426,21.13c.163.121.331.24.5.358,1.054.733,1.226.961,1.148,1.526a1.3,1.3,0,0,0,1.378,1.477,1.232,1.232,0,0,0,.307-.074c.487.125.508.2.543.39a64,64,0,0,0,3.513,11.2c.564,1.467,1.127,2.935,1.643,4.417,2.365,6.8,4.784,13.576,7.2,20.354l1.414,3.966q1.209,3.393,2.434,6.78,1.593,4.424,3.166,8.858-.644,2.95-1.306,5.9c-.832,3.718-1.691,7.56-2.465,11.368-.539,2.653-1.117,5.3-1.695,7.94-1.125,5.136-2.287,10.447-3.133,15.77a14.647,14.647,0,0,1-.495,1.915c-.105.344-.21.687-.3,1.032a1.572,1.572,0,0,0,.958,1.912h.009l-.005.262c.094,0,.159-.005.213-.005a70.177,70.177,0,0,0,10.352,5.652c1.238.587,2.474,1.173,3.7,1.785q3.932,1.97,7.854,3.961c4.923,2.491,10.012,5.067,15.058,7.531,3.3,1.611,6.584,3.258,9.868,4.9,4.362,2.187,8.871,4.449,13.353,6.592a48.445,48.445,0,0,1,4.931,2.689,4.353,4.353,0,0,1,1.418,1.207,7.052,7.052,0,0,1-3.712-.316c-5.96-1.969-12.073-3.781-17.984-5.533l-4.953-1.472q-6.152-1.841-12.316-3.649-4.389-1.293-8.773-2.593-10.465-3.108-20.919-6.248l-.164-.049a6.3,6.3,0,0,0-4.124-.237c-2.545-1.377-4.473.518-5.112,1.149-6.5,6.422-13.293,12.94-20.76,19.925-4.309,4.03-8.588,8.221-12.73,12.273l-2.283,2.234c-1.414,1.381-2.858,2.728-4.3,4.074-2.146,2-4.368,4.072-6.456,6.235l-.371.379a7.681,7.681,0,0,0-2.48,4.012,1.227,1.227,0,0,0,0,.229c-.017.036-.047.061-.061.1a5.732,5.732,0,0,0-.415,2.754c.134,1.023.282,2.046.431,3.068.341,2.355.694,4.789.86,7.174.2,2.865.517,5.751.824,8.54q.182,1.646.355,3.3c.471,4.542.994,9.079,1.516,13.617q.424,3.686.841,7.375c.074.67.126,1.347.177,2.023.089,1.159.178,2.357.389,3.548.624,3.522.965,7.168,1.3,10.692.285,3.046.581,6.2,1.058,9.3a9.151,9.151,0,0,0,4.174,6.618c2.222,1.459,4.556,2.787,6.814,4.073q1.355.769,2.7,1.55,3.639,2.12,7.274,4.25c5.657,3.311,11.508,6.734,17.3,10.039,12.587,7.176,23.886,13.7,34.54,19.938.341.2.681.407,1.023.617,1.869,1.145,3.988,2.443,6.644,2.521.042,0,.085,0,.125,0a1.3,1.3,0,0,0,.978-.549,5.238,5.238,0,0,1,1.778-1.345,8.466,8.466,0,0,0,2.5-1.9c1.473-1.774,3.128-3.481,4.728-5.13q.859-.886,1.712-1.777L215.4,370.582q8.195-8.6,16.379-17.215,4.944-5.209,9.863-10.439,4.569-4.848,9.147-9.686,2.981-3.144,5.989-6.265c2.883-3,5.765-6,8.608-9.04,5.889-6.292,12.013-12.782,18.208-19.289s12.4-13.041,18.6-19.567a4.993,4.993,0,0,0,1.441-3.006,3.577,3.577,0,0,1,.674-1.721c.02-.029.034-.06.052-.09.018.03.033.061.051.09a3.567,3.567,0,0,1,.676,1.721,4.993,4.993,0,0,0,1.441,3.006q9.3,9.788,18.6,19.567c6.195,6.507,12.319,13,18.208,19.289,2.843,3.038,5.725,6.04,8.607,9.04q3,3.128,5.99,6.265,4.583,4.832,9.146,9.686,4.926,5.225,9.863,10.439,8.179,8.616,16.379,17.215l10.235,10.751c.566.594,1.139,1.186,1.712,1.777,1.6,1.649,3.254,3.356,4.726,5.13a8.5,8.5,0,0,0,2.5,1.9,5.231,5.231,0,0,1,1.779,1.345,1.3,1.3,0,0,0,.978.549c.04,0,.083,0,.125,0,2.655-.078,4.773-1.376,6.644-2.521.341-.21.682-.417,1.022-.617,10.655-6.24,21.954-12.762,34.54-19.938,5.8-3.3,11.646-6.727,17.3-10.039q3.636-2.128,7.274-4.25,1.345-.783,2.7-1.55c2.257-1.286,4.592-2.614,6.814-4.073a9.155,9.155,0,0,0,4.174-6.618c.476-3.1.773-6.249,1.058-9.3.331-3.524.672-7.17,1.3-10.692.211-1.191.3-2.39.389-3.548.051-.676.1-1.352.177-2.023q.414-3.688.841-7.375c.522-4.538,1.044-9.075,1.516-13.617.113-1.1.234-2.2.355-3.3.307-2.789.624-5.675.824-8.54.167-2.385.519-4.819.859-7.174.148-1.022.3-2.045.432-3.068a5.716,5.716,0,0,0-.417-2.754,1.109,1.109,0,0,0-.06-.1,1.348,1.348,0,0,0,0-.229,7.675,7.675,0,0,0-2.481-4.012l-.371-.379c-2.087-2.163-4.309-4.233-6.455-6.235-1.445-1.346-2.891-2.693-4.3-4.074l-2.282-2.234c-4.142-4.052-8.423-8.243-12.73-12.273-7.468-6.985-14.258-13.5-20.76-19.925-.639-.631-2.567-2.527-5.112-1.149a6.3,6.3,0,0,0-4.124.237l-.164.049q-10.454,3.144-20.921,6.248-4.383,1.3-8.772,2.593-6.16,1.816-12.316,3.649l-4.953,1.472c-5.912,1.752-12.025,3.564-17.984,5.533a7.052,7.052,0,0,1-3.712.316,4.353,4.353,0,0,1,1.418-1.207,48.557,48.557,0,0,1,4.929-2.689c4.483-2.143,8.992-4.4,13.354-6.592,3.284-1.645,6.567-3.292,9.868-4.9,5.045-2.464,10.135-5.04,15.058-7.531q3.925-1.986,7.854-3.961c1.221-.612,2.458-1.2,3.7-1.785a70.176,70.176,0,0,0,10.352-5.652c.053,0,.12,0,.212.005l0-.262h.009a1.572,1.572,0,0,0,.958-1.912c-.1-.345-.2-.689-.3-1.032a14.65,14.65,0,0,1-.495-1.915c-.846-5.323-2.008-10.633-3.133-15.77-.578-2.644-1.157-5.287-1.695-7.94-.774-3.807-1.634-7.65-2.465-11.368q-.66-2.946-1.306-5.9,1.566-4.434,3.166-8.858,1.22-3.388,2.434-6.78l1.414-3.966c2.419-6.778,4.837-13.556,7.2-20.354.515-1.481,1.079-2.95,1.641-4.417a63.891,63.891,0,0,0,3.514-11.2c.035-.19.056-.266.543-.39a1.233,1.233,0,0,0,.307.074,1.3,1.3,0,0,0,1.378-1.477c-.078-.565.094-.793,1.148-1.526.169-.118.337-.237.5-.358l28.425-21.13q6.756-5.034,13.541-10.028l.87-.644a19.443,19.443,0,0,1,4.251-2.65l.3-.117a6.982,6.982,0,0,0,1.545-.78,6.823,6.823,0,0,0,2.59.689,8.091,8.091,0,0,0,1.831-.09c2.685-.433,5.463-.614,8.151-.789,1.628-.105,3.258-.211,4.883-.37,1.988-.194,3.98-.345,5.972-.5,2.046-.156,4.094-.311,6.136-.513,1.911-.187,3.824-.332,5.739-.476,2.2-.167,4.479-.337,6.724-.578,3.74-.4,7.572-.644,11.28-.881,2.114-.135,4.228-.272,6.339-.435s4.23-.355,6.344-.549c2.088-.19,4.174-.381,6.265-.541l1.526-.118c5.28-.409,10.739-.83,16.108-1.117.791-.042,1.587-.135,2.382-.228,2.189-.256,4.259-.5,6.128.426a1.293,1.293,0,0,0,1.336-.107,5.133,5.133,0,0,0,2.407-3.078,4.772,4.772,0,0,0-1.2-3.482M98.551,63.55c-2.808-.453-5.649-.638-8.4-.816-1.6-.1-3.2-.207-4.8-.362-2.006-.2-4.016-.35-6.028-.5s-4.055-.308-6.077-.508c-1.93-.19-3.865-.337-5.8-.482-2.182-.165-4.437-.335-6.644-.57-3.793-.4-7.654-.652-11.388-.892-2.1-.135-4.206-.269-6.305-.432S38.9,58.633,36.8,58.44s-4.2-.383-6.3-.545l-1.526-.117c-5.3-.41-10.77-.833-16.171-1.121-.738-.039-1.477-.128-2.217-.215-2.227-.262-4.521-.531-6.829.348-.583-.482-.751-.772-.777-.937-.033-.191.072-.614.742-1.537.286-.4.573-.808.833-1.22q5.108-8.044,10.3-16.035l4.254-6.59q2.279-3.54,4.544-7.093c2.752-4.306,5.6-8.756,8.448-13.1.484-.737.942-1.494,1.4-2.251a25.206,25.206,0,0,1,3.753-5.183c.02.013.031.035.053.047a6.8,6.8,0,0,0,1.662.694,7.936,7.936,0,0,0,2.654,3.866q4.542,4.223,9.075,8.453c7.874,7.343,16.018,14.934,24.1,22.333,3.091,2.832,6.187,5.77,9.182,8.613,4.709,4.47,9.58,9.092,14.575,13.438a9.711,9.711,0,0,1,2.533,2.959c.013.025.033.042.046.065a4.86,4.86,0,0,1-2.581.236m5.185-.678a1.274,1.274,0,0,0-.281-.66c-.014-.035-.012-.072-.029-.107a12.254,12.254,0,0,0-3.163-3.779c-4.953-4.31-9.8-8.911-14.493-13.363-3-2.849-6.107-5.8-9.215-8.644C68.486,28.928,60.348,21.341,52.476,14Q47.94,9.773,43.4,5.548a7.314,7.314,0,0,1-1.692-2.012,5.715,5.715,0,0,0,.949-.385,3.211,3.211,0,0,1,2.137.022c.4.081.789.159,1.177.2,5.345.591,10.775,1.293,16.025,1.972l3.328.428q4.042.521,8.079,1.06,4.581.605,9.164,1.2,7.6.968,15.206,1.887l1.869.229q3.233.4,6.467.781,4.561.549,9.12,1.109l.706.089c6.767.842,13.536,1.684,20.3,2.577l4.072.543c4.746.637,9.656,1.3,14.512,1.809,2.329.247,4.7.561,6.99.866,2.1.279,4.2.556,6.307.79a4.313,4.313,0,0,1,1.477.548,4.861,4.861,0,0,1-1.3,1.311c-1.565,1.069-3.118,2.156-4.669,3.242-1.451,1.017-2.9,2.033-4.365,3.035q-4.979,3.407-9.968,6.8Q142.909,38,136.535,42.359l-2.188,1.5c-7.413,5.09-15.076,10.355-22.542,15.638-.544.384-1.122.728-1.7,1.073a12.474,12.474,0,0,0-4.329,3.616c-.133-.059-.255-.129-.392-.185l-.344-.134c-1.032-.4-1.263-.575-1.3-1m49.307,35.912L124.62,77.655c-4.51-3.361-9.021-6.722-13.56-10.042l-.846-.629c-.686-.512-1.385-1.028-2.12-1.514a10.754,10.754,0,0,1,3.34-2.658c.62-.37,1.261-.751,1.873-1.185,7.452-5.274,15.11-10.533,22.514-15.619l2.188-1.5q6.363-4.37,12.747-8.706,4.991-3.4,9.975-6.805c1.47-1.006,2.929-2.028,4.388-3.051,1.542-1.082,3.086-2.162,4.643-3.224a7.485,7.485,0,0,0,2.208-2.31,1.49,1.49,0,0,1,1.045-.724,1.637,1.637,0,0,1,1.323.417c1.723,1.485,3.409,3.012,5.1,4.54l1.472,1.332q2.642,2.386,5.278,4.776c4.436,4.018,9.022,8.173,13.591,12.2,11.8,10.4,22.321,19.8,32.18,28.736,7.878,7.138,14.322,12.907,20.283,18.158q1.574,1.384,3.153,2.761c3.83,3.347,7.791,6.806,11.478,10.4,2.205,2.145,4.531,4.2,6.78,6.195,2.2,1.951,4.48,3.968,6.616,6.042l.2.187a2.631,2.631,0,0,1,.232.225,8.236,8.236,0,0,0,.547,1.009,3.329,3.329,0,0,1-2,.381c-3.623-.657-7.315-1.1-10.886-1.529-2.2-.264-4.394-.528-6.586-.841-2.89-.413-5.831-.769-8.676-1.114-3.721-.45-7.571-.916-11.323-1.514-4.169-.663-8.413-1.156-12.518-1.634-2.858-.333-5.816-.677-8.711-1.074-4.885-.67-9.83-1.283-14.613-1.876-3.009-.372-6.014-.8-9.017-1.229-2.523-.359-5.047-.72-7.574-1.048l-3.051-.4c-6.8-.885-13.839-1.8-20.784-2.527-.729-.077-1.467-.217-2.248-.367-2.084-.4-4.432-.825-6.832.057a4.063,4.063,0,0,0-.781-.316,4.765,4.765,0,0,0-2.165-2.545c-.146-.1-.292-.2-.433-.308m18.542,44.8-1.415-3.967c-2.416-6.773-4.832-13.543-7.2-20.333-.525-1.509-1.1-3-1.669-4.5a62.453,62.453,0,0,1-3.351-10.585,11.6,11.6,0,0,1,4.811.255c.8.152,1.627.31,2.465.4,6.913.724,13.932,1.636,20.719,2.519l3.052.4c2.517.325,5.03.685,7.542,1.041,3.019.431,6.038.862,9.065,1.237,4.773.591,9.709,1.2,14.577,1.872,2.921.4,5.891.746,8.764,1.079,4.078.475,8.294.966,12.41,1.621,3.8.6,7.673,1.073,11.42,1.527,2.83.342,5.757.7,8.62,1.106,2.21.315,4.428.582,6.645.847,3.533.426,7.185.863,10.73,1.507a5.024,5.024,0,0,0,1.231.068,7.3,7.3,0,0,0,3.064-1.026,6.982,6.982,0,0,0,1.64.892c.508.187.48.912.368,1.487-1.622,8.288-3.367,16.872-5.187,25.517-1.087,5.164-2.128,10.339-3.167,15.512-1.049,5.221-2.1,10.441-3.2,15.65-.213,1.018-.4,2.045-.586,3.072a42.6,42.6,0,0,1-1.657,6.963,7.019,7.019,0,0,0-.344,1.425,27.085,27.085,0,0,1-5.569-1.483c-.764-.266-1.527-.53-2.294-.767q-2.251-.7-4.509-1.382c-4.155-1.267-8.452-2.577-12.621-4.017-5.785-2-11.841-3.891-18.518-5.789-3.846-1.093-7.723-2.343-11.472-3.552-3.03-.976-6.163-1.986-9.273-2.913s-6.278-1.93-9.333-2.9c-2.873-.912-5.744-1.824-8.63-2.692-1.135-.34-2.261-.715-3.386-1.087a60.027,60.027,0,0,0-7.725-2.167l-.016-.042.031-.143-.091-.023c-1.157-3.289-2.34-6.571-3.522-9.854q-1.218-3.384-2.43-6.771m56.234,90.706c-4.461-2.133-8.959-4.388-13.31-6.57-3.291-1.651-6.583-3.3-9.89-4.916-5.03-2.456-10.111-5.028-15.028-7.515q-3.928-1.988-7.861-3.966c-1.239-.621-2.493-1.214-3.746-1.809a69.9,69.9,0,0,1-9.725-5.277c.025-.078.046-.158.07-.237a17.2,17.2,0,0,0,.595-2.352c.832-5.229,1.984-10.494,3.1-15.585.582-2.659,1.164-5.319,1.706-7.988.767-3.775,1.623-7.6,2.451-11.3.285-1.272.564-2.545.846-3.816a57.14,57.14,0,0,1,7.492,2.1c1.149.381,2.3.761,3.456,1.11,2.873.864,5.733,1.772,8.592,2.679,3.065.974,6.236,1.98,9.377,2.916,3.084.916,6.2,1.923,9.217,2.895,3.771,1.216,7.671,2.472,11.56,3.578,6.628,1.884,12.639,3.763,18.378,5.746,4.214,1.455,8.534,2.773,12.712,4.046q2.249.685,4.5,1.378c.741.229,1.476.484,2.213.739a27.585,27.585,0,0,0,6.57,1.661,15.711,15.711,0,0,0,.8,2.258c2.217,5.316,4.4,10.648,6.575,15.981q2.847,6.963,5.716,13.915,5.545,13.363,11.161,26.693l4.134,9.855c.367.876.746,1.747,1.125,2.618.725,1.662,1.475,3.383,2.11,5.092a4.946,4.946,0,0,1,.233,2.735,1.283,1.283,0,0,0-.639-.66,4.051,4.051,0,0,1-.754-.514,6.575,6.575,0,0,0-1.257-.828l-2.665-1.267c-4.018-1.912-8.172-3.891-12.332-5.707l-1.243-.542c-3.18-1.384-6.468-2.815-9.588-4.4-4.771-2.433-9.718-4.661-14.5-6.818q-2.2-.99-4.392-1.986c-5.563-2.537-11.356-4.739-16.956-6.869l-1.848-.7c-.7-.267-1.01-.48-1.134-.782a5.954,5.954,0,0,0-2.622-2.745,50.769,50.769,0,0,0-5.194-2.834m-64.351-11.125.167.051q10.462,3.144,20.931,6.252,4.385,1.3,8.776,2.594,6.156,1.814,12.307,3.645l4.958,1.475c5.894,1.747,11.987,3.552,17.908,5.509a9.387,9.387,0,0,0,6.459,0,7.411,7.411,0,0,0,.866.4l1.851.7c5.562,2.115,11.314,4.3,16.8,6.805q2.2,1,4.4,1.992c4.755,2.143,9.671,4.358,14.389,6.763,3.19,1.625,6.515,3.073,9.731,4.473l1.242.54c4.12,1.8,8.254,3.767,12.253,5.67l2.668,1.269a4.383,4.383,0,0,1,.765.525,6.263,6.263,0,0,0,1.285.836,1.232,1.232,0,0,0,1.057,0c-.056.1-.105.2-.168.293-.1.147-.185.3-.276.46a42.5,42.5,0,0,0-10.239,2.083l-1.061.31c-3.309.957-6.709,1.841-10,2.694q-1.943.5-3.883,1.015l-6.264,1.656q-9.661,2.554-19.327,5.088c-2.72.711-5.446,1.4-8.171,2.1-3.844.976-7.686,1.954-11.516,2.98-3.107.833-6.206,1.7-9.306,2.571-4.85,1.359-9.865,2.766-14.826,4-1.25.312-2.5.644-3.741.979-2.355.63-4.791,1.282-7.2,1.76a8.94,8.94,0,0,0-1.325-5.438c-.13-.258-.258-.515-.38-.773q-4.292-9.1-8.506-18.238-3.524-7.6-7.072-15.191-2.111-4.495-4.238-8.982c-3-6.34-6.1-12.9-9.057-19.384-.56-1.229-1.138-2.452-1.717-3.675-.708-1.5-1.416-3-2.093-4.513a8.106,8.106,0,0,1-.522-1.651,5.381,5.381,0,0,1,2.072.364m-53.533,45.37.392-.4c2.04-2.111,4.234-4.158,6.357-6.137,1.459-1.36,2.92-2.722,4.348-4.117l2.283-2.235c4.132-4.042,8.4-8.223,12.689-12.232,7.486-7,14.294-13.536,20.811-19.973.978-.965,1.436-1,1.9-.789a10.289,10.289,0,0,0,.828,2.862c.685,1.532,1.4,3.047,2.118,4.564.573,1.212,1.145,2.422,1.7,3.642,2.967,6.5,6.071,13.069,9.074,19.417q2.12,4.485,4.233,8.974,3.556,7.582,7.068,15.181,4.237,9.136,8.514,18.252c.129.276.267.551.4.827a7.994,7.994,0,0,1,1.105,3.291c-9.03-3.344-18.244-6.523-27.175-9.595l-2.458-.846q-13.174-4.532-26.321-9.138c-1.657-.579-3.3-1.192-4.95-1.8-2.476-.919-5.035-1.871-7.6-2.7-2.074-.67-4.133-1.384-6.189-2.094-3.406-1.179-6.914-2.391-10.46-3.395a9.122,9.122,0,0,1,1.334-1.556m3.149,53.453c-.189-1.065-.271-2.146-.358-3.292-.053-.708-.107-1.414-.186-2.117q-.412-3.692-.841-7.383c-.522-4.527-1.043-9.056-1.514-13.589-.115-1.1-.236-2.206-.357-3.31-.3-2.765-.618-5.623-.815-8.436-.173-2.481-.532-4.965-.881-7.366-.147-1.011-.293-2.021-.426-3.034a2.363,2.363,0,0,1,.086-.88c3.509.988,7.015,2.188,10.417,3.365,2.074.717,4.15,1.436,6.24,2.11,2.515.812,5.047,1.753,7.5,2.663,1.662.617,3.323,1.235,5,1.821q13.154,4.606,26.334,9.142l2.458.846c8.9,3.06,18.071,6.225,27.053,9.549a14.657,14.657,0,0,1-4.307,2.782c-.62.3-1.237.6-1.839.932q-5.022,2.737-10.029,5.493c-6.939,3.81-14.117,7.75-21.228,11.516-3.731,1.975-7.491,4.034-11.129,6.025-5.323,2.912-10.826,5.924-16.318,8.723-1.739.885-3.468,1.844-5.139,2.771s-3.38,1.876-5.091,2.748a7.8,7.8,0,0,0-1.63,1.127,7.806,7.806,0,0,1-.633-2.161c-.465-3.022-.756-6.133-1.039-9.143-.336-3.576-.682-7.274-1.323-10.9m74.98,65.3c-.357-.219-.711-.436-1.067-.644-10.665-6.245-21.97-12.772-34.567-19.953-5.781-3.3-11.625-6.715-17.277-10.024q-3.638-2.126-7.278-4.251c-.9-.527-1.815-1.045-2.724-1.563-2.223-1.265-4.522-2.573-6.674-3.987a7.892,7.892,0,0,1-.79-.6,5.316,5.316,0,0,1,1.2-.886c1.751-.892,3.49-1.856,5.17-2.789,1.652-.916,3.36-1.863,5.057-2.73,5.528-2.814,11.049-5.835,16.387-8.758,3.63-1.986,7.383-4.042,11.1-6.009,7.129-3.775,14.313-7.719,21.263-11.534q5.006-2.751,10.022-5.488c.568-.311,1.153-.595,1.736-.879a16.362,16.362,0,0,0,5.208-3.466,10.955,10.955,0,0,1,.385,4.816c-.046.722-.09,1.445-.089,2.161.009,3.2-.174,6.467-.351,9.628l-.049.894c-.176,3.14-.272,6.325-.366,9.407-.1,3.228-.2,6.566-.391,9.837-.068,1.172-.083,2.35-.1,3.531-.017,1.3-.034,2.64-.129,3.935-.133,1.824-.172,3.662-.21,5.441-.043,2.014-.087,4.1-.269,6.123-.148,1.647-.147,3.3-.146,4.909,0,.992,0,1.982-.034,2.972-.057,1.644-.135,3.289-.216,4.935-.108,2.273-.217,4.547-.271,6.823l-.036,1.868c-.033,1.882-.066,3.828-.221,5.725a4.533,4.533,0,0,0,.683,2.422l.012.026c-.073.066-.148.125-.217.2a12.43,12.43,0,0,1-4.755-2.09m93.64-90.438c-6.2,6.512-12.329,13.008-18.222,19.305-2.836,3.03-5.71,6.024-8.585,9.018q-3.007,3.13-6,6.274-4.585,4.836-9.153,9.692-4.92,5.223-9.855,10.433-8.179,8.616-16.375,17.211l-10.236,10.751c-.561.591-1.127,1.175-1.695,1.761-1.635,1.686-3.324,3.429-4.86,5.28a5.452,5.452,0,0,1-1.509,1.138,2.222,2.222,0,0,1-.276-.768c.16-1.98.2-3.969.229-5.894l.035-1.85c.053-2.255.161-4.508.269-6.761.079-1.656.159-3.311.217-4.967.035-1.019.035-2.042.035-3.064,0-1.617,0-3.144.135-4.674.19-2.114.234-4.242.28-6.3.038-1.746.075-3.55.2-5.307.1-1.373.118-2.756.134-4.092.014-1.14.029-2.279.1-3.41.193-3.308.294-6.665.393-9.91.092-3.067.189-6.236.362-9.342l.049-.893c.18-3.2.366-6.507.357-9.779,0-.66.042-1.325.085-1.992a13.852,13.852,0,0,0-.458-5.639c2.312-.479,4.607-1.08,6.826-1.674,1.231-.329,2.461-.659,3.7-.967,5-1.244,10.032-2.657,14.9-4.021,3.09-.866,6.179-1.731,9.278-2.562,3.816-1.023,7.649-2,11.481-2.972,2.731-.7,5.462-1.388,8.189-2.1q9.673-2.527,19.334-5.092l6.264-1.656q1.933-.512,3.872-1.011c3.3-.859,6.721-1.747,10.063-2.715l1.067-.31A44.133,44.133,0,0,1,301,276.06a2.615,2.615,0,0,1-.7,1.229q-9.3,9.788-18.6,19.564m130.291,89.724c-1.536-1.851-3.227-3.594-4.86-5.28-.568-.586-1.135-1.17-1.695-1.761L395.2,368.786q-8.193-8.6-16.375-17.211-4.94-5.205-9.856-10.433-4.571-4.852-9.153-9.692-2.985-3.149-6-6.274c-2.875-2.994-5.749-5.988-8.585-9.018-5.893-6.3-12.024-12.793-18.222-19.305s-12.4-13.039-18.6-19.564a2.63,2.63,0,0,1-.7-1.229,44.112,44.112,0,0,1,8.67,1.932l1.069.31c3.343.968,6.758,1.856,10.063,2.715q1.937.5,3.872,1.011l6.264,1.656q9.665,2.556,19.334,5.092c2.726.712,5.457,1.4,8.189,2.1,3.831.975,7.663,1.949,11.481,2.972,3.1.83,6.188,1.7,9.278,2.562,4.867,1.364,9.9,2.776,14.9,4.021,1.238.309,2.468.638,3.7.967,2.219.594,4.514,1.195,6.826,1.674a13.852,13.852,0,0,0-.458,5.639c.043.666.086,1.332.083,1.992-.008,3.272.177,6.58.358,9.779l.049.893c.172,3.106.269,6.275.362,9.342.1,3.245.2,6.6.393,9.91.066,1.131.081,2.27.1,3.41.016,1.337.033,2.719.134,4.092.128,1.757.165,3.561.2,5.307.044,2.059.09,4.187.28,6.3.138,1.531.137,3.058.135,4.674,0,1.022,0,2.045.035,3.064.059,1.656.138,3.311.216,4.967.108,2.253.216,4.506.269,6.761l.036,1.85c.033,1.925.068,3.914.229,5.894a2.222,2.222,0,0,1-.276.768,5.433,5.433,0,0,1-1.509-1.138m71.571-35.723c-.91.518-1.821,1.036-2.726,1.563q-3.641,2.122-7.276,4.251c-5.652,3.309-11.5,6.727-17.277,10.024-12.6,7.181-23.9,13.708-34.567,19.953-.357.208-.711.426-1.067.644a12.43,12.43,0,0,1-4.755,2.09c-.069-.073-.144-.131-.217-.2l.012-.026a4.533,4.533,0,0,0,.683-2.422c-.155-1.9-.19-3.843-.221-5.725l-.036-1.868c-.055-2.277-.163-4.551-.271-6.823-.081-1.645-.159-3.291-.216-4.935-.035-.989-.035-1.98-.034-2.972,0-1.6,0-3.262-.146-4.909-.182-2.025-.227-4.109-.269-6.123-.039-1.779-.077-3.617-.211-5.441-.094-1.3-.111-2.637-.128-3.935-.014-1.182-.03-2.36-.1-3.531-.191-3.271-.293-6.609-.391-9.837-.094-3.082-.19-6.268-.366-9.407l-.049-.894c-.177-3.162-.361-6.432-.351-9.628,0-.716-.043-1.438-.089-2.161a10.944,10.944,0,0,1,.385-4.818,16.345,16.345,0,0,0,5.208,3.468c.583.284,1.169.568,1.736.879q5.018,2.732,10.022,5.488c6.95,3.815,14.134,7.759,21.262,11.534,3.716,1.967,7.469,4.022,11.1,6.009,5.338,2.922,10.859,5.943,16.385,8.758,1.7.867,3.405,1.813,5.058,2.73,1.68.933,3.419,1.9,5.17,2.789a5.338,5.338,0,0,1,1.2.886,7.9,7.9,0,0,1-.79.6c-2.152,1.414-4.449,2.722-6.672,3.987m17.358-78.276a2.392,2.392,0,0,1,.086.88c-.133,1.013-.28,2.023-.426,3.034-.349,2.4-.708,4.885-.883,7.366-.2,2.813-.51,5.671-.814,8.436-.121,1.1-.242,2.208-.357,3.31-.471,4.534-.993,9.062-1.514,13.589q-.426,3.692-.841,7.383c-.079.7-.133,1.408-.186,2.117-.087,1.145-.169,2.227-.358,3.292-.64,3.628-.988,7.326-1.322,10.9-.283,3.009-.575,6.12-1.039,9.143a7.852,7.852,0,0,1-.633,2.161,7.8,7.8,0,0,0-1.63-1.127c-1.712-.872-3.43-1.825-5.091-2.748s-3.4-1.886-5.139-2.771c-5.492-2.8-11-5.811-16.318-8.723-3.638-1.992-7.4-4.051-11.129-6.025-7.111-3.766-14.288-7.706-21.228-11.516q-5.012-2.753-10.029-5.493c-.6-.328-1.221-.63-1.839-.932a14.657,14.657,0,0,1-4.307-2.782c8.982-3.324,18.157-6.489,27.053-9.549l2.458-.846q13.181-4.536,26.334-9.142c1.674-.586,3.335-1.2,5-1.821,2.45-.91,4.982-1.851,7.5-2.663,2.092-.674,4.168-1.393,6.242-2.11,3.4-1.177,6.908-2.377,10.417-3.365M451.9,223.437c6.517,6.437,13.325,12.97,20.811,19.973,4.285,4.009,8.556,8.19,12.689,12.232l2.283,2.235c1.428,1.4,2.888,2.757,4.348,4.117,2.123,1.98,4.318,4.026,6.357,6.137l.39.4a9.131,9.131,0,0,1,1.336,1.556c-3.546,1-7.054,2.215-10.46,3.395-2.057.711-4.116,1.424-6.189,2.094-2.568.828-5.127,1.779-7.6,2.7-1.647.612-3.293,1.225-4.95,1.8q-13.146,4.606-26.321,9.138l-2.458.846c-8.932,3.072-18.147,6.251-27.175,9.595a7.993,7.993,0,0,1,1.105-3.291c.137-.276.276-.551.4-.827q4.3-9.106,8.514-18.252,3.522-7.6,7.068-15.181,2.107-4.491,4.233-8.974c3-6.348,6.107-12.913,9.073-19.417.556-1.22,1.129-2.43,1.7-3.642.717-1.516,1.433-3.032,2.118-4.564a10.333,10.333,0,0,0,.828-2.862c.462-.212.92-.176,1.9.789m-71.7,19.25c5.923-1.956,12.016-3.762,17.908-5.509l4.959-1.475q6.148-1.839,12.307-3.645,4.389-1.3,8.776-2.594,10.469-3.11,20.931-6.252l.167-.051a5.38,5.38,0,0,1,2.072-.364,8.034,8.034,0,0,1-.523,1.651c-.676,1.515-1.385,3.015-2.092,4.513-.579,1.222-1.157,2.446-1.717,3.675-2.959,6.488-6.059,13.044-9.058,19.384q-2.122,4.489-4.237,8.982-3.558,7.586-7.072,15.191-4.235,9.128-8.508,18.238c-.121.258-.249.515-.379.773a8.931,8.931,0,0,0-1.325,5.438c-2.415-.478-4.85-1.13-7.2-1.76-1.246-.335-2.491-.666-3.742-.979-4.959-1.234-9.976-2.641-14.825-4-3.1-.868-6.2-1.738-9.306-2.571-3.831-1.026-7.672-2-11.516-2.98-2.724-.694-5.45-1.386-8.172-2.1q-9.667-2.525-19.326-5.088l-6.264-1.656q-1.939-.514-3.883-1.015c-3.287-.854-6.687-1.738-10-2.694l-1.061-.31a42.519,42.519,0,0,0-10.24-2.083c-.09-.156-.181-.312-.275-.46-.062-.1-.112-.2-.168-.293a1.23,1.23,0,0,0,1.056,0,6.275,6.275,0,0,0,1.286-.836,4.378,4.378,0,0,1,.764-.525l2.668-1.269c4-1.9,8.134-3.871,12.254-5.67l1.242-.54c3.216-1.4,6.541-2.848,9.731-4.473,4.716-2.405,9.634-4.621,14.389-6.763q2.2-.992,4.4-1.992c5.488-2.5,11.24-4.69,16.8-6.805l1.851-.7a7.409,7.409,0,0,0,.866-.4,9.383,9.383,0,0,0,6.458,0m56.493-56.627c1.116,5.091,2.268,10.356,3.1,15.585a17.2,17.2,0,0,0,.595,2.352c.023.079.046.159.07.237a69.975,69.975,0,0,1-9.725,5.277c-1.255.595-2.507,1.188-3.746,1.809q-3.936,1.972-7.861,3.966c-4.916,2.486-10,5.058-15.028,7.515-3.308,1.615-6.6,3.266-9.89,4.916-4.35,2.182-8.849,4.436-13.31,6.57a50.934,50.934,0,0,0-5.2,2.834,5.952,5.952,0,0,0-2.62,2.745c-.124.3-.431.515-1.134.782l-1.848.7c-5.6,2.13-11.392,4.332-16.956,6.869q-2.195,1-4.392,1.986c-4.782,2.157-9.73,4.385-14.5,6.818-3.119,1.589-6.407,3.021-9.588,4.4l-1.242.542c-4.16,1.816-8.314,3.794-12.332,5.707l-2.666,1.267a6.605,6.605,0,0,0-1.256.828,4.05,4.05,0,0,1-.754.514,1.283,1.283,0,0,0-.639.66,4.946,4.946,0,0,1,.233-2.735c.635-1.709,1.385-3.43,2.109-5.092.38-.871.759-1.742,1.126-2.618l4.134-9.855q5.6-13.338,11.161-26.693,2.882-6.947,5.716-13.915c2.179-5.333,4.358-10.665,6.575-15.981a15.708,15.708,0,0,0,.8-2.258,27.6,27.6,0,0,0,6.57-1.661c.737-.255,1.472-.51,2.212-.739q2.247-.7,4.5-1.378c4.178-1.273,8.5-2.59,12.712-4.046,5.739-1.982,11.75-3.862,18.378-5.746,3.889-1.106,7.789-2.363,11.56-3.578,3.016-.972,6.133-1.979,9.217-2.895,3.14-.936,6.311-1.942,9.377-2.916,2.86-.907,5.72-1.815,8.592-2.679,1.157-.349,2.307-.729,3.456-1.11a57.14,57.14,0,0,1,7.492-2.1q.422,1.908.845,3.816c.829,3.7,1.686,7.529,2.452,11.3.543,2.67,1.125,5.329,1.705,7.988m10.718-71.277c-.571,1.494-1.144,2.989-1.67,4.5-2.362,6.791-4.778,13.561-7.194,20.333l-1.415,3.967q-1.207,3.388-2.432,6.771c-1.182,3.283-2.364,6.564-3.521,9.854l-.091.023.031.143-.016.042a59.967,59.967,0,0,0-7.725,2.167c-1.126.372-2.251.747-3.386,1.087-2.886.868-5.759,1.779-8.631,2.692-3.054.97-6.213,1.972-9.332,2.9s-6.243,1.937-9.273,2.913c-3.75,1.209-7.627,2.459-11.473,3.552-6.675,1.9-12.732,3.79-18.516,5.789-4.169,1.44-8.466,2.75-12.621,4.017q-2.255.687-4.509,1.382c-.767.237-1.529.5-2.294.767a27.084,27.084,0,0,1-5.569,1.483,7.022,7.022,0,0,0-.345-1.425,42.6,42.6,0,0,1-1.656-6.963c-.186-1.027-.372-2.054-.586-3.072-1.1-5.209-2.148-10.429-3.2-15.65-1.039-5.173-2.08-10.348-3.167-15.512-1.82-8.644-3.565-17.229-5.187-25.517-.112-.574-.139-1.3.367-1.487a6.965,6.965,0,0,0,1.641-.892,7.294,7.294,0,0,0,3.064,1.026,5.024,5.024,0,0,0,1.231-.068c3.543-.644,7.2-1.082,10.73-1.507,2.217-.266,4.435-.532,6.644-.847,2.864-.41,5.791-.764,8.621-1.106,3.746-.454,7.62-.923,11.42-1.527,4.116-.655,8.332-1.145,12.41-1.621,2.872-.333,5.843-.678,8.764-1.079,4.868-.669,9.8-1.281,14.577-1.872,3.026-.375,6.045-.806,9.065-1.237,2.511-.357,5.024-.716,7.541-1.041l3.054-.4c6.787-.883,13.806-1.8,20.719-2.519.838-.089,1.666-.246,2.464-.4a11.6,11.6,0,0,1,4.811-.255,62.451,62.451,0,0,1-3.349,10.585m51.092-47.8-.846.629c-4.539,3.321-9.049,6.681-13.56,10.042L455.673,98.784c-.141.105-.288.207-.433.308a4.763,4.763,0,0,0-2.163,2.545,4.064,4.064,0,0,0-.781.316c-2.4-.883-4.748-.453-6.832-.057-.781.15-1.519.29-2.248.367-6.944.726-13.98,1.641-20.784,2.527l-3.052.4c-2.528.328-5.05.689-7.573,1.048-3,.428-6.007.857-9.017,1.229-4.782.592-9.727,1.205-14.614,1.876-2.894.4-5.851.741-8.711,1.074-4.1.478-8.348.971-12.517,1.634-3.753.6-7.6,1.063-11.325,1.514-2.843.345-5.785.7-8.674,1.114-2.192.312-4.389.577-6.588.841-3.569.428-7.262.872-10.885,1.529a3.329,3.329,0,0,1-2-.381,8.414,8.414,0,0,0,.547-1.009,2.626,2.626,0,0,1,.232-.225l.2-.187c2.136-2.075,4.414-4.091,6.616-6.042,2.249-1.992,4.575-4.049,6.78-6.195,3.688-3.59,7.649-7.05,11.478-10.4q1.578-1.378,3.151-2.761c5.962-5.251,12.406-11.02,20.284-18.158,9.859-8.936,20.384-18.335,32.18-28.736,4.569-4.03,9.155-8.185,13.591-12.2q2.638-2.39,5.278-4.776l1.472-1.332c1.687-1.528,3.373-3.055,5.095-4.54a1.64,1.64,0,0,1,1.324-.417,1.492,1.492,0,0,1,1.045.724,7.485,7.485,0,0,0,2.208,2.31c1.557,1.062,3.1,2.143,4.643,3.224,1.459,1.023,2.918,2.045,4.388,3.051q4.981,3.411,9.975,6.805,6.379,4.344,12.746,8.706l2.189,1.5c7.4,5.086,15.06,10.344,22.512,15.619.613.433,1.255.815,1.874,1.185a10.77,10.77,0,0,1,3.34,2.658c-.735.486-1.436,1-2.12,1.514m5.177-3.112-.345.134c-.135.056-.258.126-.39.185a12.474,12.474,0,0,0-4.329-3.616c-.581-.345-1.159-.689-1.7-1.073-7.468-5.283-15.131-10.549-22.542-15.638l-2.189-1.5q-6.365-4.372-12.755-8.712-4.987-3.4-9.968-6.8c-1.462-1-2.913-2.019-4.365-3.035-1.552-1.087-3.1-2.174-4.669-3.242a4.885,4.885,0,0,1-1.3-1.311,4.333,4.333,0,0,1,1.477-.548c2.106-.234,4.207-.512,6.308-.79,2.291-.3,4.661-.618,6.99-.866,4.857-.514,9.766-1.173,14.512-1.809l4.072-.543c6.76-.893,13.53-1.735,20.3-2.577l.706-.089q4.557-.568,9.12-1.109,3.233-.389,6.467-.781l1.869-.229q7.6-.929,15.206-1.887,4.582-.584,9.164-1.2,4.038-.535,8.08-1.06l3.328-.428c5.25-.679,10.679-1.381,16.025-1.972.388-.043.781-.121,1.177-.2a3.211,3.211,0,0,1,2.137-.022,5.715,5.715,0,0,0,.949.385,7.3,7.3,0,0,1-1.693,2.012Q560.775,9.771,556.24,14c-7.871,7.339-16.009,14.926-24.078,22.317-3.107,2.848-6.213,5.8-9.215,8.644-4.69,4.452-9.54,9.053-14.493,13.363a12.257,12.257,0,0,0-3.164,3.779c-.016.035-.013.072-.027.107a1.276,1.276,0,0,0-.283.66c-.038.424-.269.6-1.3,1m101.275-7.082c-2.308-.879-4.6-.609-6.829-.348-.739.087-1.479.176-2.217.215-5.4.288-10.875.711-16.171,1.121l-1.526.117c-2.1.163-4.2.354-6.3.545s-4.2.385-6.31.547-4.2.3-6.3.432c-3.735.24-7.6.487-11.39.892-2.205.236-4.461.4-6.644.57-1.934.144-3.869.292-5.8.482-2.023.2-4.051.353-6.078.508s-4.022.306-6.028.5c-1.6.155-3.2.259-4.8.362-2.748.178-5.591.363-8.4.816a4.856,4.856,0,0,1-2.58-.236c.013-.023.033-.04.044-.065a9.729,9.729,0,0,1,2.533-2.959c5-4.346,9.867-8.969,14.576-13.438,3-2.843,6.091-5.781,9.182-8.613,8.077-7.4,16.22-14.99,24.1-22.333q4.536-4.227,9.075-8.453a7.937,7.937,0,0,0,2.654-3.866,6.8,6.8,0,0,0,1.662-.694c.021-.012.033-.034.053-.047a25.2,25.2,0,0,1,3.753,5.183c.457.756.914,1.514,1.4,2.251,2.851,4.34,5.7,8.79,8.448,13.1q2.269,3.55,4.544,7.093l4.254,6.59c3.446,5.337,6.894,10.672,10.3,16.035.26.411.547.824.833,1.22.67.923.775,1.346.742,1.537-.026.165-.194.456-.777.937" transform="translate(0.113 0.113)" fill="#fcfcfc"/>
          <path id="Path_21" data-name="Path 21" d="M607.1,52.787c-.254-.353-.51-.721-.742-1.087q-5.114-8.052-10.312-16.052l-4.25-6.588q-2.279-3.538-4.54-7.085c-2.756-4.312-5.606-8.771-8.467-13.125-.466-.708-.9-1.437-1.346-2.166a28.98,28.98,0,0,0-3.9-5.438L571.568.759a1.293,1.293,0,0,0-1.463-.12,2.651,2.651,0,0,1-2.839.2,5.493,5.493,0,0,0-3.861-.223c-.319.065-.634.13-.944.165-5.371.594-10.812,1.3-16.074,1.977l-3.326.43q-4.046.519-8.089,1.06-4.577.605-9.152,1.195-7.6.968-15.194,1.886l-1.868.229q-3.229.394-6.462.78-4.565.551-9.13,1.11l-.706.089c-6.774.843-13.549,1.686-20.315,2.58l-4.078.544c-4.729.634-9.619,1.29-14.439,1.8-2.363.251-4.751.568-7.059.873-2.083.276-4.165.552-6.253.784a6.829,6.829,0,0,0-2.439.851l.588,1.16.62,1.069c-.035-.053-.082-.1-.116-.151a4.108,4.108,0,0,0-2.865-1.938,4.23,4.23,0,0,0-3.426,1.018c-1.739,1.5-3.44,3.039-5.142,4.581l-1.47,1.329q-2.646,2.386-5.282,4.78c-4.428,4.013-9.009,8.161-13.565,12.18-11.8,10.408-22.338,19.815-32.207,28.759-7.866,7.129-14.3,12.892-20.255,18.135q-1.568,1.378-3.142,2.753c-3.858,3.369-7.845,6.853-11.582,10.491-2.161,2.1-4.463,4.139-6.689,6.111s-4.527,4.007-6.7,6.122l-.142.13a3.146,3.146,0,0,0-.836,1.053,4.253,4.253,0,0,1-2.56,2.542c-1.66.613-2.434,2.31-2.02,4.428,1.624,8.3,3.373,16.9,5.194,25.553,1.087,5.157,2.126,10.324,3.164,15.489,1.05,5.229,2.1,10.456,3.2,15.675.211.993.391,1.994.573,3a45.269,45.269,0,0,0,1.769,7.384c.571,1.584.182,2.663-.556,4.433q-3.329,7.984-6.583,16-2.845,6.957-5.712,13.9-5.541,13.357-11.155,26.684l-4.134,9.855c-.363.864-.737,1.723-1.112,2.584-.461,1.058-.923,2.144-1.372,3.239-.449-1.095-.911-2.18-1.372-3.239-.375-.86-.748-1.72-1.112-2.584l-4.134-9.855q-5.6-13.336-11.155-26.684-2.882-6.941-5.712-13.9-3.27-8.007-6.583-16c-.738-1.77-1.127-2.849-.556-4.433a45.272,45.272,0,0,0,1.769-7.384c.182-1,.362-2,.571-3,1.1-5.218,2.15-10.446,3.2-15.675,1.039-5.165,2.077-10.331,3.163-15.489,1.822-8.656,3.57-17.254,5.194-25.553.415-2.118-.359-3.815-2.019-4.428a4.253,4.253,0,0,1-2.56-2.542,3.132,3.132,0,0,0-.837-1.053l-.141-.13c-2.178-2.115-4.478-4.152-6.7-6.122s-4.529-4.01-6.689-6.111c-3.737-3.638-7.725-7.123-11.582-10.491q-1.572-1.375-3.144-2.753c-5.951-5.243-12.388-11.006-20.254-18.135C223.834,60.815,213.3,51.408,201.5,41c-4.557-4.018-9.136-8.167-13.565-12.18q-2.64-2.392-5.283-4.78l-1.468-1.329c-1.7-1.541-3.4-3.082-5.142-4.581a4.23,4.23,0,0,0-3.426-1.018,4.1,4.1,0,0,0-2.865,1.938c-.034.056-.081.1-.116.151l.62-1.069.588-1.16a6.838,6.838,0,0,0-2.439-.851c-2.088-.232-4.171-.508-6.253-.784-2.308-.306-4.7-.622-7.059-.873-4.82-.51-9.71-1.166-14.439-1.8l-4.078-.544c-6.767-.894-13.541-1.736-20.315-2.58l-.706-.089q-4.563-.568-9.131-1.11-3.229-.387-6.46-.78l-1.869-.229Q90.49,6.4,82.9,5.448q-4.577-.584-9.152-1.195-4.044-.535-8.089-1.06l-3.326-.43C57.067,2.084,51.626,1.38,46.255.786c-.31-.035-.626-.1-.944-.165a5.5,5.5,0,0,0-3.862.223,2.648,2.648,0,0,1-2.838-.2,1.293,1.293,0,0,0-1.463.12l-1.975.487a29.044,29.044,0,0,0-3.9,5.438c-.44.729-.879,1.458-1.346,2.166-2.861,4.354-5.71,8.812-8.466,13.125q-2.265,3.546-4.54,7.085l-4.25,6.588Q7.5,43.659,2.361,51.7c-.233.366-.488.734-.742,1.087A4.779,4.779,0,0,0,.414,56.269a5.131,5.131,0,0,0,2.408,3.078,1.293,1.293,0,0,0,1.336.107c1.869-.925,3.938-.682,6.128-.426.8.092,1.591.186,2.381.228,5.371.286,10.83.708,16.109,1.117l1.526.118c2.09.16,4.177.351,6.265.541,2.114.194,4.228.387,6.344.549s4.225.3,6.339.435c3.707.237,7.541.483,11.28.881,2.245.241,4.522.411,6.724.578,1.913.144,3.828.289,5.739.476,2.041.2,4.089.357,6.136.513,1.992.152,3.984.3,5.972.5,1.624.159,3.253.264,4.883.37,2.688.174,5.466.355,8.151.789a8.079,8.079,0,0,0,1.83.09,6.829,6.829,0,0,0,2.592-.689,6.983,6.983,0,0,0,1.545.78l.3.117a19.443,19.443,0,0,1,4.251,2.65l.868.644q6.8,4.975,13.541,10.028l28.426,21.13c.163.121.331.24.5.358,1.054.733,1.226.961,1.148,1.526a1.3,1.3,0,0,0,1.378,1.477,1.232,1.232,0,0,0,.307-.074c.487.125.508.2.543.39a64,64,0,0,0,3.513,11.2c.564,1.467,1.127,2.935,1.643,4.417,2.365,6.8,4.784,13.576,7.2,20.354l1.414,3.966q1.209,3.393,2.434,6.78,1.593,4.424,3.166,8.858-.644,2.95-1.306,5.9c-.832,3.718-1.691,7.56-2.465,11.368-.539,2.653-1.117,5.3-1.695,7.94-1.125,5.136-2.287,10.447-3.133,15.77a14.647,14.647,0,0,1-.495,1.915c-.105.344-.21.687-.3,1.032a1.572,1.572,0,0,0,.958,1.912h.009l-.005.262c.094,0,.159-.005.213-.005a70.177,70.177,0,0,0,10.352,5.652c1.238.587,2.474,1.173,3.7,1.785q3.932,1.97,7.854,3.961c4.923,2.491,10.012,5.067,15.058,7.531,3.3,1.611,6.584,3.258,9.868,4.9,4.362,2.187,8.871,4.449,13.353,6.592a48.445,48.445,0,0,1,4.931,2.689,4.353,4.353,0,0,1,1.418,1.207,7.052,7.052,0,0,1-3.712-.316c-5.96-1.969-12.073-3.781-17.984-5.533l-4.953-1.472q-6.152-1.841-12.316-3.649-4.389-1.293-8.773-2.593-10.465-3.108-20.919-6.248l-.164-.049a6.3,6.3,0,0,0-4.124-.237c-2.545-1.377-4.473.518-5.112,1.149-6.5,6.422-13.293,12.94-20.76,19.925-4.309,4.03-8.588,8.221-12.73,12.273l-2.283,2.234c-1.414,1.381-2.858,2.728-4.3,4.074-2.146,2-4.368,4.072-6.456,6.235l-.371.379a7.681,7.681,0,0,0-2.48,4.012,1.227,1.227,0,0,0,0,.229c-.017.036-.047.061-.061.1a5.732,5.732,0,0,0-.415,2.754c.134,1.023.282,2.046.431,3.068.341,2.355.694,4.789.86,7.174.2,2.865.517,5.751.824,8.54q.182,1.646.355,3.3c.471,4.542.994,9.079,1.516,13.617q.424,3.686.841,7.375c.074.67.126,1.347.177,2.023.089,1.159.178,2.357.389,3.548.624,3.522.965,7.168,1.3,10.692.285,3.046.581,6.2,1.058,9.3a9.151,9.151,0,0,0,4.174,6.618c2.222,1.459,4.556,2.787,6.814,4.073q1.355.769,2.7,1.55,3.639,2.12,7.274,4.25c5.657,3.311,11.508,6.734,17.3,10.039,12.587,7.176,23.886,13.7,34.54,19.938.341.2.681.407,1.023.617,1.869,1.145,3.988,2.443,6.644,2.521.042,0,.085,0,.125,0a1.3,1.3,0,0,0,.978-.549,5.238,5.238,0,0,1,1.778-1.345,8.466,8.466,0,0,0,2.5-1.9c1.473-1.774,3.128-3.481,4.728-5.13q.859-.886,1.712-1.777L215.4,370.582q8.195-8.6,16.379-17.215,4.944-5.209,9.863-10.439,4.569-4.848,9.147-9.686,2.981-3.144,5.989-6.265c2.883-3,5.765-6,8.608-9.04,5.889-6.292,12.013-12.782,18.208-19.289s12.4-13.041,18.6-19.567a4.993,4.993,0,0,0,1.441-3.006,3.577,3.577,0,0,1,.674-1.721c.02-.029.034-.06.052-.09.018.03.033.061.051.09a3.567,3.567,0,0,1,.676,1.721,4.993,4.993,0,0,0,1.441,3.006q9.3,9.788,18.6,19.567c6.195,6.507,12.319,13,18.208,19.289,2.843,3.038,5.725,6.04,8.607,9.04q3,3.128,5.99,6.265,4.583,4.832,9.146,9.686,4.926,5.225,9.863,10.439,8.179,8.616,16.379,17.215l10.235,10.751c.566.594,1.139,1.186,1.712,1.777,1.6,1.649,3.254,3.356,4.726,5.13a8.5,8.5,0,0,0,2.5,1.9,5.231,5.231,0,0,1,1.779,1.345,1.3,1.3,0,0,0,.978.549c.04,0,.083,0,.125,0,2.655-.078,4.773-1.376,6.644-2.521.341-.21.682-.417,1.022-.617,10.655-6.24,21.954-12.762,34.54-19.938,5.8-3.3,11.646-6.727,17.3-10.039q3.636-2.128,7.274-4.25,1.345-.783,2.7-1.55c2.257-1.286,4.592-2.614,6.814-4.073a9.155,9.155,0,0,0,4.174-6.618c.476-3.1.773-6.249,1.058-9.3.331-3.524.672-7.17,1.3-10.692.211-1.191.3-2.39.389-3.548.051-.676.1-1.352.177-2.023q.414-3.688.841-7.375c.522-4.538,1.044-9.075,1.516-13.617.113-1.1.234-2.2.355-3.3.307-2.789.624-5.675.824-8.54.167-2.385.519-4.819.859-7.174.148-1.022.3-2.045.432-3.068a5.716,5.716,0,0,0-.417-2.754,1.109,1.109,0,0,0-.06-.1,1.348,1.348,0,0,0,0-.229,7.675,7.675,0,0,0-2.481-4.012l-.371-.379c-2.087-2.163-4.309-4.233-6.455-6.235-1.445-1.346-2.891-2.693-4.3-4.074l-2.282-2.234c-4.142-4.052-8.423-8.243-12.73-12.273-7.468-6.985-14.258-13.5-20.76-19.925-.639-.631-2.567-2.527-5.112-1.149a6.3,6.3,0,0,0-4.124.237l-.164.049q-10.454,3.144-20.921,6.248-4.383,1.3-8.772,2.593-6.16,1.816-12.316,3.649l-4.953,1.472c-5.912,1.752-12.025,3.564-17.984,5.533a7.052,7.052,0,0,1-3.712.316,4.353,4.353,0,0,1,1.418-1.207,48.557,48.557,0,0,1,4.929-2.689c4.483-2.143,8.992-4.4,13.354-6.592,3.284-1.645,6.567-3.292,9.868-4.9,5.045-2.464,10.135-5.04,15.058-7.531q3.925-1.986,7.854-3.961c1.221-.612,2.458-1.2,3.7-1.785a70.176,70.176,0,0,0,10.352-5.652c.053,0,.12,0,.212.005l0-.262h.009a1.572,1.572,0,0,0,.958-1.912c-.1-.345-.2-.689-.3-1.032a14.65,14.65,0,0,1-.495-1.915c-.846-5.323-2.008-10.633-3.133-15.77-.578-2.644-1.157-5.287-1.695-7.94-.774-3.807-1.634-7.65-2.465-11.368q-.66-2.946-1.306-5.9,1.566-4.434,3.166-8.858,1.22-3.388,2.434-6.78l1.414-3.966c2.419-6.778,4.837-13.556,7.2-20.354.515-1.481,1.079-2.95,1.641-4.417a63.891,63.891,0,0,0,3.514-11.2c.035-.19.056-.266.543-.39a1.233,1.233,0,0,0,.307.074,1.3,1.3,0,0,0,1.378-1.477c-.078-.565.094-.793,1.148-1.526.169-.118.337-.237.5-.358l28.425-21.13q6.756-5.034,13.541-10.028l.87-.644a19.443,19.443,0,0,1,4.251-2.65l.3-.117a6.982,6.982,0,0,0,1.545-.78,6.823,6.823,0,0,0,2.59.689,8.091,8.091,0,0,0,1.831-.09c2.685-.433,5.463-.614,8.151-.789,1.628-.105,3.258-.211,4.883-.37,1.988-.194,3.98-.345,5.972-.5,2.046-.156,4.094-.311,6.136-.513,1.911-.187,3.824-.332,5.739-.476,2.2-.167,4.479-.337,6.724-.578,3.74-.4,7.572-.644,11.28-.881,2.114-.135,4.228-.272,6.339-.435s4.23-.355,6.344-.549c2.088-.19,4.174-.381,6.265-.541l1.526-.118c5.28-.409,10.739-.83,16.108-1.117.791-.042,1.587-.135,2.382-.228,2.189-.256,4.259-.5,6.128.426a1.293,1.293,0,0,0,1.336-.107,5.133,5.133,0,0,0,2.407-3.078A4.772,4.772,0,0,0,607.1,52.787ZM98.551,63.55c-2.808-.453-5.649-.638-8.4-.816-1.6-.1-3.2-.207-4.8-.362-2.006-.2-4.016-.35-6.028-.5s-4.055-.308-6.077-.508c-1.93-.19-3.865-.337-5.8-.482-2.182-.165-4.437-.335-6.644-.57-3.793-.4-7.654-.652-11.388-.892-2.1-.135-4.206-.269-6.305-.432S38.9,58.633,36.8,58.44s-4.2-.383-6.3-.545l-1.526-.117c-5.3-.41-10.77-.833-16.171-1.121-.738-.039-1.477-.128-2.217-.215-2.227-.262-4.521-.531-6.829.348-.583-.482-.751-.772-.777-.937-.033-.191.072-.614.742-1.537.286-.4.573-.808.833-1.22q5.108-8.044,10.3-16.035l4.254-6.59q2.279-3.54,4.544-7.093c2.752-4.306,5.6-8.756,8.448-13.1.484-.737.942-1.494,1.4-2.251a25.206,25.206,0,0,1,3.753-5.183c.02.013.031.035.053.047a6.8,6.8,0,0,0,1.662.694,7.936,7.936,0,0,0,2.654,3.866q4.542,4.223,9.075,8.453c7.874,7.343,16.018,14.934,24.1,22.333,3.091,2.832,6.187,5.77,9.182,8.613,4.709,4.47,9.58,9.092,14.575,13.438a9.711,9.711,0,0,1,2.533,2.959c.013.025.033.042.046.065A4.86,4.86,0,0,1,98.551,63.55Zm5.185-.678a1.274,1.274,0,0,0-.281-.66c-.014-.035-.012-.072-.029-.107a12.254,12.254,0,0,0-3.163-3.779c-4.953-4.31-9.8-8.911-14.493-13.363-3-2.849-6.107-5.8-9.215-8.644C68.486,28.928,60.348,21.341,52.476,14Q47.94,9.773,43.4,5.548a7.314,7.314,0,0,1-1.692-2.012,5.715,5.715,0,0,0,.949-.385,3.211,3.211,0,0,1,2.137.022c.4.081.789.159,1.177.2,5.345.591,10.775,1.293,16.025,1.972l3.328.428q4.042.521,8.079,1.06,4.581.605,9.164,1.2,7.6.968,15.206,1.887l1.869.229q3.233.4,6.467.781,4.561.549,9.12,1.109l.706.089c6.767.842,13.536,1.684,20.3,2.577l4.072.543c4.746.637,9.656,1.3,14.512,1.809,2.329.247,4.7.561,6.99.866,2.1.279,4.2.556,6.307.79a4.313,4.313,0,0,1,1.477.548,4.861,4.861,0,0,1-1.3,1.311c-1.565,1.069-3.118,2.156-4.669,3.242-1.451,1.017-2.9,2.033-4.365,3.035q-4.979,3.407-9.968,6.8Q142.909,38,136.535,42.359l-2.188,1.5c-7.413,5.09-15.076,10.355-22.542,15.638-.544.384-1.122.728-1.7,1.073a12.474,12.474,0,0,0-4.329,3.616c-.133-.059-.255-.129-.392-.185l-.344-.134C104,63.475,103.775,63.3,103.736,62.872Zm49.307,35.912L124.62,77.655c-4.51-3.361-9.021-6.722-13.56-10.042l-.846-.629c-.686-.512-1.385-1.028-2.12-1.514a10.754,10.754,0,0,1,3.34-2.658c.62-.37,1.261-.751,1.873-1.185,7.452-5.274,15.11-10.533,22.514-15.619l2.188-1.5q6.363-4.37,12.747-8.706,4.991-3.4,9.975-6.805c1.47-1.006,2.929-2.028,4.388-3.051,1.542-1.082,3.086-2.162,4.643-3.224a7.485,7.485,0,0,0,2.208-2.31,1.49,1.49,0,0,1,1.045-.724,1.637,1.637,0,0,1,1.323.417c1.723,1.485,3.409,3.012,5.1,4.54l1.472,1.332q2.642,2.386,5.278,4.776c4.436,4.018,9.022,8.173,13.591,12.2,11.8,10.4,22.321,19.8,32.18,28.736,7.878,7.138,14.322,12.907,20.283,18.158q1.574,1.384,3.153,2.761c3.83,3.347,7.791,6.806,11.478,10.4,2.205,2.145,4.531,4.2,6.78,6.195,2.2,1.951,4.48,3.968,6.616,6.042l.2.187a2.631,2.631,0,0,1,.232.225,8.236,8.236,0,0,0,.547,1.009,3.329,3.329,0,0,1-2,.381c-3.623-.657-7.315-1.1-10.886-1.529-2.2-.264-4.394-.528-6.586-.841-2.89-.413-5.831-.769-8.676-1.114-3.721-.45-7.571-.916-11.323-1.514-4.169-.663-8.413-1.156-12.518-1.634-2.858-.333-5.816-.677-8.711-1.074-4.885-.67-9.83-1.283-14.613-1.876-3.009-.372-6.014-.8-9.017-1.229-2.523-.359-5.047-.72-7.574-1.048l-3.051-.4c-6.8-.885-13.839-1.8-20.784-2.527-.729-.077-1.467-.217-2.248-.367-2.084-.4-4.432-.825-6.832.057a4.063,4.063,0,0,0-.781-.316,4.765,4.765,0,0,0-2.165-2.545C153.331,98.991,153.185,98.889,153.043,98.784Zm18.542,44.8-1.415-3.967c-2.416-6.773-4.832-13.543-7.2-20.333-.525-1.509-1.1-3-1.669-4.5a62.453,62.453,0,0,1-3.351-10.585,11.6,11.6,0,0,1,4.811.255c.8.152,1.627.31,2.465.4,6.913.724,13.932,1.636,20.719,2.519l3.052.4c2.517.325,5.03.685,7.542,1.041,3.019.431,6.038.862,9.065,1.237,4.773.591,9.709,1.2,14.577,1.872,2.921.4,5.891.746,8.764,1.079,4.078.475,8.294.966,12.41,1.621,3.8.6,7.673,1.073,11.42,1.527,2.83.342,5.757.7,8.62,1.106,2.21.315,4.428.582,6.645.847,3.533.426,7.185.863,10.73,1.507a5.024,5.024,0,0,0,1.231.068,7.3,7.3,0,0,0,3.064-1.026,6.982,6.982,0,0,0,1.64.892c.508.187.48.912.368,1.487-1.622,8.288-3.367,16.872-5.187,25.517-1.087,5.164-2.128,10.339-3.167,15.512-1.049,5.221-2.1,10.441-3.2,15.65-.213,1.018-.4,2.045-.586,3.072a42.6,42.6,0,0,1-1.657,6.963,7.019,7.019,0,0,0-.344,1.425,27.085,27.085,0,0,1-5.569-1.483c-.764-.266-1.527-.53-2.294-.767q-2.251-.7-4.509-1.382c-4.155-1.267-8.452-2.577-12.621-4.017-5.785-2-11.841-3.891-18.518-5.789-3.846-1.093-7.723-2.343-11.472-3.552-3.03-.976-6.163-1.986-9.273-2.913s-6.278-1.93-9.333-2.9c-2.873-.912-5.744-1.824-8.63-2.692-1.135-.34-2.261-.715-3.386-1.087a60.027,60.027,0,0,0-7.725-2.167l-.016-.042.031-.143-.091-.023c-1.157-3.289-2.34-6.571-3.522-9.854Q172.8,146.97,171.585,143.582Zm56.234,90.706c-4.461-2.133-8.959-4.388-13.31-6.57-3.291-1.651-6.583-3.3-9.89-4.916-5.03-2.456-10.111-5.028-15.028-7.515q-3.928-1.988-7.861-3.966c-1.239-.621-2.493-1.214-3.746-1.809a69.9,69.9,0,0,1-9.725-5.277c.025-.078.046-.158.07-.237a17.2,17.2,0,0,0,.595-2.352c.832-5.229,1.984-10.494,3.1-15.585.582-2.659,1.164-5.319,1.706-7.988.767-3.775,1.623-7.6,2.451-11.3.285-1.272.564-2.545.846-3.816a57.14,57.14,0,0,1,7.492,2.1c1.149.381,2.3.761,3.456,1.11,2.873.864,5.733,1.772,8.592,2.679,3.065.974,6.236,1.98,9.377,2.916,3.084.916,6.2,1.923,9.217,2.895,3.771,1.216,7.671,2.472,11.56,3.578,6.628,1.884,12.639,3.763,18.378,5.746,4.214,1.455,8.534,2.773,12.712,4.046q2.249.685,4.5,1.378c.741.229,1.476.484,2.213.739a27.585,27.585,0,0,0,6.57,1.661,15.711,15.711,0,0,0,.8,2.258c2.217,5.316,4.4,10.648,6.575,15.981q2.847,6.963,5.716,13.915,5.545,13.363,11.161,26.693l4.134,9.855c.367.876.746,1.747,1.125,2.618.725,1.662,1.475,3.383,2.11,5.092a4.946,4.946,0,0,1,.233,2.735,1.283,1.283,0,0,0-.639-.66,4.051,4.051,0,0,1-.754-.514,6.575,6.575,0,0,0-1.257-.828l-2.665-1.267c-4.018-1.912-8.172-3.891-12.332-5.707l-1.243-.542c-3.18-1.384-6.468-2.815-9.588-4.4-4.771-2.433-9.718-4.661-14.5-6.818q-2.2-.99-4.392-1.986c-5.563-2.537-11.356-4.739-16.956-6.869l-1.848-.7c-.7-.267-1.01-.48-1.134-.782a5.954,5.954,0,0,0-2.622-2.745A50.769,50.769,0,0,0,227.819,234.288Zm-64.351-11.125.167.051q10.462,3.144,20.931,6.252,4.385,1.3,8.776,2.594,6.156,1.814,12.307,3.645l4.958,1.475c5.894,1.747,11.987,3.552,17.908,5.509a9.387,9.387,0,0,0,6.459,0,7.411,7.411,0,0,0,.866.4l1.851.7c5.562,2.115,11.314,4.3,16.8,6.805q2.2,1,4.4,1.992c4.755,2.143,9.671,4.358,14.389,6.763,3.19,1.625,6.515,3.073,9.731,4.473l1.242.54c4.12,1.8,8.254,3.767,12.253,5.67l2.668,1.269a4.383,4.383,0,0,1,.765.525,6.263,6.263,0,0,0,1.285.836,1.232,1.232,0,0,0,1.057,0c-.056.1-.105.2-.168.293-.1.147-.185.3-.276.46a42.5,42.5,0,0,0-10.239,2.083l-1.061.31c-3.309.957-6.709,1.841-10,2.694q-1.943.5-3.883,1.015l-6.264,1.656q-9.661,2.554-19.327,5.088c-2.72.711-5.446,1.4-8.171,2.1-3.844.976-7.686,1.954-11.516,2.98-3.107.833-6.206,1.7-9.306,2.571-4.85,1.359-9.865,2.766-14.826,4-1.25.312-2.5.644-3.741.979-2.355.63-4.791,1.282-7.2,1.76a8.94,8.94,0,0,0-1.325-5.438c-.13-.258-.258-.515-.38-.773q-4.292-9.1-8.506-18.238-3.524-7.6-7.072-15.191-2.111-4.495-4.238-8.982c-3-6.34-6.1-12.9-9.057-19.384-.56-1.229-1.138-2.452-1.717-3.675-.708-1.5-1.416-3-2.093-4.513a8.106,8.106,0,0,1-.522-1.651A5.381,5.381,0,0,1,163.468,223.163Zm-53.533,45.37.392-.4c2.04-2.111,4.234-4.158,6.357-6.137,1.459-1.36,2.92-2.722,4.348-4.117l2.283-2.235c4.132-4.042,8.4-8.223,12.689-12.232,7.486-7,14.294-13.536,20.811-19.973.978-.965,1.436-1,1.9-.789a10.289,10.289,0,0,0,.828,2.862c.685,1.532,1.4,3.047,2.118,4.564.573,1.212,1.145,2.422,1.7,3.642,2.967,6.5,6.071,13.069,9.074,19.417q2.12,4.485,4.233,8.974,3.556,7.582,7.068,15.181,4.237,9.136,8.514,18.252c.129.276.267.551.4.827a7.994,7.994,0,0,1,1.105,3.291c-9.03-3.344-18.244-6.523-27.175-9.595l-2.458-.846q-13.174-4.532-26.321-9.138c-1.657-.579-3.3-1.192-4.95-1.8-2.476-.919-5.035-1.871-7.6-2.7-2.074-.67-4.133-1.384-6.189-2.094-3.406-1.179-6.914-2.391-10.46-3.395A9.122,9.122,0,0,1,109.935,268.532Zm3.149,53.453c-.189-1.065-.271-2.146-.358-3.292-.053-.708-.107-1.414-.186-2.117q-.412-3.692-.841-7.383c-.522-4.527-1.043-9.056-1.514-13.589-.115-1.1-.236-2.206-.357-3.31-.3-2.765-.618-5.623-.815-8.436-.173-2.481-.532-4.965-.881-7.366-.147-1.011-.293-2.021-.426-3.034a2.363,2.363,0,0,1,.086-.88c3.509.988,7.015,2.188,10.417,3.365,2.074.717,4.15,1.436,6.24,2.11,2.515.812,5.047,1.753,7.5,2.663,1.662.617,3.323,1.235,5,1.821q13.154,4.606,26.334,9.142l2.458.846c8.9,3.06,18.071,6.225,27.053,9.549a14.657,14.657,0,0,1-4.307,2.782c-.62.3-1.237.6-1.839.932q-5.022,2.737-10.029,5.493c-6.939,3.81-14.117,7.75-21.228,11.516-3.731,1.975-7.491,4.034-11.129,6.025-5.323,2.912-10.826,5.924-16.318,8.723-1.739.885-3.468,1.844-5.139,2.771s-3.38,1.876-5.091,2.748a7.8,7.8,0,0,0-1.63,1.127,7.806,7.806,0,0,1-.633-2.161c-.465-3.022-.756-6.133-1.039-9.143C114.071,329.311,113.725,325.613,113.084,321.986Zm74.98,65.3c-.357-.219-.711-.436-1.067-.644-10.665-6.245-21.97-12.772-34.567-19.953-5.781-3.3-11.625-6.715-17.277-10.024q-3.638-2.126-7.278-4.251c-.9-.527-1.815-1.045-2.724-1.563-2.223-1.265-4.522-2.573-6.674-3.987a7.892,7.892,0,0,1-.79-.6,5.316,5.316,0,0,1,1.2-.886c1.751-.892,3.49-1.856,5.17-2.789,1.652-.916,3.36-1.863,5.057-2.73,5.528-2.814,11.049-5.835,16.387-8.758,3.63-1.986,7.383-4.042,11.1-6.009,7.129-3.775,14.313-7.719,21.263-11.534q5.006-2.751,10.022-5.488c.568-.311,1.153-.595,1.736-.879a16.362,16.362,0,0,0,5.208-3.466,10.955,10.955,0,0,1,.385,4.816c-.046.722-.09,1.445-.089,2.161.009,3.2-.174,6.467-.351,9.628l-.049.894c-.176,3.14-.272,6.325-.366,9.407-.1,3.228-.2,6.566-.391,9.837-.068,1.172-.083,2.35-.1,3.531-.017,1.3-.034,2.64-.129,3.935-.133,1.824-.172,3.662-.21,5.441-.043,2.014-.087,4.1-.269,6.123-.148,1.647-.147,3.3-.146,4.909,0,.992,0,1.982-.034,2.972-.057,1.644-.135,3.289-.216,4.935-.108,2.273-.217,4.547-.271,6.823l-.036,1.868c-.033,1.882-.066,3.828-.221,5.725a4.533,4.533,0,0,0,.683,2.422l.012.026c-.073.066-.148.125-.217.2A12.43,12.43,0,0,1,188.064,387.29Zm93.64-90.438c-6.2,6.512-12.329,13.008-18.222,19.305-2.836,3.03-5.71,6.024-8.585,9.018q-3.007,3.13-6,6.274-4.585,4.836-9.153,9.692-4.92,5.223-9.855,10.433-8.179,8.616-16.375,17.211l-10.236,10.751c-.561.591-1.127,1.175-1.695,1.761-1.635,1.686-3.324,3.429-4.86,5.28a5.452,5.452,0,0,1-1.509,1.138,2.222,2.222,0,0,1-.276-.768c.16-1.98.2-3.969.229-5.894l.035-1.85c.053-2.255.161-4.508.269-6.761.079-1.656.159-3.311.217-4.967.035-1.019.035-2.042.035-3.064,0-1.617,0-3.144.135-4.674.19-2.114.234-4.242.28-6.3.038-1.746.075-3.55.2-5.307.1-1.373.118-2.756.134-4.092.014-1.14.029-2.279.1-3.41.193-3.308.294-6.665.393-9.91.092-3.067.189-6.236.362-9.342l.049-.893c.18-3.2.366-6.507.357-9.779,0-.66.042-1.325.085-1.992a13.852,13.852,0,0,0-.458-5.639c2.312-.479,4.607-1.08,6.826-1.674,1.231-.329,2.461-.659,3.7-.967,5-1.244,10.032-2.657,14.9-4.021,3.09-.866,6.179-1.731,9.278-2.562,3.816-1.023,7.649-2,11.481-2.972,2.731-.7,5.462-1.388,8.189-2.1q9.673-2.527,19.334-5.092l6.264-1.656q1.933-.512,3.872-1.011c3.3-.859,6.721-1.747,10.063-2.715l1.067-.31A44.133,44.133,0,0,1,301,276.06a2.615,2.615,0,0,1-.7,1.229Q291.008,287.077,281.7,296.853Zm130.291,89.724c-1.536-1.851-3.227-3.594-4.86-5.28-.568-.586-1.135-1.17-1.695-1.761L395.2,368.786q-8.193-8.6-16.375-17.211-4.94-5.205-9.856-10.433-4.571-4.852-9.153-9.692-2.985-3.149-6-6.274c-2.875-2.994-5.749-5.988-8.585-9.018-5.893-6.3-12.024-12.793-18.222-19.305s-12.4-13.039-18.6-19.564a2.63,2.63,0,0,1-.7-1.229,44.112,44.112,0,0,1,8.67,1.932l1.069.31c3.343.968,6.758,1.856,10.063,2.715q1.937.5,3.872,1.011l6.264,1.656q9.665,2.556,19.334,5.092c2.726.712,5.457,1.4,8.189,2.1,3.831.975,7.663,1.949,11.481,2.972,3.1.83,6.188,1.7,9.278,2.562,4.867,1.364,9.9,2.776,14.9,4.021,1.238.309,2.468.638,3.7.967,2.219.594,4.514,1.195,6.826,1.674a13.852,13.852,0,0,0-.458,5.639c.043.666.086,1.332.083,1.992-.008,3.272.177,6.58.358,9.779l.049.893c.172,3.106.269,6.275.362,9.342.1,3.245.2,6.6.393,9.91.066,1.131.081,2.27.1,3.41.016,1.337.033,2.719.134,4.092.128,1.757.165,3.561.2,5.307.044,2.059.09,4.187.28,6.3.138,1.531.137,3.058.135,4.674,0,1.022,0,2.045.035,3.064.059,1.656.138,3.311.216,4.967.108,2.253.216,4.506.269,6.761l.036,1.85c.033,1.925.068,3.914.229,5.894a2.222,2.222,0,0,1-.276.768A5.433,5.433,0,0,1,411.995,386.577Zm71.571-35.723c-.91.518-1.821,1.036-2.726,1.563q-3.641,2.122-7.276,4.251c-5.652,3.309-11.5,6.727-17.277,10.024-12.6,7.181-23.9,13.708-34.567,19.953-.357.208-.711.426-1.067.644a12.43,12.43,0,0,1-4.755,2.09c-.069-.073-.144-.131-.217-.2l.012-.026a4.533,4.533,0,0,0,.683-2.422c-.155-1.9-.19-3.843-.221-5.725l-.036-1.868c-.055-2.277-.163-4.551-.271-6.823-.081-1.645-.159-3.291-.216-4.935-.035-.989-.035-1.98-.034-2.972,0-1.6,0-3.262-.146-4.909-.182-2.025-.227-4.109-.269-6.123-.039-1.779-.077-3.617-.211-5.441-.094-1.3-.111-2.637-.128-3.935-.014-1.182-.03-2.36-.1-3.531-.191-3.271-.293-6.609-.391-9.837-.094-3.082-.19-6.268-.366-9.407l-.049-.894c-.177-3.162-.361-6.432-.351-9.628,0-.716-.043-1.438-.089-2.161a10.944,10.944,0,0,1,.385-4.818,16.345,16.345,0,0,0,5.208,3.468c.583.284,1.169.568,1.736.879q5.018,2.732,10.022,5.488c6.95,3.815,14.134,7.759,21.262,11.534,3.716,1.967,7.469,4.022,11.1,6.009,5.338,2.922,10.859,5.943,16.385,8.758,1.7.867,3.405,1.813,5.058,2.73,1.68.933,3.419,1.9,5.17,2.789a5.338,5.338,0,0,1,1.2.886,7.9,7.9,0,0,1-.79.6C488.087,348.281,485.789,349.589,483.566,350.854Zm17.358-78.276a2.392,2.392,0,0,1,.086.88c-.133,1.013-.28,2.023-.426,3.034-.349,2.4-.708,4.885-.883,7.366-.2,2.813-.51,5.671-.814,8.436-.121,1.1-.242,2.208-.357,3.31-.471,4.534-.993,9.062-1.514,13.589q-.426,3.692-.841,7.383c-.079.7-.133,1.408-.186,2.117-.087,1.145-.169,2.227-.358,3.292-.64,3.628-.988,7.326-1.322,10.9-.283,3.009-.575,6.12-1.039,9.143a7.852,7.852,0,0,1-.633,2.161,7.8,7.8,0,0,0-1.63-1.127c-1.712-.872-3.43-1.825-5.091-2.748s-3.4-1.886-5.139-2.771c-5.492-2.8-11-5.811-16.318-8.723-3.638-1.992-7.4-4.051-11.129-6.025-7.111-3.766-14.288-7.706-21.228-11.516q-5.012-2.753-10.029-5.493c-.6-.328-1.221-.63-1.839-.932a14.657,14.657,0,0,1-4.307-2.782c8.982-3.324,18.157-6.489,27.053-9.549l2.458-.846q13.181-4.536,26.334-9.142c1.674-.586,3.335-1.2,5-1.821,2.45-.91,4.982-1.851,7.5-2.663,2.092-.674,4.168-1.393,6.242-2.11C493.909,274.766,497.415,273.566,500.924,272.578ZM451.9,223.437c6.517,6.437,13.325,12.97,20.811,19.973,4.285,4.009,8.556,8.19,12.689,12.232l2.283,2.235c1.428,1.4,2.888,2.757,4.348,4.117,2.123,1.98,4.318,4.026,6.357,6.137l.39.4a9.131,9.131,0,0,1,1.336,1.556c-3.546,1-7.054,2.215-10.46,3.395-2.057.711-4.116,1.424-6.189,2.094-2.568.828-5.127,1.779-7.6,2.7-1.647.612-3.293,1.225-4.95,1.8q-13.146,4.606-26.321,9.138l-2.458.846c-8.932,3.072-18.147,6.251-27.175,9.595a7.993,7.993,0,0,1,1.105-3.291c.137-.276.276-.551.4-.827q4.3-9.106,8.514-18.252,3.522-7.6,7.068-15.181,2.107-4.491,4.233-8.974c3-6.348,6.107-12.913,9.073-19.417.556-1.22,1.129-2.43,1.7-3.642.717-1.516,1.433-3.032,2.118-4.564a10.333,10.333,0,0,0,.828-2.862C450.466,222.436,450.924,222.473,451.9,223.437Zm-71.7,19.25c5.923-1.956,12.016-3.762,17.908-5.509l4.959-1.475q6.148-1.839,12.307-3.645,4.389-1.3,8.776-2.594,10.469-3.11,20.931-6.252l.167-.051a5.38,5.38,0,0,1,2.072-.364,8.034,8.034,0,0,1-.523,1.651c-.676,1.515-1.385,3.015-2.092,4.513-.579,1.222-1.157,2.446-1.717,3.675-2.959,6.488-6.059,13.044-9.058,19.384q-2.122,4.489-4.237,8.982-3.558,7.586-7.072,15.191-4.235,9.128-8.508,18.238c-.121.258-.249.515-.379.773a8.931,8.931,0,0,0-1.325,5.438c-2.415-.478-4.85-1.13-7.2-1.76-1.246-.335-2.491-.666-3.742-.979-4.959-1.234-9.976-2.641-14.825-4-3.1-.868-6.2-1.738-9.306-2.571-3.831-1.026-7.672-2-11.516-2.98-2.724-.694-5.45-1.386-8.172-2.1q-9.667-2.525-19.326-5.088l-6.264-1.656q-1.939-.514-3.883-1.015c-3.287-.854-6.687-1.738-10-2.694l-1.061-.31a42.519,42.519,0,0,0-10.24-2.083c-.09-.156-.181-.312-.275-.46-.062-.1-.112-.2-.168-.293a1.23,1.23,0,0,0,1.056,0,6.275,6.275,0,0,0,1.286-.836,4.378,4.378,0,0,1,.764-.525l2.668-1.269c4-1.9,8.134-3.871,12.254-5.67l1.242-.54c3.216-1.4,6.541-2.848,9.731-4.473,4.716-2.405,9.634-4.621,14.389-6.763q2.2-.992,4.4-1.992c5.488-2.5,11.24-4.69,16.8-6.805l1.851-.7a7.409,7.409,0,0,0,.866-.4A9.383,9.383,0,0,0,380.2,242.688Zm56.493-56.627c1.116,5.091,2.268,10.356,3.1,15.585a17.2,17.2,0,0,0,.595,2.352c.023.079.046.159.07.237a69.975,69.975,0,0,1-9.725,5.277c-1.255.595-2.507,1.188-3.746,1.809q-3.936,1.972-7.861,3.966c-4.916,2.486-10,5.058-15.028,7.515-3.308,1.615-6.6,3.266-9.89,4.916-4.35,2.182-8.849,4.436-13.31,6.57a50.934,50.934,0,0,0-5.2,2.834,5.952,5.952,0,0,0-2.62,2.745c-.124.3-.431.515-1.134.782l-1.848.7c-5.6,2.13-11.392,4.332-16.956,6.869q-2.195,1-4.392,1.986c-4.782,2.157-9.73,4.385-14.5,6.818-3.119,1.589-6.407,3.021-9.588,4.4l-1.242.542c-4.16,1.816-8.314,3.794-12.332,5.707l-2.666,1.267a6.605,6.605,0,0,0-1.256.828,4.05,4.05,0,0,1-.754.514,1.283,1.283,0,0,0-.639.66,4.946,4.946,0,0,1,.233-2.735c.635-1.709,1.385-3.43,2.109-5.092.38-.871.759-1.742,1.126-2.618l4.134-9.855q5.6-13.338,11.161-26.693,2.882-6.947,5.716-13.915c2.179-5.333,4.358-10.665,6.575-15.981a15.708,15.708,0,0,0,.8-2.258,27.6,27.6,0,0,0,6.57-1.661c.737-.255,1.472-.51,2.212-.739q2.247-.7,4.5-1.378c4.178-1.273,8.5-2.59,12.712-4.046,5.739-1.982,11.75-3.862,18.378-5.746,3.889-1.106,7.789-2.363,11.56-3.578,3.016-.972,6.133-1.979,9.217-2.895,3.14-.936,6.311-1.942,9.377-2.916,2.86-.907,5.72-1.815,8.592-2.679,1.157-.349,2.307-.729,3.456-1.11a57.14,57.14,0,0,1,7.492-2.1q.422,1.908.845,3.816c.829,3.7,1.686,7.529,2.452,11.3C435.53,180.742,436.112,183.4,436.693,186.061Zm10.718-71.277c-.571,1.494-1.144,2.989-1.67,4.5-2.362,6.791-4.778,13.561-7.194,20.333l-1.415,3.967q-1.207,3.388-2.432,6.771c-1.182,3.283-2.364,6.564-3.521,9.854l-.091.023.031.143-.016.042a59.967,59.967,0,0,0-7.725,2.167c-1.126.372-2.251.747-3.386,1.087-2.886.868-5.759,1.779-8.631,2.692-3.054.97-6.213,1.972-9.332,2.9s-6.243,1.937-9.273,2.913c-3.75,1.209-7.627,2.459-11.473,3.552-6.675,1.9-12.732,3.79-18.516,5.789-4.169,1.44-8.466,2.75-12.621,4.017q-2.255.687-4.509,1.382c-.767.237-1.529.5-2.294.767a27.084,27.084,0,0,1-5.569,1.483,7.022,7.022,0,0,0-.345-1.425,42.6,42.6,0,0,1-1.656-6.963c-.186-1.027-.372-2.054-.586-3.072-1.1-5.209-2.148-10.429-3.2-15.65-1.039-5.173-2.08-10.348-3.167-15.512-1.82-8.644-3.565-17.229-5.187-25.517-.112-.574-.139-1.3.367-1.487a6.965,6.965,0,0,0,1.641-.892,7.294,7.294,0,0,0,3.064,1.026,5.024,5.024,0,0,0,1.231-.068c3.543-.644,7.2-1.082,10.73-1.507,2.217-.266,4.435-.532,6.644-.847,2.864-.41,5.791-.764,8.621-1.106,3.746-.454,7.62-.923,11.42-1.527,4.116-.655,8.332-1.145,12.41-1.621,2.872-.333,5.843-.678,8.764-1.079,4.868-.669,9.8-1.281,14.577-1.872,3.026-.375,6.045-.806,9.065-1.237,2.511-.357,5.024-.716,7.541-1.041l3.054-.4c6.787-.883,13.806-1.8,20.719-2.519.838-.089,1.666-.246,2.464-.4a11.6,11.6,0,0,1,4.811-.255A62.451,62.451,0,0,1,447.411,114.784Zm51.092-47.8-.846.629c-4.539,3.321-9.049,6.681-13.56,10.042L455.673,98.784c-.141.105-.288.207-.433.308a4.763,4.763,0,0,0-2.163,2.545,4.064,4.064,0,0,0-.781.316c-2.4-.883-4.748-.453-6.832-.057-.781.15-1.519.29-2.248.367-6.944.726-13.98,1.641-20.784,2.527l-3.052.4c-2.528.328-5.05.689-7.573,1.048-3,.428-6.007.857-9.017,1.229-4.782.592-9.727,1.205-14.614,1.876-2.894.4-5.851.741-8.711,1.074-4.1.478-8.348.971-12.517,1.634-3.753.6-7.6,1.063-11.325,1.514-2.843.345-5.785.7-8.674,1.114-2.192.312-4.389.577-6.588.841-3.569.428-7.262.872-10.885,1.529a3.329,3.329,0,0,1-2-.381,8.414,8.414,0,0,0,.547-1.009,2.626,2.626,0,0,1,.232-.225l.2-.187c2.136-2.075,4.414-4.091,6.616-6.042,2.249-1.992,4.575-4.049,6.78-6.195,3.688-3.59,7.649-7.05,11.478-10.4q1.578-1.378,3.151-2.761c5.962-5.251,12.406-11.02,20.284-18.158,9.859-8.936,20.384-18.335,32.18-28.736,4.569-4.03,9.155-8.185,13.591-12.2q2.638-2.39,5.278-4.776l1.472-1.332c1.687-1.528,3.373-3.055,5.095-4.54a1.64,1.64,0,0,1,1.324-.417,1.492,1.492,0,0,1,1.045.724,7.485,7.485,0,0,0,2.208,2.31c1.557,1.062,3.1,2.143,4.643,3.224,1.459,1.023,2.918,2.045,4.388,3.051q4.981,3.411,9.975,6.805,6.379,4.344,12.746,8.706l2.189,1.5c7.4,5.086,15.06,10.344,22.512,15.619.613.433,1.255.815,1.874,1.185a10.77,10.77,0,0,1,3.34,2.658C499.888,65.956,499.187,66.473,498.5,66.984Zm5.177-3.112-.345.134c-.135.056-.258.126-.39.185a12.474,12.474,0,0,0-4.329-3.616c-.581-.345-1.159-.689-1.7-1.073-7.468-5.283-15.131-10.549-22.542-15.638l-2.189-1.5q-6.365-4.372-12.755-8.712-4.987-3.4-9.968-6.8c-1.462-1-2.913-2.019-4.365-3.035-1.552-1.087-3.1-2.174-4.669-3.242a4.885,4.885,0,0,1-1.3-1.311,4.333,4.333,0,0,1,1.477-.548c2.106-.234,4.207-.512,6.308-.79,2.291-.3,4.661-.618,6.99-.866,4.857-.514,9.766-1.173,14.512-1.809l4.072-.543c6.76-.893,13.53-1.735,20.3-2.577l.706-.089q4.557-.568,9.12-1.109,3.233-.389,6.467-.781l1.869-.229q7.6-.929,15.206-1.887,4.582-.584,9.164-1.2,4.038-.535,8.08-1.06l3.328-.428c5.25-.679,10.679-1.381,16.025-1.972.388-.043.781-.121,1.177-.2a3.211,3.211,0,0,1,2.137-.022,5.715,5.715,0,0,0,.949.385,7.3,7.3,0,0,1-1.693,2.012Q560.775,9.771,556.24,14c-7.871,7.339-16.009,14.926-24.078,22.317-3.107,2.848-6.213,5.8-9.215,8.644-4.69,4.452-9.54,9.053-14.493,13.363a12.257,12.257,0,0,0-3.164,3.779c-.016.035-.013.072-.027.107a1.276,1.276,0,0,0-.283.66C504.942,63.3,504.71,63.475,503.68,63.872Zm101.275-7.082c-2.308-.879-4.6-.609-6.829-.348-.739.087-1.479.176-2.217.215-5.4.288-10.875.711-16.171,1.121l-1.526.117c-2.1.163-4.2.354-6.3.545s-4.2.385-6.31.547-4.2.3-6.3.432c-3.735.24-7.6.487-11.39.892-2.205.236-4.461.4-6.644.57-1.934.144-3.869.292-5.8.482-2.023.2-4.051.353-6.078.508s-4.022.306-6.028.5c-1.6.155-3.2.259-4.8.362-2.748.178-5.591.363-8.4.816a4.856,4.856,0,0,1-2.58-.236c.013-.023.033-.04.044-.065a9.729,9.729,0,0,1,2.533-2.959c5-4.346,9.867-8.969,14.576-13.438,3-2.843,6.091-5.781,9.182-8.613,8.077-7.4,16.22-14.99,24.1-22.333q4.536-4.227,9.075-8.453a7.937,7.937,0,0,0,2.654-3.866,6.8,6.8,0,0,0,1.662-.694c.021-.012.033-.034.053-.047a25.2,25.2,0,0,1,3.753,5.183c.457.756.914,1.514,1.4,2.251,2.851,4.34,5.7,8.79,8.448,13.1q2.269,3.55,4.544,7.093l4.254,6.59c3.446,5.337,6.894,10.672,10.3,16.035.26.411.547.824.833,1.22.67.923.775,1.346.742,1.537C605.706,56.018,605.538,56.308,604.955,56.789Z" transform="translate(0.113 0.113)" fill="#fcfcfc"/>
        </g>
      </g>
    </g>
  </g>
</svg>
